<?xml version="1.0" encoding="UTF-8" standalone="no"?>
<!-- Created with Inkscape (http://www.inkscape.org/) -->

<svg
   width="15.000119mm"
   height="15.000007mm"
   viewBox="0 0 15.000119 15.000007"
   version="1.1"
   id="svg1"
   inkscape:version="1.3.2 (091e20e, 2023-11-25, custom)"
   sodipodi:docname="trame.svg"
   xmlns:inkscape="http://www.inkscape.org/namespaces/inkscape"
   xmlns:sodipodi="http://sodipodi.sourceforge.net/DTD/sodipodi-0.dtd"
   xmlns="http://www.w3.org/2000/svg"
   xmlns:svg="http://www.w3.org/2000/svg">
  <sodipodi:namedview
     id="namedview1"
     pagecolor="#505050"
     bordercolor="#eeeeee"
     borderopacity="1"
     inkscape:showpageshadow="0"
     inkscape:pageopacity="0"
     inkscape:pagecheckerboard="0"
     inkscape:deskcolor="#505050"
     inkscape:document-units="mm"
     showguides="true"
     inkscape:zoom="1.0343421"
     inkscape:cx="286.65565"
     inkscape:cy="98.130011"
     inkscape:window-width="1920"
     inkscape:window-height="1017"
     inkscape:window-x="-8"
     inkscape:window-y="-7"
     inkscape:window-maximized="1"
     inkscape:current-layer="layer1">
    <sodipodi:guide
       position="30,297.80317"
       orientation="-1,0"
       id="guide2"
       inkscape:locked="false"
       inkscape:label=""
       inkscape:color="rgb(0,134,229)" />
    <sodipodi:guide
       position="34.916518,281.99999"
       orientation="0,1"
       id="guide3"
       inkscape:locked="false"
       inkscape:label=""
       inkscape:color="rgb(0,134,229)" />
    <sodipodi:guide
       position="15,281.99999"
       orientation="-1,0"
       id="guide4"
       inkscape:locked="false"
       inkscape:label=""
       inkscape:color="rgb(0,134,229)" />
    <sodipodi:guide
       position="27.114659,296.99999"
       orientation="0,1"
       id="guide5"
       inkscape:locked="false"
       inkscape:label=""
       inkscape:color="rgb(0,134,229)" />
    <sodipodi:guide
       position="60,290.38501"
       orientation="-1,0"
       id="guide1"
       inkscape:locked="false"
       inkscape:label=""
       inkscape:color="rgb(0,134,229)" />
    <sodipodi:guide
       position="45,315.70797"
       orientation="-1,0"
       id="guide6"
       inkscape:locked="false"
       inkscape:label=""
       inkscape:color="rgb(0,134,229)" />
  </sodipodi:namedview>
  <defs
     id="defs1" />
  <g
     inkscape:label="Calque 1"
     inkscape:groupmode="layer"
     id="layer1"
     transform="translate(0,-14.999995)">
    <rect
       style="fill:#fe1664;fill-opacity:1;stroke:none;stroke-width:0.1;stroke-linecap:square;stroke-linejoin:round;stroke-miterlimit:2.7;paint-order:stroke markers fill"
       id="rect1191"
       width="15"
       height="15.000001"
       x="0"
       y="0"
       inkscape:export-filename="..\..\PersonalWebsite\site\src\assets\halftones-p.svg"
       inkscape:export-xdpi="54.187172"
       inkscape:export-ydpi="54.187172" />
    <rect
       style="fill:#0ca099;fill-opacity:1;stroke:none;stroke-width:0.1;stroke-linecap:square;stroke-linejoin:round;stroke-miterlimit:2.7;paint-order:stroke markers fill"
       id="rect1191-0"
       width="15"
       height="15.000001"
       x="0"
       y="15.000001" />
    <path
       id="rect1190-3"
       style="fill:#24b0a9;fill-opacity:1;stroke:none;stroke-width:0.1;stroke-linecap:square;stroke-linejoin:round;stroke-miterlimit:2.7;paint-order:stroke markers fill"
       d="m 2.0769104e-7,15.000002 v 6.82439 A 0.23542412,0.23542412 0 0 1 0.08061521,22.000091 0.23542412,0.23542412 0 0 1 2.0769104e-7,22.171657 V 23.68526 A 0.35117647,0.35117647 0 0 1 0.19637061,23.999969 0.35117647,0.35117647 0 0 1 2.0769104e-7,24.314679 v 0.489376 A 0.40784314,0.40784314 0 0 1 0.35501731,24.592181 0.40784314,0.40784314 0 0 1 0.7632611,24.999908 0.40784314,0.40784314 0 0 1 0.35501731,25.407635 0.40784314,0.40784314 0 0 1 2.0769104e-7,25.195762 v 0.377755 A 0.46803921,0.46803921 0 0 1 0.31367611,25.999847 0.46803921,0.46803921 0 0 1 2.0769104e-7,26.440131 v 0.24908 A 0.48745099,0.48745099 0 0 1 0.35501731,26.512478 0.48745099,0.48745099 0 0 1 0.8428428,26.999786 0.48745099,0.48745099 0 0 1 0.35501731,27.487612 0.48745099,0.48745099 0 0 1 2.0769104e-7,27.310878 v 0.162781 A 0.5551765,0.5551765 0 0 1 0.34571551,27.75943 0.5551765,0.5551765 0 0 1 0.8454266,27.44472 a 0.5551765,0.5551765 0 0 1 0.5002279,0.31471 0.5551765,0.5551765 0 0 1 0.4997111,-0.31471 0.5551765,0.5551765 0 0 1 0.5002279,0.31471 0.5551765,0.5551765 0 0 1 0.4997111,-0.31471 0.5551765,0.5551765 0 0 1 0.5002278,0.31471 0.5551765,0.5551765 0 0 1 0.4997111,-0.31471 0.5551765,0.5551765 0 0 1 0.5002279,0.31471 0.5551765,0.5551765 0 0 1 0.4997111,-0.31471 0.5551765,0.5551765 0 0 1 0.500745,0.31471 0.5551765,0.5551765 0 0 1 0.499711,-0.31471 0.5551765,0.5551765 0 0 1 0.500228,0.31471 0.5551765,0.5551765 0 0 1 0.499711,-0.31471 0.5551765,0.5551765 0 0 1 0.500228,0.31471 0.5551765,0.5551765 0 0 1 0.499711,-0.31471 0.5551765,0.5551765 0 0 1 0.500227,0.31471 0.5551765,0.5551765 0 0 1 0.499712,-0.31471 0.5551765,0.5551765 0 0 1 0.500227,0.31471 0.5551765,0.5551765 0 0 1 0.499712,-0.31471 0.5551765,0.5551765 0 0 1 0.5002275,0.31471 0.5551765,0.5551765 0 0 1 0.499712,-0.31471 0.5551765,0.5551765 0 0 1 0.500228,0.31471 0.5551765,0.5551765 0 0 1 0.499711,-0.31471 0.5551765,0.5551765 0 0 1 0.500228,0.31471 0.5551765,0.5551765 0 0 1 0.499711,-0.31471 0.5551765,0.5551765 0 0 1 0.500744,0.31471 0.5551765,0.5551765 0 0 1 0.499195,-0.31471 0.5551765,0.5551765 0 0 1 0.500744,0.31471 0.5551765,0.5551765 0 0 1 0.499711,-0.31471 0.5551765,0.5551765 0 0 1 0.154513,0.02894 v -0.162781 a 0.48745099,0.48745099 0 0 1 -0.132292,-0.311092 0.48745099,0.48745099 0 0 1 0.132292,-0.310575 v -0.249597 a 0.46803921,0.46803921 0 0 1 -0.154513,0.02842 0.46803921,0.46803921 0 0 1 -0.468188,-0.468189 0.46803921,0.46803921 0 0 1 0.468188,-0.467671 0.46803921,0.46803921 0 0 1 0.154513,0.04134 v -0.377753 a 0.40784314,0.40784314 0 0 1 -0.05271,-0.195854 0.40784314,0.40784314 0 0 1 0.05271,-0.195853 v -0.489376 a 0.35117647,0.35117647 0 0 1 -0.154513,0.03669 0.35117647,0.35117647 0 0 1 -0.351399,-0.3514 0.35117647,0.35117647 0 0 1 0.351399,-0.3514 0.35117647,0.35117647 0 0 1 0.154513,0.03669 v -1.513602 a 0.23542412,0.23542412 0 0 1 -0.154513,0.06356 0.23542412,0.23542412 0 0 1 -0.235644,-0.235128 0.23542412,0.23542412 0 0 1 0.235644,-0.235644 0.23542412,0.23542412 0 0 1 0.154513,0.05994 v -6.82439 z M 0.35501731,20.818768 a 0.18131517,0.18131517 0 0 1 0.1813843,0.181385 0.18131517,0.18131517 0 0 1 -0.1813843,0.181384 0.18131517,0.18131517 0 0 1 -0.1813843,-0.181384 0.18131517,0.18131517 0 0 1 0.1813843,-0.181385 z m 0.99993899,0 a 0.18131517,0.18131517 0 0 1 0.1813842,0.181385 0.18131517,0.18131517 0 0 1 -0.1813842,0.181384 0.18131517,0.18131517 0 0 1 -0.1808676,-0.181384 0.18131517,0.18131517 0 0 1 0.1808676,-0.181385 z m 1.0004557,0 A 0.18131517,0.18131517 0 0 1 2.5362795,21.000153 0.18131517,0.18131517 0 0 1 2.355412,21.181537 0.18131517,0.18131517 0 0 1 2.1740277,21.000153 0.18131517,0.18131517 0 0 1 2.355412,20.818768 Z m 0.9999389,0 a 0.18131517,0.18131517 0 0 1 0.1813843,0.181385 0.18131517,0.18131517 0 0 1 -0.1813843,0.181384 0.18131517,0.18131517 0 0 1 -0.1813842,-0.181384 0.18131517,0.18131517 0 0 1 0.1813842,-0.181385 z m 0.999939,0 a 0.18131517,0.18131517 0 0 1 0.1813843,0.181385 0.18131517,0.18131517 0 0 1 -0.1813843,0.181384 0.18131517,0.18131517 0 0 1 -0.1813843,-0.181384 0.18131517,0.18131517 0 0 1 0.1813843,-0.181385 z m 0.9999386,0 a 0.18131517,0.18131517 0 0 1 0.181385,0.181385 0.18131517,0.18131517 0 0 1 -0.181385,0.181384 0.18131517,0.18131517 0 0 1 -0.181384,-0.181384 0.18131517,0.18131517 0 0 1 0.181384,-0.181385 z m 0.999939,0 a 0.18131517,0.18131517 0 0 1 0.181385,0.181385 0.18131517,0.18131517 0 0 1 -0.181385,0.181384 0.18131517,0.18131517 0 0 1 -0.181384,-0.181384 0.18131517,0.18131517 0 0 1 0.181384,-0.181385 z m 0.999939,0 a 0.18131517,0.18131517 0 0 1 0.181385,0.181385 0.18131517,0.18131517 0 0 1 -0.181385,0.181384 0.18131517,0.18131517 0 0 1 -0.181384,-0.181384 0.18131517,0.18131517 0 0 1 0.181384,-0.181385 z m 0.999939,0 a 0.18131517,0.18131517 0 0 1 0.181385,0.181385 0.18131517,0.18131517 0 0 1 -0.181385,0.181384 0.18131517,0.18131517 0 0 1 -0.181384,-0.181384 0.18131517,0.18131517 0 0 1 0.181384,-0.181385 z m 0.999939,0 a 0.18131517,0.18131517 0 0 1 0.181385,0.181385 0.18131517,0.18131517 0 0 1 -0.181385,0.181384 0.18131517,0.18131517 0 0 1 -0.180867,-0.181384 0.18131517,0.18131517 0 0 1 0.180867,-0.181385 z m 1.0004555,0 a 0.18131517,0.18131517 0 0 1 0.180868,0.181385 0.18131517,0.18131517 0 0 1 -0.180868,0.181384 0.18131517,0.18131517 0 0 1 -0.181384,-0.181384 0.18131517,0.18131517 0 0 1 0.181384,-0.181385 z m 0.99994,0 a 0.18131517,0.18131517 0 0 1 0.181385,0.181385 0.18131517,0.18131517 0 0 1 -0.181385,0.181384 0.18131517,0.18131517 0 0 1 -0.181384,-0.181384 0.18131517,0.18131517 0 0 1 0.181384,-0.181385 z m 0.999939,0 a 0.18131517,0.18131517 0 0 1 0.181384,0.181385 0.18131517,0.18131517 0 0 1 -0.181384,0.181384 0.18131517,0.18131517 0 0 1 -0.181384,-0.181384 0.18131517,0.18131517 0 0 1 0.181384,-0.181385 z m 0.999939,0 a 0.18131517,0.18131517 0 0 1 0.181384,0.181385 0.18131517,0.18131517 0 0 1 -0.181384,0.181384 0.18131517,0.18131517 0 0 1 -0.181384,-0.181384 0.18131517,0.18131517 0 0 1 0.181384,-0.181385 z m 0.999939,0 a 0.18131517,0.18131517 0 0 1 0.181384,0.181385 0.18131517,0.18131517 0 0 1 -0.181384,0.181384 0.18131517,0.18131517 0 0 1 -0.181384,-0.181384 0.18131517,0.18131517 0 0 1 0.181384,-0.181385 z M 0.8454266,21.764447 a 0.23542412,0.23542412 0 0 1 0.2356446,0.235644 0.23542412,0.23542412 0 0 1 -0.2356446,0.235128 0.23542412,0.23542412 0 0 1 -0.2356445,-0.235128 0.23542412,0.23542412 0 0 1 0.2356445,-0.235644 z m 0.999939,0 a 0.23542412,0.23542412 0 0 1 0.2356445,0.235644 0.23542412,0.23542412 0 0 1 -0.2356445,0.235128 0.23542412,0.23542412 0 0 1 -0.2356445,-0.235128 0.23542412,0.23542412 0 0 1 0.2356445,-0.235644 z m 0.999939,0 a 0.23542412,0.23542412 0 0 1 0.2356445,0.235644 0.23542412,0.23542412 0 0 1 -0.2356445,0.235128 0.23542412,0.23542412 0 0 1 -0.2351278,-0.235128 0.23542412,0.23542412 0 0 1 0.2351278,-0.235644 z m 0.9999389,0 a 0.23542412,0.23542412 0 0 1 0.2356446,0.235644 0.23542412,0.23542412 0 0 1 -0.2356446,0.235128 0.23542412,0.23542412 0 0 1 -0.2351277,-0.235128 0.23542412,0.23542412 0 0 1 0.2351277,-0.235644 z m 0.999939,0 a 0.23542412,0.23542412 0 0 1 0.235645,0.235644 0.23542412,0.23542412 0 0 1 -0.235645,0.235128 0.23542412,0.23542412 0 0 1 -0.2351278,-0.235128 0.23542412,0.23542412 0 0 1 0.2351278,-0.235644 z m 1.000456,0 a 0.23542412,0.23542412 0 0 1 0.235128,0.235644 0.23542412,0.23542412 0 0 1 -0.235128,0.235128 0.23542412,0.23542412 0 0 1 -0.235645,-0.235128 0.23542412,0.23542412 0 0 1 0.235645,-0.235644 z m 0.999939,0 a 0.23542412,0.23542412 0 0 1 0.235128,0.235644 0.23542412,0.23542412 0 0 1 -0.235128,0.235128 0.23542412,0.23542412 0 0 1 -0.235645,-0.235128 0.23542412,0.23542412 0 0 1 0.235645,-0.235644 z m 0.999939,0 a 0.23542412,0.23542412 0 0 1 0.235127,0.235644 0.23542412,0.23542412 0 0 1 -0.235127,0.235128 0.23542412,0.23542412 0 0 1 -0.235645,-0.235128 0.23542412,0.23542412 0 0 1 0.235645,-0.235644 z m 0.999939,0 a 0.23542412,0.23542412 0 0 1 0.235127,0.235644 0.23542412,0.23542412 0 0 1 -0.235127,0.235128 0.23542412,0.23542412 0 0 1 -0.235645,-0.235128 0.23542412,0.23542412 0 0 1 0.235645,-0.235644 z m 0.999939,0 a 0.23542412,0.23542412 0 0 1 0.2356435,0.235644 0.23542412,0.23542412 0 0 1 -0.2356435,0.235128 0.23542412,0.23542412 0 0 1 -0.235645,-0.235128 0.23542412,0.23542412 0 0 1 0.235645,-0.235644 z m 0.9999395,0 a 0.23542412,0.23542412 0 0 1 0.235644,0.235644 0.23542412,0.23542412 0 0 1 -0.235644,0.235128 0.23542412,0.23542412 0 0 1 -0.235129,-0.235128 0.23542412,0.23542412 0 0 1 0.235129,-0.235644 z m 0.999939,0 a 0.23542412,0.23542412 0 0 1 0.235644,0.235644 0.23542412,0.23542412 0 0 1 -0.235644,0.235128 0.23542412,0.23542412 0 0 1 -0.235128,-0.235128 0.23542412,0.23542412 0 0 1 0.235128,-0.235644 z m 0.999939,0 a 0.23542412,0.23542412 0 0 1 0.235644,0.235644 0.23542412,0.23542412 0 0 1 -0.235644,0.235128 0.23542412,0.23542412 0 0 1 -0.235128,-0.235128 0.23542412,0.23542412 0 0 1 0.235128,-0.235644 z m 0.999939,0 a 0.23542412,0.23542412 0 0 1 0.235644,0.235644 0.23542412,0.23542412 0 0 1 -0.235644,0.235128 0.23542412,0.23542412 0 0 1 -0.235128,-0.235128 0.23542412,0.23542412 0 0 1 0.235128,-0.235644 z M 0.35501731,22.69669 a 0.30335295,0.30335295 0 0 1 0.30334069,0.303341 0.30335295,0.30335295 0 0 1 -0.30334069,0.30334 0.30335295,0.30335295 0 0 1 -0.3033407,-0.30334 0.30335295,0.30335295 0 0 1 0.3033407,-0.303341 z m 0.99993899,0 a 0.30335295,0.30335295 0 0 1 0.3033406,0.303341 0.30335295,0.30335295 0 0 1 -0.3033406,0.30334 0.30335295,0.30335295 0 0 1 -0.3033407,-0.30334 0.30335295,0.30335295 0 0 1 0.3033407,-0.303341 z m 1.0004557,0 A 0.30335295,0.30335295 0 0 1 2.6587526,23.000031 0.30335295,0.30335295 0 0 1 2.355412,23.303371 0.30335295,0.30335295 0 0 1 2.0520713,23.000031 0.30335295,0.30335295 0 0 1 2.355412,22.69669 Z m 0.9999389,0 a 0.30335295,0.30335295 0 0 1 0.3033407,0.303341 0.30335295,0.30335295 0 0 1 -0.3033407,0.30334 0.30335295,0.30335295 0 0 1 -0.3033406,-0.30334 0.30335295,0.30335295 0 0 1 0.3033406,-0.303341 z m 0.999939,0 a 0.30335295,0.30335295 0 0 1 0.3033407,0.303341 0.30335295,0.30335295 0 0 1 -0.3033407,0.30334 0.30335295,0.30335295 0 0 1 -0.3033406,-0.30334 0.30335295,0.30335295 0 0 1 0.3033406,-0.303341 z m 0.9999386,0 a 0.30335295,0.30335295 0 0 1 0.303341,0.303341 0.30335295,0.30335295 0 0 1 -0.303341,0.30334 0.30335295,0.30335295 0 0 1 -0.30334,-0.30334 0.30335295,0.30335295 0 0 1 0.30334,-0.303341 z m 0.999939,0 a 0.30335295,0.30335295 0 0 1 0.303341,0.303341 0.30335295,0.30335295 0 0 1 -0.303341,0.30334 0.30335295,0.30335295 0 0 1 -0.30334,-0.30334 0.30335295,0.30335295 0 0 1 0.30334,-0.303341 z m 0.999939,0 a 0.30335295,0.30335295 0 0 1 0.303341,0.303341 0.30335295,0.30335295 0 0 1 -0.303341,0.30334 0.30335295,0.30335295 0 0 1 -0.30334,-0.30334 0.30335295,0.30335295 0 0 1 0.30334,-0.303341 z m 0.999939,0 a 0.30335295,0.30335295 0 0 1 0.303341,0.303341 0.30335295,0.30335295 0 0 1 -0.303341,0.30334 0.30335295,0.30335295 0 0 1 -0.30334,-0.30334 0.30335295,0.30335295 0 0 1 0.30334,-0.303341 z m 0.999939,0 a 0.30335295,0.30335295 0 0 1 0.303341,0.303341 0.30335295,0.30335295 0 0 1 -0.303341,0.30334 0.30335295,0.30335295 0 0 1 -0.30334,-0.30334 0.30335295,0.30335295 0 0 1 0.30334,-0.303341 z m 1.0004555,0 a 0.30335295,0.30335295 0 0 1 0.303341,0.303341 0.30335295,0.30335295 0 0 1 -0.303341,0.30334 0.30335295,0.30335295 0 0 1 -0.30334,-0.30334 0.30335295,0.30335295 0 0 1 0.30334,-0.303341 z m 0.99994,0 a 0.30335295,0.30335295 0 0 1 0.303341,0.303341 0.30335295,0.30335295 0 0 1 -0.303341,0.30334 0.30335295,0.30335295 0 0 1 -0.30334,-0.30334 0.30335295,0.30335295 0 0 1 0.30334,-0.303341 z m 0.999939,0 a 0.30335295,0.30335295 0 0 1 0.303341,0.303341 0.30335295,0.30335295 0 0 1 -0.303341,0.30334 0.30335295,0.30335295 0 0 1 -0.30334,-0.30334 0.30335295,0.30335295 0 0 1 0.30334,-0.303341 z m 0.999939,0 a 0.30335295,0.30335295 0 0 1 0.303341,0.303341 0.30335295,0.30335295 0 0 1 -0.303341,0.30334 0.30335295,0.30335295 0 0 1 -0.30334,-0.30334 0.30335295,0.30335295 0 0 1 0.30334,-0.303341 z m 0.999939,0 a 0.30335295,0.30335295 0 0 1 0.303341,0.303341 0.30335295,0.30335295 0 0 1 -0.303341,0.30334 0.30335295,0.30335295 0 0 1 -0.303341,-0.30334 0.30335295,0.30335295 0 0 1 0.303341,-0.303341 z M 0.8454266,23.64857 a 0.35117647,0.35117647 0 0 1 0.3513998,0.351399 0.35117647,0.35117647 0 0 1 -0.3513998,0.3514 0.35117647,0.35117647 0 0 1 -0.35139969,-0.3514 0.35117647,0.35117647 0 0 1 0.35139969,-0.351399 z m 0.999939,0 a 0.35117647,0.35117647 0 0 1 0.3513997,0.351399 0.35117647,0.35117647 0 0 1 -0.3513997,0.3514 0.35117647,0.35117647 0 0 1 -0.3513997,-0.3514 0.35117647,0.35117647 0 0 1 0.3513997,-0.351399 z m 0.999939,0 a 0.35117647,0.35117647 0 0 1 0.3513997,0.351399 0.35117647,0.35117647 0 0 1 -0.3513997,0.3514 0.35117647,0.35117647 0 0 1 -0.350883,-0.3514 0.35117647,0.35117647 0 0 1 0.350883,-0.351399 z m 0.9999389,0 a 0.35117647,0.35117647 0 0 1 0.3513998,0.351399 0.35117647,0.35117647 0 0 1 -0.3513998,0.3514 0.35117647,0.35117647 0 0 1 -0.3508829,-0.3514 0.35117647,0.35117647 0 0 1 0.3508829,-0.351399 z m 0.999939,0 a 0.35117647,0.35117647 0 0 1 0.3514,0.351399 0.35117647,0.35117647 0 0 1 -0.3514,0.3514 0.35117647,0.35117647 0 0 1 -0.350883,-0.3514 0.35117647,0.35117647 0 0 1 0.350883,-0.351399 z m 1.000456,0 a 0.35117647,0.35117647 0 0 1 0.350883,0.351399 0.35117647,0.35117647 0 0 1 -0.350883,0.3514 0.35117647,0.35117647 0 0 1 -0.3514,-0.3514 0.35117647,0.35117647 0 0 1 0.3514,-0.351399 z m 0.999939,0 a 0.35117647,0.35117647 0 0 1 0.350883,0.351399 0.35117647,0.35117647 0 0 1 -0.350883,0.3514 0.35117647,0.35117647 0 0 1 -0.3514,-0.3514 0.35117647,0.35117647 0 0 1 0.3514,-0.351399 z m 0.999939,0 a 0.35117647,0.35117647 0 0 1 0.350883,0.351399 0.35117647,0.35117647 0 0 1 -0.350883,0.3514 0.35117647,0.35117647 0 0 1 -0.3514,-0.3514 0.35117647,0.35117647 0 0 1 0.3514,-0.351399 z m 0.999939,0 a 0.35117647,0.35117647 0 0 1 0.350883,0.351399 0.35117647,0.35117647 0 0 1 -0.350883,0.3514 0.35117647,0.35117647 0 0 1 -0.3514,-0.3514 0.35117647,0.35117647 0 0 1 0.3514,-0.351399 z m 0.999939,0 a 0.35117647,0.35117647 0 0 1 0.3513995,0.351399 0.35117647,0.35117647 0 0 1 -0.3513995,0.3514 0.35117647,0.35117647 0 0 1 -0.3514,-0.3514 0.35117647,0.35117647 0 0 1 0.3514,-0.351399 z m 0.9999395,0 a 0.35117647,0.35117647 0 0 1 0.3514,0.351399 0.35117647,0.35117647 0 0 1 -0.3514,0.3514 0.35117647,0.35117647 0 0 1 -0.350884,-0.3514 0.35117647,0.35117647 0 0 1 0.350884,-0.351399 z m 0.999939,0 a 0.35117647,0.35117647 0 0 1 0.3514,0.351399 0.35117647,0.35117647 0 0 1 -0.3514,0.3514 0.35117647,0.35117647 0 0 1 -0.350883,-0.3514 0.35117647,0.35117647 0 0 1 0.350883,-0.351399 z m 0.999939,0 a 0.35117647,0.35117647 0 0 1 0.3514,0.351399 0.35117647,0.35117647 0 0 1 -0.3514,0.3514 0.35117647,0.35117647 0 0 1 -0.350883,-0.3514 0.35117647,0.35117647 0 0 1 0.350883,-0.351399 z m 0.999939,0 a 0.35117647,0.35117647 0 0 1 0.351399,0.351399 0.35117647,0.35117647 0 0 1 -0.351399,0.3514 0.35117647,0.35117647 0 0 1 -0.350883,-0.3514 0.35117647,0.35117647 0 0 1 0.350883,-0.351399 z M 1.3549563,24.592181 a 0.40784314,0.40784314 0 0 1 0.4082438,0.407727 0.40784314,0.40784314 0 0 1 -0.4082438,0.407727 0.40784314,0.40784314 0 0 1 -0.4077271,-0.407727 0.40784314,0.40784314 0 0 1 0.4077271,-0.407727 z m 1.0004557,0 A 0.40784314,0.40784314 0 0 1 2.763139,24.999908 0.40784314,0.40784314 0 0 1 2.355412,25.407635 0.40784314,0.40784314 0 0 1 1.9471682,24.999908 0.40784314,0.40784314 0 0 1 2.355412,24.592181 Z m 0.9999389,0 A 0.40784314,0.40784314 0 0 1 3.763078,24.999908 0.40784314,0.40784314 0 0 1 3.3553509,25.407635 0.40784314,0.40784314 0 0 1 2.9471071,24.999908 0.40784314,0.40784314 0 0 1 3.3553509,24.592181 Z m 0.999939,0 a 0.40784314,0.40784314 0 0 1 0.4077266,0.407727 0.40784314,0.40784314 0 0 1 -0.4077266,0.407727 0.40784314,0.40784314 0 0 1 -0.407727,-0.407727 0.40784314,0.40784314 0 0 1 0.407727,-0.407727 z m 0.9999386,0 a 0.40784314,0.40784314 0 0 1 0.407727,0.407727 0.40784314,0.40784314 0 0 1 -0.407727,0.407727 0.40784314,0.40784314 0 0 1 -0.407727,-0.407727 0.40784314,0.40784314 0 0 1 0.407727,-0.407727 z m 0.999939,0 a 0.40784314,0.40784314 0 0 1 0.407727,0.407727 0.40784314,0.40784314 0 0 1 -0.407727,0.407727 0.40784314,0.40784314 0 0 1 -0.407727,-0.407727 0.40784314,0.40784314 0 0 1 0.407727,-0.407727 z m 0.999939,0 a 0.40784314,0.40784314 0 0 1 0.407727,0.407727 0.40784314,0.40784314 0 0 1 -0.407727,0.407727 0.40784314,0.40784314 0 0 1 -0.407727,-0.407727 0.40784314,0.40784314 0 0 1 0.407727,-0.407727 z m 0.999939,0 a 0.40784314,0.40784314 0 0 1 0.408244,0.407727 0.40784314,0.40784314 0 0 1 -0.408244,0.407727 0.40784314,0.40784314 0 0 1 -0.407727,-0.407727 0.40784314,0.40784314 0 0 1 0.407727,-0.407727 z m 0.999939,0 a 0.40784314,0.40784314 0 0 1 0.408244,0.407727 0.40784314,0.40784314 0 0 1 -0.408244,0.407727 0.40784314,0.40784314 0 0 1 -0.407727,-0.407727 0.40784314,0.40784314 0 0 1 0.407727,-0.407727 z m 1.0004555,0 a 0.40784314,0.40784314 0 0 1 0.407728,0.407727 0.40784314,0.40784314 0 0 1 -0.407728,0.407727 0.40784314,0.40784314 0 0 1 -0.4082435,-0.407727 0.40784314,0.40784314 0 0 1 0.4082435,-0.407727 z m 0.99994,0 a 0.40784314,0.40784314 0 0 1 0.407727,0.407727 0.40784314,0.40784314 0 0 1 -0.407727,0.407727 0.40784314,0.40784314 0 0 1 -0.408244,-0.407727 0.40784314,0.40784314 0 0 1 0.408244,-0.407727 z m 0.999939,0 a 0.40784314,0.40784314 0 0 1 0.407727,0.407727 0.40784314,0.40784314 0 0 1 -0.407727,0.407727 0.40784314,0.40784314 0 0 1 -0.407727,-0.407727 0.40784314,0.40784314 0 0 1 0.407727,-0.407727 z m 0.999939,0 a 0.40784314,0.40784314 0 0 1 0.407727,0.407727 0.40784314,0.40784314 0 0 1 -0.407727,0.407727 0.40784314,0.40784314 0 0 1 -0.407727,-0.407727 0.40784314,0.40784314 0 0 1 0.407727,-0.407727 z m 0.999939,0 a 0.40784314,0.40784314 0 0 1 0.407727,0.407727 0.40784314,0.40784314 0 0 1 -0.407727,0.407727 0.40784314,0.40784314 0 0 1 -0.407727,-0.407727 0.40784314,0.40784314 0 0 1 0.407727,-0.407727 z M 0.8454266,25.532176 A 0.46803921,0.46803921 0 0 1 1.3136151,25.999847 0.46803921,0.46803921 0 0 1 0.8454266,26.468036 0.46803921,0.46803921 0 0 1 0.37723821,25.999847 0.46803921,0.46803921 0 0 1 0.8454266,25.532176 Z m 0.999939,0 a 0.46803921,0.46803921 0 0 1 0.4681885,0.467671 0.46803921,0.46803921 0 0 1 -0.4681885,0.468189 0.46803921,0.46803921 0 0 1 -0.4681885,-0.468189 0.46803921,0.46803921 0 0 1 0.4681885,-0.467671 z m 0.999939,0 A 0.46803921,0.46803921 0 0 1 3.313493,25.999847 0.46803921,0.46803921 0 0 1 2.8453046,26.468036 0.46803921,0.46803921 0 0 1 2.3771161,25.999847 0.46803921,0.46803921 0 0 1 2.8453046,25.532176 Z m 0.9999389,0 A 0.46803921,0.46803921 0 0 1 4.313432,25.999847 0.46803921,0.46803921 0 0 1 3.8452435,26.468036 0.46803921,0.46803921 0 0 1 3.3775718,25.999847 0.46803921,0.46803921 0 0 1 3.8452435,25.532176 Z m 0.999939,0 a 0.46803921,0.46803921 0 0 1 0.468189,0.467671 0.46803921,0.46803921 0 0 1 -0.468189,0.468189 0.46803921,0.46803921 0 0 1 -0.4676717,-0.468189 0.46803921,0.46803921 0 0 1 0.4676717,-0.467671 z m 1.000456,0 a 0.46803921,0.46803921 0 0 1 0.467671,0.467671 0.46803921,0.46803921 0 0 1 -0.467671,0.468189 0.46803921,0.46803921 0 0 1 -0.468189,-0.468189 0.46803921,0.46803921 0 0 1 0.468189,-0.467671 z m 0.999939,0 a 0.46803921,0.46803921 0 0 1 0.467671,0.467671 0.46803921,0.46803921 0 0 1 -0.467671,0.468189 0.46803921,0.46803921 0 0 1 -0.468189,-0.468189 0.46803921,0.46803921 0 0 1 0.468189,-0.467671 z m 0.999939,0 a 0.46803921,0.46803921 0 0 1 0.467671,0.467671 0.46803921,0.46803921 0 0 1 -0.467671,0.468189 0.46803921,0.46803921 0 0 1 -0.468189,-0.468189 0.46803921,0.46803921 0 0 1 0.468189,-0.467671 z m 0.999939,0 a 0.46803921,0.46803921 0 0 1 0.468188,0.467671 0.46803921,0.46803921 0 0 1 -0.468188,0.468189 0.46803921,0.46803921 0 0 1 -0.468189,-0.468189 0.46803921,0.46803921 0 0 1 0.468189,-0.467671 z m 0.999939,0 a 0.46803921,0.46803921 0 0 1 0.4681875,0.467671 0.46803921,0.46803921 0 0 1 -0.4681875,0.468189 0.46803921,0.46803921 0 0 1 -0.468189,-0.468189 0.46803921,0.46803921 0 0 1 0.468189,-0.467671 z m 0.9999395,0 a 0.46803921,0.46803921 0 0 1 0.468188,0.467671 0.46803921,0.46803921 0 0 1 -0.468188,0.468189 0.46803921,0.46803921 0 0 1 -0.46819,-0.468189 0.46803921,0.46803921 0 0 1 0.46819,-0.467671 z m 0.999939,0 a 0.46803921,0.46803921 0 0 1 0.468188,0.467671 0.46803921,0.46803921 0 0 1 -0.468188,0.468189 0.46803921,0.46803921 0 0 1 -0.467672,-0.468189 0.46803921,0.46803921 0 0 1 0.467672,-0.467671 z m 0.999939,0 a 0.46803921,0.46803921 0 0 1 0.468188,0.467671 0.46803921,0.46803921 0 0 1 -0.468188,0.468189 0.46803921,0.46803921 0 0 1 -0.467672,-0.468189 0.46803921,0.46803921 0 0 1 0.467672,-0.467671 z m 0.999939,0 a 0.46803921,0.46803921 0 0 1 0.468188,0.467671 0.46803921,0.46803921 0 0 1 -0.468188,0.468189 0.46803921,0.46803921 0 0 1 -0.467672,-0.468189 0.46803921,0.46803921 0 0 1 0.467672,-0.467671 z M 1.3549563,26.512478 a 0.48745099,0.48745099 0 0 1 0.4878255,0.487308 0.48745099,0.48745099 0 0 1 -0.4878255,0.487826 0.48745099,0.48745099 0 0 1 -0.4873088,-0.487826 0.48745099,0.48745099 0 0 1 0.4873088,-0.487308 z m 1.0004557,0 A 0.48745099,0.48745099 0 0 1 2.8427207,26.999786 0.48745099,0.48745099 0 0 1 2.355412,27.487612 0.48745099,0.48745099 0 0 1 1.8675865,26.999786 0.48745099,0.48745099 0 0 1 2.355412,26.512478 Z m 0.9999389,0 a 0.48745099,0.48745099 0 0 1 0.4873088,0.487308 0.48745099,0.48745099 0 0 1 -0.4873088,0.487826 0.48745099,0.48745099 0 0 1 -0.4878255,-0.487826 0.48745099,0.48745099 0 0 1 0.4878255,-0.487308 z m 0.999939,0 a 0.48745099,0.48745099 0 0 1 0.4873086,0.487308 0.48745099,0.48745099 0 0 1 -0.4873086,0.487826 0.48745099,0.48745099 0 0 1 -0.4873087,-0.487826 0.48745099,0.48745099 0 0 1 0.4873087,-0.487308 z m 0.9999386,0 a 0.48745099,0.48745099 0 0 1 0.487309,0.487308 0.48745099,0.48745099 0 0 1 -0.487309,0.487826 0.48745099,0.48745099 0 0 1 -0.487308,-0.487826 0.48745099,0.48745099 0 0 1 0.487308,-0.487308 z m 0.999939,0 a 0.48745099,0.48745099 0 0 1 0.487309,0.487308 0.48745099,0.48745099 0 0 1 -0.487309,0.487826 0.48745099,0.48745099 0 0 1 -0.487308,-0.487826 0.48745099,0.48745099 0 0 1 0.487308,-0.487308 z m 0.999939,0 a 0.48745099,0.48745099 0 0 1 0.487309,0.487308 0.48745099,0.48745099 0 0 1 -0.487309,0.487826 0.48745099,0.48745099 0 0 1 -0.487308,-0.487826 0.48745099,0.48745099 0 0 1 0.487308,-0.487308 z m 0.999939,0 a 0.48745099,0.48745099 0 0 1 0.487826,0.487308 0.48745099,0.48745099 0 0 1 -0.487826,0.487826 0.48745099,0.48745099 0 0 1 -0.487308,-0.487826 0.48745099,0.48745099 0 0 1 0.487308,-0.487308 z m 0.999939,0 a 0.48745099,0.48745099 0 0 1 0.487826,0.487308 0.48745099,0.48745099 0 0 1 -0.487826,0.487826 0.48745099,0.48745099 0 0 1 -0.487308,-0.487826 0.48745099,0.48745099 0 0 1 0.487308,-0.487308 z m 1.0004555,0 a 0.48745099,0.48745099 0 0 1 0.48731,0.487308 0.48745099,0.48745099 0 0 1 -0.48731,0.487826 0.48745099,0.48745099 0 0 1 -0.4878255,-0.487826 0.48745099,0.48745099 0 0 1 0.4878255,-0.487308 z m 0.99994,0 a 0.48745099,0.48745099 0 0 1 0.487309,0.487308 0.48745099,0.48745099 0 0 1 -0.487309,0.487826 0.48745099,0.48745099 0 0 1 -0.487825,-0.487826 0.48745099,0.48745099 0 0 1 0.487825,-0.487308 z m 0.999939,0 a 0.48745099,0.48745099 0 0 1 0.487309,0.487308 0.48745099,0.48745099 0 0 1 -0.487309,0.487826 0.48745099,0.48745099 0 0 1 -0.487825,-0.487826 0.48745099,0.48745099 0 0 1 0.487825,-0.487308 z m 0.999939,0 a 0.48745099,0.48745099 0 0 1 0.487309,0.487308 0.48745099,0.48745099 0 0 1 -0.487309,0.487826 0.48745099,0.48745099 0 0 1 -0.487309,-0.487826 0.48745099,0.48745099 0 0 1 0.487309,-0.487308 z m 0.999939,0 a 0.48745099,0.48745099 0 0 1 0.487309,0.487308 0.48745099,0.48745099 0 0 1 -0.487309,0.487826 0.48745099,0.48745099 0 0 1 -0.487309,-0.487826 0.48745099,0.48745099 0 0 1 0.487309,-0.487308 z M 0.34519881,28.239504 a 0.5551765,0.5551765 0 0 1 -0.094568,0.138493 0.63157254,0.63157254 0 0 1 0.1043864,-0.0098 0.63157254,0.63157254 0 0 1 0.081132,0.0057 0.5551765,0.5551765 0 0 1 -0.09095,-0.134359 z m 1.00045569,0 a 0.5551765,0.5551765 0 0 1 -0.095601,0.138493 0.63157254,0.63157254 0 0 1 0.1049032,-0.0098 0.63157254,0.63157254 0 0 1 0.081132,0.0057 0.5551765,0.5551765 0 0 1 -0.090434,-0.134359 z m 0.9994222,0 a 0.5551765,0.5551765 0 0 1 -0.094568,0.138493 0.63157254,0.63157254 0 0 1 0.1049032,-0.0098 0.63157254,0.63157254 0 0 1 0.080615,0.0057 0.5551765,0.5551765 0 0 1 -0.090951,-0.134359 z m 1.0004557,0 a 0.5551765,0.5551765 0 0 1 -0.095085,0.138493 0.63157254,0.63157254 0 0 1 0.1049031,-0.0098 0.63157254,0.63157254 0 0 1 0.080615,0.0057 0.5551765,0.5551765 0 0 1 -0.090434,-0.134359 z m 3.9997561,0 a 0.5551765,0.5551765 0 0 1 -0.09457,0.138493 0.63157254,0.63157254 0 0 1 0.104386,-0.0098 0.63157254,0.63157254 0 0 1 0.08113,0.0057 0.5551765,0.5551765 0 0 1 -0.09095,-0.134359 z m 1.000456,0 a 0.5551765,0.5551765 0 0 1 -0.09509,0.138493 0.63157254,0.63157254 0 0 1 0.104386,-0.0098 0.63157254,0.63157254 0 0 1 0.08113,0.0057 0.5551765,0.5551765 0 0 1 -0.09043,-0.134359 z m 0.999422,0 a 0.5551765,0.5551765 0 0 1 -0.09457,0.138493 0.63157254,0.63157254 0 0 1 0.104386,-0.0098 0.63157254,0.63157254 0 0 1 0.08113,0.0057 0.5551765,0.5551765 0 0 1 -0.09095,-0.134359 z m 1.0004555,0 a 0.5551765,0.5551765 0 0 1 -0.09509,0.138493 0.63157254,0.63157254 0 0 1 0.104903,-0.0098 0.63157254,0.63157254 0 0 1 0.08062,0.0057 0.5551765,0.5551765 0 0 1 -0.09043,-0.134359 z m 0.999423,0 a 0.5551765,0.5551765 0 0 1 -0.09457,0.138493 0.63157254,0.63157254 0 0 1 0.104903,-0.0098 0.63157254,0.63157254 0 0 1 0.08062,0.0057 0.5551765,0.5551765 0 0 1 -0.09095,-0.134359 z m 1.000456,0 a 0.5551765,0.5551765 0 0 1 -0.09508,0.138493 0.63157254,0.63157254 0 0 1 0.104903,-0.0098 0.63157254,0.63157254 0 0 1 0.08061,0.0057 0.5551765,0.5551765 0 0 1 -0.09043,-0.134359 z m -8.0000296,5.17e-4 a 0.5551765,0.5551765 0 0 1 -0.095085,0.137976 0.63157254,0.63157254 0 0 1 0.1049031,-0.0098 0.63157254,0.63157254 0 0 1 0.080615,0.0057 0.5551765,0.5551765 0 0 1 -0.090434,-0.133842 z m 0.9999391,0 a 0.5551765,0.5551765 0 0 1 -0.09508,0.137976 0.63157254,0.63157254 0 0 1 0.104903,-0.0098 0.63157254,0.63157254 0 0 1 0.08113,0.0057 0.5551765,0.5551765 0 0 1 -0.09095,-0.133842 z m 0.999939,0 a 0.5551765,0.5551765 0 0 1 -0.09508,0.137976 0.63157254,0.63157254 0 0 1 0.104903,-0.0098 0.63157254,0.63157254 0 0 1 0.08113,0.0057 0.5551765,0.5551765 0 0 1 -0.09095,-0.133842 z m 7.0000905,0 a 0.5551765,0.5551765 0 0 1 -0.09509,0.137976 0.63157254,0.63157254 0 0 1 0.104903,-0.0098 0.63157254,0.63157254 0 0 1 0.08113,0.0057 0.5551765,0.5551765 0 0 1 -0.09095,-0.133842 z m 0.999939,0 a 0.5551765,0.5551765 0 0 1 -0.09509,0.137976 0.63157254,0.63157254 0 0 1 0.104903,-0.0098 0.63157254,0.63157254 0 0 1 0.08113,0.0057 0.5551765,0.5551765 0 0 1 -0.09095,-0.133842 z M 0.9141563,28.550079 a 0.5551765,0.5551765 0 0 1 -0.06873,0.0052 0.5551765,0.5551765 0 0 1 -0.044442,-0.0031 0.63157254,0.63157254 0 0 1 0.054777,0.06356 0.63157254,0.63157254 0 0 1 0.058394,-0.06563 z m 0.999939,0 a 0.5551765,0.5551765 0 0 1 -0.06873,0.0052 0.5551765,0.5551765 0 0 1 -0.044442,-0.0031 0.63157254,0.63157254 0 0 1 0.054777,0.06356 0.63157254,0.63157254 0 0 1 0.058394,-0.06563 z m 0.9999389,0 a 0.5551765,0.5551765 0 0 1 -0.06873,0.0052 0.5551765,0.5551765 0 0 1 -0.044442,-0.0031 0.63157254,0.63157254 0 0 1 0.055294,0.06356 0.63157254,0.63157254 0 0 1 0.057878,-0.06563 z m 0.999939,0 a 0.5551765,0.5551765 0 0 1 -0.06873,0.0052 0.5551765,0.5551765 0 0 1 -0.044442,-0.0031 0.63157254,0.63157254 0 0 1 0.055294,0.06356 0.63157254,0.63157254 0 0 1 0.057878,-0.06563 z m 0.9999393,0 a 0.5551765,0.5551765 0 0 1 -0.06873,0.0052 0.5551765,0.5551765 0 0 1 -0.04444,-0.0031 0.63157254,0.63157254 0 0 1 0.05529,0.06356 0.63157254,0.63157254 0 0 1 0.05788,-0.06563 z m 0.999939,0 a 0.5551765,0.5551765 0 0 1 -0.06821,0.0052 0.5551765,0.5551765 0 0 1 -0.04496,-0.0031 0.63157254,0.63157254 0 0 1 0.05529,0.06305 0.63157254,0.63157254 0 0 1 0.05788,-0.06511 z m 1.000455,0 a 0.5551765,0.5551765 0 0 1 -0.06873,0.0052 0.5551765,0.5551765 0 0 1 -0.04496,-0.0031 0.63157254,0.63157254 0 0 1 0.05529,0.06356 0.63157254,0.63157254 0 0 1 0.05839,-0.06563 z m 0.999939,0 a 0.5551765,0.5551765 0 0 1 -0.06873,0.0052 0.5551765,0.5551765 0 0 1 -0.04496,-0.0031 0.63157254,0.63157254 0 0 1 0.05529,0.06356 0.63157254,0.63157254 0 0 1 0.05839,-0.06563 z m 0.999939,0 a 0.5551765,0.5551765 0 0 1 -0.06873,0.0052 0.5551765,0.5551765 0 0 1 -0.04496,-0.0031 0.63157254,0.63157254 0 0 1 0.05529,0.06356 0.63157254,0.63157254 0 0 1 0.05839,-0.06563 z m 0.999939,0 a 0.5551765,0.5551765 0 0 1 -0.06873,0.0052 0.5551765,0.5551765 0 0 1 -0.04444,-0.0031 0.63157254,0.63157254 0 0 1 0.05478,0.06356 0.63157254,0.63157254 0 0 1 0.05839,-0.06563 z m 0.9999395,0 a 0.5551765,0.5551765 0 0 1 -0.06873,0.0052 0.5551765,0.5551765 0 0 1 -0.04444,-0.0031 0.63157254,0.63157254 0 0 1 0.05478,0.06356 0.63157254,0.63157254 0 0 1 0.05839,-0.06563 z m 0.999939,0 a 0.5551765,0.5551765 0 0 1 -0.06873,0.0052 0.5551765,0.5551765 0 0 1 -0.04444,-0.0031 0.63157254,0.63157254 0 0 1 0.05529,0.06356 0.63157254,0.63157254 0 0 1 0.05788,-0.06563 z m 0.999939,0 a 0.5551765,0.5551765 0 0 1 -0.06873,0.0052 0.5551765,0.5551765 0 0 1 -0.04444,-0.0031 0.63157254,0.63157254 0 0 1 0.05529,0.06356 0.63157254,0.63157254 0 0 1 0.05788,-0.06563 z m 0.999939,0 a 0.5551765,0.5551765 0 0 1 -0.06873,0.0052 0.5551765,0.5551765 0 0 1 -0.04444,-0.0031 0.63157254,0.63157254 0 0 1 0.05529,0.06305 0.63157254,0.63157254 0 0 1 0.05788,-0.06511 z m 0.999939,0 a 0.5551765,0.5551765 0 0 1 -0.06821,0.0052 0.5551765,0.5551765 0 0 1 -0.04496,-0.0031 0.63157254,0.63157254 0 0 1 0.05529,0.06305 0.63157254,0.63157254 0 0 1 0.05788,-0.06511 z" />
    <rect
       style="fill:#ffb946;fill-opacity:1;stroke:none;stroke-width:0.1;stroke-linecap:square;stroke-linejoin:round;stroke-miterlimit:2.7;paint-order:stroke markers fill"
       id="rect1191-4"
       width="15"
       height="15.000001"
       x="15.000118"
       y="1.500586e-06"
       inkscape:export-filename="..\..\PersonalWebsite\site\src\assets\halftones-y.svg"
       inkscape:export-xdpi="54.187172"
       inkscape:export-ydpi="54.187172" />
  </g>
</svg>
