<?xml version="1.0" encoding="UTF-8" standalone="no"?>
<!-- Created with Inkscape (http://www.inkscape.org/) -->

<svg
   width="15.000118mm"
   height="15.000001mm"
   viewBox="0 0 15.000118 15.000001"
   version="1.1"
   id="svg1"
   inkscape:version="1.3.2 (091e20e, 2023-11-25, custom)"
   sodipodi:docname="trame.svg"
   xmlns:inkscape="http://www.inkscape.org/namespaces/inkscape"
   xmlns:sodipodi="http://sodipodi.sourceforge.net/DTD/sodipodi-0.dtd"
   xmlns="http://www.w3.org/2000/svg"
   xmlns:svg="http://www.w3.org/2000/svg">
  <sodipodi:namedview
     id="namedview1"
     pagecolor="#505050"
     bordercolor="#eeeeee"
     borderopacity="1"
     inkscape:showpageshadow="0"
     inkscape:pageopacity="0"
     inkscape:pagecheckerboard="0"
     inkscape:deskcolor="#505050"
     inkscape:document-units="mm"
     showguides="true"
     inkscape:zoom="1.0343421"
     inkscape:cx="286.65565"
     inkscape:cy="98.130011"
     inkscape:window-width="1920"
     inkscape:window-height="1017"
     inkscape:window-x="-8"
     inkscape:window-y="-7"
     inkscape:window-maximized="1"
     inkscape:current-layer="layer1">
    <sodipodi:guide
       position="30,282.80318"
       orientation="-1,0"
       id="guide2"
       inkscape:locked="false"
       inkscape:label=""
       inkscape:color="rgb(0,134,229)" />
    <sodipodi:guide
       position="34.916518,267"
       orientation="0,1"
       id="guide3"
       inkscape:locked="false"
       inkscape:label=""
       inkscape:color="rgb(0,134,229)" />
    <sodipodi:guide
       position="15,267"
       orientation="-1,0"
       id="guide4"
       inkscape:locked="false"
       inkscape:label=""
       inkscape:color="rgb(0,134,229)" />
    <sodipodi:guide
       position="27.114659,282"
       orientation="0,1"
       id="guide5"
       inkscape:locked="false"
       inkscape:label=""
       inkscape:color="rgb(0,134,229)" />
    <sodipodi:guide
       position="60,275.38502"
       orientation="-1,0"
       id="guide1"
       inkscape:locked="false"
       inkscape:label=""
       inkscape:color="rgb(0,134,229)" />
    <sodipodi:guide
       position="45,300.70798"
       orientation="-1,0"
       id="guide6"
       inkscape:locked="false"
       inkscape:label=""
       inkscape:color="rgb(0,134,229)" />
  </sodipodi:namedview>
  <defs
     id="defs1" />
  <g
     inkscape:label="Calque 1"
     inkscape:groupmode="layer"
     id="layer1">
    <rect
       style="fill:#fe1664;fill-opacity:1;stroke:none;stroke-width:0.1;stroke-linecap:square;stroke-linejoin:round;stroke-miterlimit:2.7;paint-order:stroke markers fill"
       id="rect1191"
       width="15"
       height="15.000001"
       x="0"
       y="0" />
    <path
       id="rect1190"
       style="fill:#ff3d7e;fill-opacity:1;stroke:none;stroke-width:0.1;stroke-linecap:square;stroke-linejoin:round;stroke-miterlimit:2.7;paint-order:stroke markers fill"
       d="M 0,0 V 6.8243896 A 0.23542412,0.23542412 0 0 1 0.08061523,7.0000895 0.23542412,0.23542412 0 0 1 0,7.1716553 V 8.685258 A 0.35117647,0.35117647 0 0 1 0.19637044,8.9999674 0.35117647,0.35117647 0 0 1 0,9.3146769 V 9.8040527 A 0.40784314,0.40784314 0 0 1 0.35501709,9.5921794 0.40784314,0.40784314 0 0 1 0.7632609,9.9999064 0.40784314,0.40784314 0 0 1 0.35501709,10.407633 0.40784314,0.40784314 0 0 1 0,10.19576 v 0.377755 A 0.46803921,0.46803921 0 0 1 0.31367594,10.999845 0.46803921,0.46803921 0 0 1 0,11.440129 v 0.24908 A 0.48745099,0.48745099 0 0 1 0.35501709,11.512476 0.48745099,0.48745099 0 0 1 0.84284261,11.999784 0.48745099,0.48745099 0 0 1 0.35501709,12.48761 0.48745099,0.48745099 0 0 1 0,12.310876 v 0.162781 a 0.5551765,0.5551765 0 0 1 0.34571533,0.285771 0.5551765,0.5551765 0 0 1 0.4997111,-0.31471 0.5551765,0.5551765 0 0 1 0.50022787,0.31471 0.5551765,0.5551765 0 0 1 0.4997111,-0.31471 0.5551765,0.5551765 0 0 1 0.5002279,0.31471 0.5551765,0.5551765 0 0 1 0.4997111,-0.31471 0.5551765,0.5551765 0 0 1 0.5002278,0.31471 0.5551765,0.5551765 0 0 1 0.4997111,-0.31471 0.5551765,0.5551765 0 0 1 0.5002279,0.31471 0.5551765,0.5551765 0 0 1 0.4997111,-0.31471 0.5551765,0.5551765 0 0 1 0.5007446,0.31471 0.5551765,0.5551765 0 0 1 0.4997111,-0.31471 0.5551765,0.5551765 0 0 1 0.5002279,0.31471 0.5551765,0.5551765 0 0 1 0.4997111,-0.31471 0.5551765,0.5551765 0 0 1 0.5002279,0.31471 0.5551765,0.5551765 0 0 1 0.4997111,-0.31471 0.5551765,0.5551765 0 0 1 0.5002278,0.31471 0.5551765,0.5551765 0 0 1 0.4997111,-0.31471 0.5551765,0.5551765 0 0 1 0.5002279,0.31471 0.5551765,0.5551765 0 0 1 0.4997111,-0.31471 0.5551765,0.5551765 0 0 1 0.5002281,0.31471 0.5551765,0.5551765 0 0 1 0.499711,-0.31471 0.5551765,0.5551765 0 0 1 0.500228,0.31471 0.5551765,0.5551765 0 0 1 0.499711,-0.31471 0.5551765,0.5551765 0 0 1 0.500228,0.31471 0.5551765,0.5551765 0 0 1 0.499711,-0.31471 0.5551765,0.5551765 0 0 1 0.500744,0.31471 0.5551765,0.5551765 0 0 1 0.499195,-0.31471 0.5551765,0.5551765 0 0 1 0.500744,0.31471 0.5551765,0.5551765 0 0 1 0.499711,-0.31471 0.5551765,0.5551765 0 0 1 0.154513,0.02894 v -0.162781 a 0.48745099,0.48745099 0 0 1 -0.132292,-0.311092 0.48745099,0.48745099 0 0 1 0.132292,-0.310575 v -0.249597 a 0.46803921,0.46803921 0 0 1 -0.154513,0.02842 0.46803921,0.46803921 0 0 1 -0.468188,-0.468189 0.46803921,0.46803921 0 0 1 0.468188,-0.467671 0.46803921,0.46803921 0 0 1 0.154513,0.04134 V 10.19576 a 0.40784314,0.40784314 0 0 1 -0.05271,-0.1958536 0.40784314,0.40784314 0 0 1 0.05271,-0.1958537 V 9.3146769 a 0.35117647,0.35117647 0 0 1 -0.154513,0.03669 0.35117647,0.35117647 0 0 1 -0.351399,-0.3513998 0.35117647,0.35117647 0 0 1 0.351399,-0.3513997 0.35117647,0.35117647 0 0 1 0.154513,0.03669 V 7.1716553 A 0.23542412,0.23542412 0 0 1 14.845605,7.2352173 0.23542412,0.23542412 0 0 1 14.609961,7.0000895 0.23542412,0.23542412 0 0 1 14.845605,6.764445 0.23542412,0.23542412 0 0 1 15.000118,6.82439 V 0 Z M 0.35501709,5.8187663 A 0.18131517,0.18131517 0 0 1 0.53640137,6.0001506 0.18131517,0.18131517 0 0 1 0.35501709,6.1815348 0.18131517,0.18131517 0 0 1 0.17363281,6.0001506 0.18131517,0.18131517 0 0 1 0.35501709,5.8187663 Z m 0.99993901,0 A 0.18131517,0.18131517 0 0 1 1.5363403,6.0001506 0.18131517,0.18131517 0 0 1 1.3549561,6.1815348 0.18131517,0.18131517 0 0 1 1.1740885,6.0001506 0.18131517,0.18131517 0 0 1 1.3549561,5.8187663 Z m 1.0004557,0 A 0.18131517,0.18131517 0 0 1 2.5362793,6.0001506 0.18131517,0.18131517 0 0 1 2.3554118,6.1815348 0.18131517,0.18131517 0 0 1 2.1740275,6.0001506 0.18131517,0.18131517 0 0 1 2.3554118,5.8187663 Z m 0.9999389,0 A 0.18131517,0.18131517 0 0 1 3.536735,6.0001506 0.18131517,0.18131517 0 0 1 3.3553507,6.1815348 0.18131517,0.18131517 0 0 1 3.1739665,6.0001506 0.18131517,0.18131517 0 0 1 3.3553507,5.8187663 Z m 0.999939,0 A 0.18131517,0.18131517 0 0 1 4.536674,6.0001506 0.18131517,0.18131517 0 0 1 4.3552897,6.1815348 0.18131517,0.18131517 0 0 1 4.1739054,6.0001506 0.18131517,0.18131517 0 0 1 4.3552897,5.8187663 Z m 0.999939,0 A 0.18131517,0.18131517 0 0 1 5.536613,6.0001506 0.18131517,0.18131517 0 0 1 5.3552287,6.1815348 0.18131517,0.18131517 0 0 1 5.1738444,6.0001506 0.18131517,0.18131517 0 0 1 5.3552287,5.8187663 Z m 0.9999389,0 A 0.18131517,0.18131517 0 0 1 6.5365519,6.0001506 0.18131517,0.18131517 0 0 1 6.3551676,6.1815348 0.18131517,0.18131517 0 0 1 6.1737834,6.0001506 0.18131517,0.18131517 0 0 1 6.3551676,5.8187663 Z m 0.999939,0 A 0.18131517,0.18131517 0 0 1 7.5364909,6.0001506 0.18131517,0.18131517 0 0 1 7.3551066,6.1815348 0.18131517,0.18131517 0 0 1 7.1737223,6.0001506 0.18131517,0.18131517 0 0 1 7.3551066,5.8187663 Z m 0.999939,0 A 0.18131517,0.18131517 0 0 1 8.5364299,6.0001506 0.18131517,0.18131517 0 0 1 8.3550456,6.1815348 0.18131517,0.18131517 0 0 1 8.1736613,6.0001506 0.18131517,0.18131517 0 0 1 8.3550456,5.8187663 Z m 0.9999389,0 A 0.18131517,0.18131517 0 0 1 9.5363688,6.0001506 0.18131517,0.18131517 0 0 1 9.3549845,6.1815348 0.18131517,0.18131517 0 0 1 9.174117,6.0001506 0.18131517,0.18131517 0 0 1 9.3549845,5.8187663 Z m 1.0004555,0 A 0.18131517,0.18131517 0 0 1 10.536308,6.0001506 0.18131517,0.18131517 0 0 1 10.35544,6.1815348 0.18131517,0.18131517 0 0 1 10.174056,6.0001506 0.18131517,0.18131517 0 0 1 10.35544,5.8187663 Z m 0.999939,0 a 0.18131517,0.18131517 0 0 1 0.181385,0.1813843 0.18131517,0.18131517 0 0 1 -0.181385,0.1813842 0.18131517,0.18131517 0 0 1 -0.181384,-0.1813842 0.18131517,0.18131517 0 0 1 0.181384,-0.1813843 z m 0.999939,0 a 0.18131517,0.18131517 0 0 1 0.181384,0.1813843 0.18131517,0.18131517 0 0 1 -0.181384,0.1813842 0.18131517,0.18131517 0 0 1 -0.181384,-0.1813842 0.18131517,0.18131517 0 0 1 0.181384,-0.1813843 z m 0.999939,0 a 0.18131517,0.18131517 0 0 1 0.181384,0.1813843 0.18131517,0.18131517 0 0 1 -0.181384,0.1813842 0.18131517,0.18131517 0 0 1 -0.181384,-0.1813842 0.18131517,0.18131517 0 0 1 0.181384,-0.1813843 z m 0.999939,0 A 0.18131517,0.18131517 0 0 1 14.53658,6.0001506 0.18131517,0.18131517 0 0 1 14.355196,6.1815348 0.18131517,0.18131517 0 0 1 14.173812,6.0001506 0.18131517,0.18131517 0 0 1 14.355196,5.8187663 Z M 0.84542643,6.764445 A 0.23542412,0.23542412 0 0 1 1.081071,7.0000895 0.23542412,0.23542412 0 0 1 0.84542643,7.2352173 0.23542412,0.23542412 0 0 1 0.6097819,7.0000895 0.23542412,0.23542412 0 0 1 0.84542643,6.764445 Z m 0.99993897,0 A 0.23542412,0.23542412 0 0 1 2.0810099,7.0000895 0.23542412,0.23542412 0 0 1 1.8453654,7.2352173 0.23542412,0.23542412 0 0 1 1.6097209,7.0000895 0.23542412,0.23542412 0 0 1 1.8453654,6.764445 Z m 0.999939,0 A 0.23542412,0.23542412 0 0 1 3.0809489,7.0000895 0.23542412,0.23542412 0 0 1 2.8453044,7.2352173 0.23542412,0.23542412 0 0 1 2.6101766,7.0000895 0.23542412,0.23542412 0 0 1 2.8453044,6.764445 Z m 0.9999389,0 A 0.23542412,0.23542412 0 0 1 4.0808879,7.0000895 0.23542412,0.23542412 0 0 1 3.8452433,7.2352173 0.23542412,0.23542412 0 0 1 3.6101156,7.0000895 0.23542412,0.23542412 0 0 1 3.8452433,6.764445 Z m 0.999939,0 A 0.23542412,0.23542412 0 0 1 5.0808268,7.0000895 0.23542412,0.23542412 0 0 1 4.8451823,7.2352173 0.23542412,0.23542412 0 0 1 4.6100545,7.0000895 0.23542412,0.23542412 0 0 1 4.8451823,6.764445 Z m 1.0004557,0 A 0.23542412,0.23542412 0 0 1 6.0807658,7.0000895 0.23542412,0.23542412 0 0 1 5.845638,7.2352173 0.23542412,0.23542412 0 0 1 5.6099935,7.0000895 0.23542412,0.23542412 0 0 1 5.845638,6.764445 Z m 0.999939,0 A 0.23542412,0.23542412 0 0 1 7.0807048,7.0000895 0.23542412,0.23542412 0 0 1 6.845577,7.2352173 0.23542412,0.23542412 0 0 1 6.6099325,7.0000895 0.23542412,0.23542412 0 0 1 6.845577,6.764445 Z m 0.999939,0 A 0.23542412,0.23542412 0 0 1 8.0806437,7.0000895 0.23542412,0.23542412 0 0 1 7.845516,7.2352173 0.23542412,0.23542412 0 0 1 7.6098714,7.0000895 0.23542412,0.23542412 0 0 1 7.845516,6.764445 Z m 0.9999389,0 A 0.23542412,0.23542412 0 0 1 9.0805827,7.0000895 0.23542412,0.23542412 0 0 1 8.8454549,7.2352173 0.23542412,0.23542412 0 0 1 8.6098104,7.0000895 0.23542412,0.23542412 0 0 1 8.8454549,6.764445 Z m 0.999939,0 A 0.23542412,0.23542412 0 0 1 10.081038,7.0000895 0.23542412,0.23542412 0 0 1 9.8453939,7.2352173 0.23542412,0.23542412 0 0 1 9.6097493,7.0000895 0.23542412,0.23542412 0 0 1 9.8453939,6.764445 Z m 0.9999391,0 A 0.23542412,0.23542412 0 0 1 11.080977,7.0000895 0.23542412,0.23542412 0 0 1 10.845333,7.2352173 0.23542412,0.23542412 0 0 1 10.610205,7.0000895 0.23542412,0.23542412 0 0 1 10.845333,6.764445 Z m 0.999939,0 A 0.23542412,0.23542412 0 0 1 12.080916,7.0000895 0.23542412,0.23542412 0 0 1 11.845272,7.2352173 0.23542412,0.23542412 0 0 1 11.610144,7.0000895 0.23542412,0.23542412 0 0 1 11.845272,6.764445 Z m 0.999939,0 A 0.23542412,0.23542412 0 0 1 13.080855,7.0000895 0.23542412,0.23542412 0 0 1 12.845211,7.2352173 0.23542412,0.23542412 0 0 1 12.610083,7.0000895 0.23542412,0.23542412 0 0 1 12.845211,6.764445 Z m 0.999939,0 A 0.23542412,0.23542412 0 0 1 14.080794,7.0000895 0.23542412,0.23542412 0 0 1 13.84515,7.2352173 0.23542412,0.23542412 0 0 1 13.610022,7.0000895 0.23542412,0.23542412 0 0 1 13.84515,6.764445 Z M 0.35501709,7.6966878 A 0.30335295,0.30335295 0 0 1 0.65835775,8.0000285 0.30335295,0.30335295 0 0 1 0.35501709,8.3033691 0.30335295,0.30335295 0 0 1 0.05167643,8.0000285 0.30335295,0.30335295 0 0 1 0.35501709,7.6966878 Z m 0.99993901,0 A 0.30335295,0.30335295 0 0 1 1.6582967,8.0000285 0.30335295,0.30335295 0 0 1 1.3549561,8.3033691 0.30335295,0.30335295 0 0 1 1.0516154,8.0000285 0.30335295,0.30335295 0 0 1 1.3549561,7.6966878 Z m 1.0004557,0 A 0.30335295,0.30335295 0 0 1 2.6587524,8.0000285 0.30335295,0.30335295 0 0 1 2.3554118,8.3033691 0.30335295,0.30335295 0 0 1 2.0520711,8.0000285 0.30335295,0.30335295 0 0 1 2.3554118,7.6966878 Z m 0.9999389,0 A 0.30335295,0.30335295 0 0 1 3.6586914,8.0000285 0.30335295,0.30335295 0 0 1 3.3553507,8.3033691 0.30335295,0.30335295 0 0 1 3.0520101,8.0000285 0.30335295,0.30335295 0 0 1 3.3553507,7.6966878 Z m 0.999939,0 A 0.30335295,0.30335295 0 0 1 4.6586304,8.0000285 0.30335295,0.30335295 0 0 1 4.3552897,8.3033691 0.30335295,0.30335295 0 0 1 4.0519491,8.0000285 0.30335295,0.30335295 0 0 1 4.3552897,7.6966878 Z m 0.999939,0 A 0.30335295,0.30335295 0 0 1 5.6585693,8.0000285 0.30335295,0.30335295 0 0 1 5.3552287,8.3033691 0.30335295,0.30335295 0 0 1 5.051888,8.0000285 0.30335295,0.30335295 0 0 1 5.3552287,7.6966878 Z m 0.9999389,0 A 0.30335295,0.30335295 0 0 1 6.6585083,8.0000285 0.30335295,0.30335295 0 0 1 6.3551676,8.3033691 0.30335295,0.30335295 0 0 1 6.051827,8.0000285 0.30335295,0.30335295 0 0 1 6.3551676,7.6966878 Z m 0.999939,0 A 0.30335295,0.30335295 0 0 1 7.6584473,8.0000285 0.30335295,0.30335295 0 0 1 7.3551066,8.3033691 0.30335295,0.30335295 0 0 1 7.051766,8.0000285 0.30335295,0.30335295 0 0 1 7.3551066,7.6966878 Z m 0.999939,0 A 0.30335295,0.30335295 0 0 1 8.6583862,8.0000285 0.30335295,0.30335295 0 0 1 8.3550456,8.3033691 0.30335295,0.30335295 0 0 1 8.0517049,8.0000285 0.30335295,0.30335295 0 0 1 8.3550456,7.6966878 Z m 0.9999389,0 A 0.30335295,0.30335295 0 0 1 9.6583252,8.0000285 0.30335295,0.30335295 0 0 1 9.3549845,8.3033691 0.30335295,0.30335295 0 0 1 9.0516439,8.0000285 0.30335295,0.30335295 0 0 1 9.3549845,7.6966878 Z m 1.0004555,0 A 0.30335295,0.30335295 0 0 1 10.658781,8.0000285 0.30335295,0.30335295 0 0 1 10.35544,8.3033691 0.30335295,0.30335295 0 0 1 10.0521,8.0000285 0.30335295,0.30335295 0 0 1 10.35544,7.6966878 Z m 0.999939,0 a 0.30335295,0.30335295 0 0 1 0.303341,0.3033407 0.30335295,0.30335295 0 0 1 -0.303341,0.3033406 0.30335295,0.30335295 0 0 1 -0.30334,-0.3033406 0.30335295,0.30335295 0 0 1 0.30334,-0.3033407 z m 0.999939,0 a 0.30335295,0.30335295 0 0 1 0.303341,0.3033407 0.30335295,0.30335295 0 0 1 -0.303341,0.3033406 0.30335295,0.30335295 0 0 1 -0.30334,-0.3033406 0.30335295,0.30335295 0 0 1 0.30334,-0.3033407 z m 0.999939,0 a 0.30335295,0.30335295 0 0 1 0.303341,0.3033407 0.30335295,0.30335295 0 0 1 -0.303341,0.3033406 0.30335295,0.30335295 0 0 1 -0.30334,-0.3033406 0.30335295,0.30335295 0 0 1 0.30334,-0.3033407 z m 0.999939,0 A 0.30335295,0.30335295 0 0 1 14.658537,8.0000285 0.30335295,0.30335295 0 0 1 14.355196,8.3033691 0.30335295,0.30335295 0 0 1 14.051855,8.0000285 0.30335295,0.30335295 0 0 1 14.355196,7.6966878 Z M 0.84542643,8.6485677 A 0.35117647,0.35117647 0 0 1 1.1968262,8.9999674 0.35117647,0.35117647 0 0 1 0.84542643,9.3513672 0.35117647,0.35117647 0 0 1 0.49402669,8.9999674 0.35117647,0.35117647 0 0 1 0.84542643,8.6485677 Z m 0.99993897,0 A 0.35117647,0.35117647 0 0 1 2.1967651,8.9999674 0.35117647,0.35117647 0 0 1 1.8453654,9.3513672 0.35117647,0.35117647 0 0 1 1.4939657,8.9999674 0.35117647,0.35117647 0 0 1 1.8453654,8.6485677 Z m 0.999939,0 A 0.35117647,0.35117647 0 0 1 3.1967041,8.9999674 0.35117647,0.35117647 0 0 1 2.8453044,9.3513672 0.35117647,0.35117647 0 0 1 2.4944214,8.9999674 0.35117647,0.35117647 0 0 1 2.8453044,8.6485677 Z m 0.9999389,0 A 0.35117647,0.35117647 0 0 1 4.1966431,8.9999674 0.35117647,0.35117647 0 0 1 3.8452433,9.3513672 0.35117647,0.35117647 0 0 1 3.4943604,8.9999674 0.35117647,0.35117647 0 0 1 3.8452433,8.6485677 Z m 0.999939,0 A 0.35117647,0.35117647 0 0 1 5.196582,8.9999674 0.35117647,0.35117647 0 0 1 4.8451823,9.3513672 0.35117647,0.35117647 0 0 1 4.4942993,8.9999674 0.35117647,0.35117647 0 0 1 4.8451823,8.6485677 Z m 1.0004557,0 A 0.35117647,0.35117647 0 0 1 6.196521,8.9999674 0.35117647,0.35117647 0 0 1 5.845638,9.3513672 0.35117647,0.35117647 0 0 1 5.4942383,8.9999674 0.35117647,0.35117647 0 0 1 5.845638,8.6485677 Z m 0.999939,0 A 0.35117647,0.35117647 0 0 1 7.19646,8.9999674 0.35117647,0.35117647 0 0 1 6.845577,9.3513672 0.35117647,0.35117647 0 0 1 6.4941772,8.9999674 0.35117647,0.35117647 0 0 1 6.845577,8.6485677 Z m 0.999939,0 A 0.35117647,0.35117647 0 0 1 8.1963989,8.9999674 0.35117647,0.35117647 0 0 1 7.845516,9.3513672 0.35117647,0.35117647 0 0 1 7.4941162,8.9999674 0.35117647,0.35117647 0 0 1 7.845516,8.6485677 Z m 0.9999389,0 A 0.35117647,0.35117647 0 0 1 9.1963379,8.9999674 0.35117647,0.35117647 0 0 1 8.8454549,9.3513672 0.35117647,0.35117647 0 0 1 8.4940552,8.9999674 0.35117647,0.35117647 0 0 1 8.8454549,8.6485677 Z m 0.999939,0 A 0.35117647,0.35117647 0 0 1 10.196794,8.9999674 0.35117647,0.35117647 0 0 1 9.8453939,9.3513672 0.35117647,0.35117647 0 0 1 9.4939941,8.9999674 0.35117647,0.35117647 0 0 1 9.8453939,8.6485677 Z m 0.9999391,0 a 0.35117647,0.35117647 0 0 1 0.3514,0.3513997 0.35117647,0.35117647 0 0 1 -0.3514,0.3513998 0.35117647,0.35117647 0 0 1 -0.350883,-0.3513998 0.35117647,0.35117647 0 0 1 0.350883,-0.3513997 z m 0.999939,0 a 0.35117647,0.35117647 0 0 1 0.3514,0.3513997 0.35117647,0.35117647 0 0 1 -0.3514,0.3513998 0.35117647,0.35117647 0 0 1 -0.350883,-0.3513998 0.35117647,0.35117647 0 0 1 0.350883,-0.3513997 z m 0.999939,0 a 0.35117647,0.35117647 0 0 1 0.3514,0.3513997 0.35117647,0.35117647 0 0 1 -0.3514,0.3513998 0.35117647,0.35117647 0 0 1 -0.350883,-0.3513998 0.35117647,0.35117647 0 0 1 0.350883,-0.3513997 z m 0.999939,0 A 0.35117647,0.35117647 0 0 1 14.196549,8.9999674 0.35117647,0.35117647 0 0 1 13.84515,9.3513672 0.35117647,0.35117647 0 0 1 13.494267,8.9999674 0.35117647,0.35117647 0 0 1 13.84515,8.6485677 Z M 1.3549561,9.5921794 A 0.40784314,0.40784314 0 0 1 1.7631999,9.9999064 0.40784314,0.40784314 0 0 1 1.3549561,10.407633 0.40784314,0.40784314 0 0 1 0.947229,9.9999064 0.40784314,0.40784314 0 0 1 1.3549561,9.5921794 Z m 1.0004557,0 A 0.40784314,0.40784314 0 0 1 2.7631388,9.9999064 0.40784314,0.40784314 0 0 1 2.3554118,10.407633 0.40784314,0.40784314 0 0 1 1.947168,9.9999064 0.40784314,0.40784314 0 0 1 2.3554118,9.5921794 Z m 0.9999389,0 A 0.40784314,0.40784314 0 0 1 3.7630778,9.9999064 0.40784314,0.40784314 0 0 1 3.3553507,10.407633 0.40784314,0.40784314 0 0 1 2.9471069,9.9999064 0.40784314,0.40784314 0 0 1 3.3553507,9.5921794 Z m 0.999939,0 a 0.40784314,0.40784314 0 0 1 0.4077271,0.407727 0.40784314,0.40784314 0 0 1 -0.4077271,0.4077266 0.40784314,0.40784314 0 0 1 -0.407727,-0.4077266 0.40784314,0.40784314 0 0 1 0.407727,-0.407727 z m 0.999939,0 a 0.40784314,0.40784314 0 0 1 0.407727,0.407727 0.40784314,0.40784314 0 0 1 -0.407727,0.4077266 0.40784314,0.40784314 0 0 1 -0.4077271,-0.4077266 0.40784314,0.40784314 0 0 1 0.4077271,-0.407727 z m 0.9999389,0 a 0.40784314,0.40784314 0 0 1 0.4077271,0.407727 0.40784314,0.40784314 0 0 1 -0.4077271,0.4077266 0.40784314,0.40784314 0 0 1 -0.407727,-0.4077266 0.40784314,0.40784314 0 0 1 0.407727,-0.407727 z m 0.999939,0 a 0.40784314,0.40784314 0 0 1 0.4077271,0.407727 0.40784314,0.40784314 0 0 1 -0.4077271,0.4077266 0.40784314,0.40784314 0 0 1 -0.407727,-0.4077266 0.40784314,0.40784314 0 0 1 0.407727,-0.407727 z m 0.999939,0 A 0.40784314,0.40784314 0 0 1 8.7632894,9.9999064 0.40784314,0.40784314 0 0 1 8.3550456,10.407633 0.40784314,0.40784314 0 0 1 7.9473185,9.9999064 0.40784314,0.40784314 0 0 1 8.3550456,9.5921794 Z m 0.9999389,0 a 0.40784314,0.40784314 0 0 1 0.4082439,0.407727 0.40784314,0.40784314 0 0 1 -0.4082439,0.4077266 0.40784314,0.40784314 0 0 1 -0.407727,-0.4077266 0.40784314,0.40784314 0 0 1 0.407727,-0.407727 z m 1.0004555,0 A 0.40784314,0.40784314 0 0 1 10.763167,9.9999064 0.40784314,0.40784314 0 0 1 10.35544,10.407633 0.40784314,0.40784314 0 0 1 9.9471965,9.9999064 0.40784314,0.40784314 0 0 1 10.35544,9.5921794 Z m 0.999939,0 a 0.40784314,0.40784314 0 0 1 0.407727,0.407727 0.40784314,0.40784314 0 0 1 -0.407727,0.4077266 0.40784314,0.40784314 0 0 1 -0.408244,-0.4077266 0.40784314,0.40784314 0 0 1 0.408244,-0.407727 z m 0.999939,0 a 0.40784314,0.40784314 0 0 1 0.407727,0.407727 0.40784314,0.40784314 0 0 1 -0.407727,0.4077266 0.40784314,0.40784314 0 0 1 -0.407727,-0.4077266 0.40784314,0.40784314 0 0 1 0.407727,-0.407727 z m 0.999939,0 a 0.40784314,0.40784314 0 0 1 0.407727,0.407727 0.40784314,0.40784314 0 0 1 -0.407727,0.4077266 0.40784314,0.40784314 0 0 1 -0.407727,-0.4077266 0.40784314,0.40784314 0 0 1 0.407727,-0.407727 z m 0.999939,0 a 0.40784314,0.40784314 0 0 1 0.407727,0.407727 0.40784314,0.40784314 0 0 1 -0.407727,0.4077266 0.40784314,0.40784314 0 0 1 -0.407727,-0.4077266 0.40784314,0.40784314 0 0 1 0.407727,-0.407727 z M 0.84542643,10.532174 A 0.46803921,0.46803921 0 0 1 1.3136149,10.999845 0.46803921,0.46803921 0 0 1 0.84542643,11.468034 0.46803921,0.46803921 0 0 1 0.37723796,10.999845 0.46803921,0.46803921 0 0 1 0.84542643,10.532174 Z m 0.99993897,0 a 0.46803921,0.46803921 0 0 1 0.4681885,0.467671 0.46803921,0.46803921 0 0 1 -0.4681885,0.468189 0.46803921,0.46803921 0 0 1 -0.4681885,-0.468189 0.46803921,0.46803921 0 0 1 0.4681885,-0.467671 z m 0.999939,0 a 0.46803921,0.46803921 0 0 1 0.4681884,0.467671 0.46803921,0.46803921 0 0 1 -0.4681884,0.468189 0.46803921,0.46803921 0 0 1 -0.4681885,-0.468189 0.46803921,0.46803921 0 0 1 0.4681885,-0.467671 z m 0.9999389,0 a 0.46803921,0.46803921 0 0 1 0.4681885,0.467671 0.46803921,0.46803921 0 0 1 -0.4681885,0.468189 0.46803921,0.46803921 0 0 1 -0.4676717,-0.468189 0.46803921,0.46803921 0 0 1 0.4676717,-0.467671 z m 0.999939,0 a 0.46803921,0.46803921 0 0 1 0.4681885,0.467671 0.46803921,0.46803921 0 0 1 -0.4681885,0.468189 0.46803921,0.46803921 0 0 1 -0.4676717,-0.468189 0.46803921,0.46803921 0 0 1 0.4676717,-0.467671 z m 1.0004557,0 A 0.46803921,0.46803921 0 0 1 6.3133097,10.999845 0.46803921,0.46803921 0 0 1 5.845638,11.468034 0.46803921,0.46803921 0 0 1 5.3774495,10.999845 0.46803921,0.46803921 0 0 1 5.845638,10.532174 Z m 0.999939,0 A 0.46803921,0.46803921 0 0 1 7.3132487,10.999845 0.46803921,0.46803921 0 0 1 6.845577,11.468034 0.46803921,0.46803921 0 0 1 6.3773885,10.999845 0.46803921,0.46803921 0 0 1 6.845577,10.532174 Z m 0.999939,0 A 0.46803921,0.46803921 0 0 1 8.3131877,10.999845 0.46803921,0.46803921 0 0 1 7.845516,11.468034 0.46803921,0.46803921 0 0 1 7.3773275,10.999845 0.46803921,0.46803921 0 0 1 7.845516,10.532174 Z m 0.9999389,0 a 0.46803921,0.46803921 0 0 1 0.4681885,0.467671 0.46803921,0.46803921 0 0 1 -0.4681885,0.468189 0.46803921,0.46803921 0 0 1 -0.4681885,-0.468189 0.46803921,0.46803921 0 0 1 0.4681885,-0.467671 z m 0.999939,0 a 0.46803921,0.46803921 0 0 1 0.4681881,0.467671 0.46803921,0.46803921 0 0 1 -0.4681881,0.468189 0.46803921,0.46803921 0 0 1 -0.4681885,-0.468189 0.46803921,0.46803921 0 0 1 0.4681885,-0.467671 z m 0.9999391,0 a 0.46803921,0.46803921 0 0 1 0.468188,0.467671 0.46803921,0.46803921 0 0 1 -0.468188,0.468189 0.46803921,0.46803921 0 0 1 -0.468189,-0.468189 0.46803921,0.46803921 0 0 1 0.468189,-0.467671 z m 0.999939,0 a 0.46803921,0.46803921 0 0 1 0.468188,0.467671 0.46803921,0.46803921 0 0 1 -0.468188,0.468189 0.46803921,0.46803921 0 0 1 -0.467672,-0.468189 0.46803921,0.46803921 0 0 1 0.467672,-0.467671 z m 0.999939,0 a 0.46803921,0.46803921 0 0 1 0.468188,0.467671 0.46803921,0.46803921 0 0 1 -0.468188,0.468189 0.46803921,0.46803921 0 0 1 -0.467672,-0.468189 0.46803921,0.46803921 0 0 1 0.467672,-0.467671 z m 0.999939,0 a 0.46803921,0.46803921 0 0 1 0.468188,0.467671 0.46803921,0.46803921 0 0 1 -0.468188,0.468189 0.46803921,0.46803921 0 0 1 -0.467672,-0.468189 0.46803921,0.46803921 0 0 1 0.467672,-0.467671 z M 1.3549561,11.512476 A 0.48745099,0.48745099 0 0 1 1.8427816,11.999784 0.48745099,0.48745099 0 0 1 1.3549561,12.48761 0.48745099,0.48745099 0 0 1 0.8676473,11.999784 0.48745099,0.48745099 0 0 1 1.3549561,11.512476 Z m 1.0004557,0 A 0.48745099,0.48745099 0 0 1 2.8427205,11.999784 0.48745099,0.48745099 0 0 1 2.3554118,12.48761 0.48745099,0.48745099 0 0 1 1.8675863,11.999784 0.48745099,0.48745099 0 0 1 2.3554118,11.512476 Z m 0.9999389,0 A 0.48745099,0.48745099 0 0 1 3.8426595,11.999784 0.48745099,0.48745099 0 0 1 3.3553507,12.48761 0.48745099,0.48745099 0 0 1 2.8675252,11.999784 0.48745099,0.48745099 0 0 1 3.3553507,11.512476 Z m 0.999939,0 A 0.48745099,0.48745099 0 0 1 4.8425985,11.999784 0.48745099,0.48745099 0 0 1 4.3552897,12.48761 0.48745099,0.48745099 0 0 1 3.867981,11.999784 0.48745099,0.48745099 0 0 1 4.3552897,11.512476 Z m 0.999939,0 A 0.48745099,0.48745099 0 0 1 5.8425374,11.999784 0.48745099,0.48745099 0 0 1 5.3552287,12.48761 0.48745099,0.48745099 0 0 1 4.8679199,11.999784 0.48745099,0.48745099 0 0 1 5.3552287,11.512476 Z m 0.9999389,0 A 0.48745099,0.48745099 0 0 1 6.8424764,11.999784 0.48745099,0.48745099 0 0 1 6.3551676,12.48761 0.48745099,0.48745099 0 0 1 5.8678589,11.999784 0.48745099,0.48745099 0 0 1 6.3551676,11.512476 Z m 0.999939,0 A 0.48745099,0.48745099 0 0 1 7.8424154,11.999784 0.48745099,0.48745099 0 0 1 7.3551066,12.48761 0.48745099,0.48745099 0 0 1 6.8677979,11.999784 0.48745099,0.48745099 0 0 1 7.3551066,11.512476 Z m 0.999939,0 A 0.48745099,0.48745099 0 0 1 8.8428711,11.999784 0.48745099,0.48745099 0 0 1 8.3550456,12.48761 0.48745099,0.48745099 0 0 1 7.8677368,11.999784 0.48745099,0.48745099 0 0 1 8.3550456,11.512476 Z m 0.9999389,0 A 0.48745099,0.48745099 0 0 1 9.8428101,11.999784 0.48745099,0.48745099 0 0 1 9.3549845,12.48761 0.48745099,0.48745099 0 0 1 8.8676758,11.999784 0.48745099,0.48745099 0 0 1 9.3549845,11.512476 Z m 1.0004555,0 A 0.48745099,0.48745099 0 0 1 10.842749,11.999784 0.48745099,0.48745099 0 0 1 10.35544,12.48761 0.48745099,0.48745099 0 0 1 9.8676147,11.999784 0.48745099,0.48745099 0 0 1 10.35544,11.512476 Z m 0.999939,0 a 0.48745099,0.48745099 0 0 1 0.487309,0.487308 0.48745099,0.48745099 0 0 1 -0.487309,0.487826 0.48745099,0.48745099 0 0 1 -0.487825,-0.487826 0.48745099,0.48745099 0 0 1 0.487825,-0.487308 z m 0.999939,0 a 0.48745099,0.48745099 0 0 1 0.487309,0.487308 0.48745099,0.48745099 0 0 1 -0.487309,0.487826 0.48745099,0.48745099 0 0 1 -0.487825,-0.487826 0.48745099,0.48745099 0 0 1 0.487825,-0.487308 z m 0.999939,0 a 0.48745099,0.48745099 0 0 1 0.487309,0.487308 0.48745099,0.48745099 0 0 1 -0.487309,0.487826 0.48745099,0.48745099 0 0 1 -0.487309,-0.487826 0.48745099,0.48745099 0 0 1 0.487309,-0.487308 z m 0.999939,0 a 0.48745099,0.48745099 0 0 1 0.487309,0.487308 0.48745099,0.48745099 0 0 1 -0.487309,0.487826 0.48745099,0.48745099 0 0 1 -0.487309,-0.487826 0.48745099,0.48745099 0 0 1 0.487309,-0.487308 z M 0.34519857,13.239502 a 0.5551765,0.5551765 0 0 1 -0.0945679,0.138493 0.63157254,0.63157254 0 0 1 0.10438639,-0.0098 0.63157254,0.63157254 0 0 1 0.081132,0.0057 0.5551765,0.5551765 0 0 1 -0.0909505,-0.134359 z m 1.00045573,0 a 0.5551765,0.5551765 0 0 1 -0.095601,0.138493 0.63157254,0.63157254 0 0 1 0.1049032,-0.0098 0.63157254,0.63157254 0 0 1 0.081132,0.0057 0.5551765,0.5551765 0 0 1 -0.090434,-0.134359 z m 0.9994222,0 a 0.5551765,0.5551765 0 0 1 -0.094568,0.138493 0.63157254,0.63157254 0 0 1 0.1049032,-0.0098 0.63157254,0.63157254 0 0 1 0.080615,0.0057 0.5551765,0.5551765 0 0 1 -0.090951,-0.134359 z m 1.0004557,0 a 0.5551765,0.5551765 0 0 1 -0.095085,0.138493 0.63157254,0.63157254 0 0 1 0.1049031,-0.0098 0.63157254,0.63157254 0 0 1 0.080615,0.0057 0.5551765,0.5551765 0 0 1 -0.090434,-0.134359 z m 3.9997559,0 a 0.5551765,0.5551765 0 0 1 -0.094568,0.138493 0.63157254,0.63157254 0 0 1 0.1043864,-0.0098 0.63157254,0.63157254 0 0 1 0.081132,0.0057 0.5551765,0.5551765 0 0 1 -0.09095,-0.134359 z m 1.0004557,0 a 0.5551765,0.5551765 0 0 1 -0.095085,0.138493 0.63157254,0.63157254 0 0 1 0.1043864,-0.0098 0.63157254,0.63157254 0 0 1 0.081132,0.0057 0.5551765,0.5551765 0 0 1 -0.090434,-0.134359 z m 0.9994222,0 a 0.5551765,0.5551765 0 0 1 -0.094568,0.138493 0.63157254,0.63157254 0 0 1 0.1043864,-0.0098 0.63157254,0.63157254 0 0 1 0.081132,0.0057 0.5551765,0.5551765 0 0 1 -0.09095,-0.134359 z m 1.000456,0 a 0.5551765,0.5551765 0 0 1 -0.09509,0.138493 0.63157254,0.63157254 0 0 1 0.104903,-0.0098 0.63157254,0.63157254 0 0 1 0.08062,0.0057 0.5551765,0.5551765 0 0 1 -0.09043,-0.134359 z m 0.999422,0 a 0.5551765,0.5551765 0 0 1 -0.09457,0.138493 0.63157254,0.63157254 0 0 1 0.104903,-0.0098 0.63157254,0.63157254 0 0 1 0.08062,0.0057 0.5551765,0.5551765 0 0 1 -0.09095,-0.134359 z m 1.000456,0 a 0.5551765,0.5551765 0 0 1 -0.09508,0.138493 0.63157254,0.63157254 0 0 1 0.104903,-0.0098 0.63157254,0.63157254 0 0 1 0.08061,0.0057 0.5551765,0.5551765 0 0 1 -0.09043,-0.134359 z m -8.0000288,5.17e-4 a 0.5551765,0.5551765 0 0 1 -0.095085,0.137976 0.63157254,0.63157254 0 0 1 0.1049031,-0.0098 0.63157254,0.63157254 0 0 1 0.080615,0.0057 0.5551765,0.5551765 0 0 1 -0.090434,-0.133842 z m 0.999939,0 a 0.5551765,0.5551765 0 0 1 -0.095085,0.137976 0.63157254,0.63157254 0 0 1 0.1049032,-0.0098 0.63157254,0.63157254 0 0 1 0.081132,0.0057 0.5551765,0.5551765 0 0 1 -0.09095,-0.133842 z m 0.9999389,0 a 0.5551765,0.5551765 0 0 1 -0.095085,0.137976 0.63157254,0.63157254 0 0 1 0.1049031,-0.0098 0.63157254,0.63157254 0 0 1 0.081132,0.0057 0.5551765,0.5551765 0 0 1 -0.09095,-0.133842 z m 7.0000899,0 a 0.5551765,0.5551765 0 0 1 -0.09509,0.137976 0.63157254,0.63157254 0 0 1 0.104903,-0.0098 0.63157254,0.63157254 0 0 1 0.08113,0.0057 0.5551765,0.5551765 0 0 1 -0.09095,-0.133842 z m 0.999939,0 a 0.5551765,0.5551765 0 0 1 -0.09509,0.137976 0.63157254,0.63157254 0 0 1 0.104903,-0.0098 0.63157254,0.63157254 0 0 1 0.08113,0.0057 0.5551765,0.5551765 0 0 1 -0.09095,-0.133842 z M 0.91415609,13.550077 a 0.5551765,0.5551765 0 0 1 -0.0687297,0.0052 0.5551765,0.5551765 0 0 1 -0.0444417,-0.0031 0.63157254,0.63157254 0 0 1 0.054777,0.06356 0.63157254,0.63157254 0 0 1 0.0583944,-0.06563 z m 0.99993901,0 a 0.5551765,0.5551765 0 0 1 -0.06873,0.0052 0.5551765,0.5551765 0 0 1 -0.044442,-0.0031 0.63157254,0.63157254 0 0 1 0.054777,0.06356 0.63157254,0.63157254 0 0 1 0.058394,-0.06563 z m 0.9999389,0 a 0.5551765,0.5551765 0 0 1 -0.06873,0.0052 0.5551765,0.5551765 0 0 1 -0.044442,-0.0031 0.63157254,0.63157254 0 0 1 0.055294,0.06356 0.63157254,0.63157254 0 0 1 0.057878,-0.06563 z m 0.999939,0 a 0.5551765,0.5551765 0 0 1 -0.06873,0.0052 0.5551765,0.5551765 0 0 1 -0.044442,-0.0031 0.63157254,0.63157254 0 0 1 0.055294,0.06356 0.63157254,0.63157254 0 0 1 0.057878,-0.06563 z m 0.9999389,0 a 0.5551765,0.5551765 0 0 1 -0.06873,0.0052 0.5551765,0.5551765 0 0 1 -0.044442,-0.0031 0.63157254,0.63157254 0 0 1 0.055294,0.06356 0.63157254,0.63157254 0 0 1 0.057878,-0.06563 z m 0.999939,0 a 0.5551765,0.5551765 0 0 1 -0.068213,0.0052 0.5551765,0.5551765 0 0 1 -0.044958,-0.0031 0.63157254,0.63157254 0 0 1 0.055294,0.06305 0.63157254,0.63157254 0 0 1 0.057878,-0.06511 z m 1.0004557,0 a 0.5551765,0.5551765 0 0 1 -0.06873,0.0052 0.5551765,0.5551765 0 0 1 -0.044958,-0.0031 0.63157254,0.63157254 0 0 1 0.055294,0.06356 0.63157254,0.63157254 0 0 1 0.058394,-0.06563 z m 0.999939,0 a 0.5551765,0.5551765 0 0 1 -0.06873,0.0052 0.5551765,0.5551765 0 0 1 -0.044958,-0.0031 0.63157254,0.63157254 0 0 1 0.055294,0.06356 0.63157254,0.63157254 0 0 1 0.058394,-0.06563 z m 0.999939,0 a 0.5551765,0.5551765 0 0 1 -0.06873,0.0052 0.5551765,0.5551765 0 0 1 -0.044958,-0.0031 0.63157254,0.63157254 0 0 1 0.055294,0.06356 0.63157254,0.63157254 0 0 1 0.058394,-0.06563 z m 0.9999389,0 a 0.5551765,0.5551765 0 0 1 -0.06873,0.0052 0.5551765,0.5551765 0 0 1 -0.044442,-0.0031 0.63157254,0.63157254 0 0 1 0.054777,0.06356 0.63157254,0.63157254 0 0 1 0.058394,-0.06563 z m 0.9999385,0 a 0.5551765,0.5551765 0 0 1 -0.06873,0.0052 0.5551765,0.5551765 0 0 1 -0.04444,-0.0031 0.63157254,0.63157254 0 0 1 0.05478,0.06356 0.63157254,0.63157254 0 0 1 0.05839,-0.06563 z m 0.999939,0 a 0.5551765,0.5551765 0 0 1 -0.06873,0.0052 0.5551765,0.5551765 0 0 1 -0.04444,-0.0031 0.63157254,0.63157254 0 0 1 0.05529,0.06356 0.63157254,0.63157254 0 0 1 0.05788,-0.06563 z m 0.999939,0 a 0.5551765,0.5551765 0 0 1 -0.06873,0.0052 0.5551765,0.5551765 0 0 1 -0.04444,-0.0031 0.63157254,0.63157254 0 0 1 0.05529,0.06356 0.63157254,0.63157254 0 0 1 0.05788,-0.06563 z m 0.999939,0 a 0.5551765,0.5551765 0 0 1 -0.06873,0.0052 0.5551765,0.5551765 0 0 1 -0.04444,-0.0031 0.63157254,0.63157254 0 0 1 0.05529,0.06305 0.63157254,0.63157254 0 0 1 0.05788,-0.06511 z m 0.999939,0 a 0.5551765,0.5551765 0 0 1 -0.06821,0.0052 0.5551765,0.5551765 0 0 1 -0.04496,-0.0031 0.63157254,0.63157254 0 0 1 0.05529,0.06305 0.63157254,0.63157254 0 0 1 0.05788,-0.06511 z" />
    <path
       id="rect1190-3"
       style="fill:#24b0a9;fill-opacity:1;stroke:none;stroke-width:0.1;stroke-linecap:square;stroke-linejoin:round;stroke-miterlimit:2.7;paint-order:stroke markers fill"
       d="m 2.0769104e-7,15.000002 v 6.82439 A 0.23542412,0.23542412 0 0 1 0.08061521,22.000091 0.23542412,0.23542412 0 0 1 2.0769104e-7,22.171657 V 23.68526 A 0.35117647,0.35117647 0 0 1 0.19637061,23.999969 0.35117647,0.35117647 0 0 1 2.0769104e-7,24.314679 v 0.489376 A 0.40784314,0.40784314 0 0 1 0.35501731,24.592181 0.40784314,0.40784314 0 0 1 0.7632611,24.999908 0.40784314,0.40784314 0 0 1 0.35501731,25.407635 0.40784314,0.40784314 0 0 1 2.0769104e-7,25.195762 v 0.377755 A 0.46803921,0.46803921 0 0 1 0.31367611,25.999847 0.46803921,0.46803921 0 0 1 2.0769104e-7,26.440131 v 0.24908 A 0.48745099,0.48745099 0 0 1 0.35501731,26.512478 0.48745099,0.48745099 0 0 1 0.8428428,26.999786 0.48745099,0.48745099 0 0 1 0.35501731,27.487612 0.48745099,0.48745099 0 0 1 2.0769104e-7,27.310878 v 0.162781 A 0.5551765,0.5551765 0 0 1 0.34571551,27.75943 0.5551765,0.5551765 0 0 1 0.8454266,27.44472 a 0.5551765,0.5551765 0 0 1 0.5002279,0.31471 0.5551765,0.5551765 0 0 1 0.4997111,-0.31471 0.5551765,0.5551765 0 0 1 0.5002279,0.31471 0.5551765,0.5551765 0 0 1 0.4997111,-0.31471 0.5551765,0.5551765 0 0 1 0.5002278,0.31471 0.5551765,0.5551765 0 0 1 0.4997111,-0.31471 0.5551765,0.5551765 0 0 1 0.5002279,0.31471 0.5551765,0.5551765 0 0 1 0.4997111,-0.31471 0.5551765,0.5551765 0 0 1 0.500745,0.31471 0.5551765,0.5551765 0 0 1 0.499711,-0.31471 0.5551765,0.5551765 0 0 1 0.500228,0.31471 0.5551765,0.5551765 0 0 1 0.499711,-0.31471 0.5551765,0.5551765 0 0 1 0.500228,0.31471 0.5551765,0.5551765 0 0 1 0.499711,-0.31471 0.5551765,0.5551765 0 0 1 0.500227,0.31471 0.5551765,0.5551765 0 0 1 0.499712,-0.31471 0.5551765,0.5551765 0 0 1 0.500227,0.31471 0.5551765,0.5551765 0 0 1 0.499712,-0.31471 0.5551765,0.5551765 0 0 1 0.5002275,0.31471 0.5551765,0.5551765 0 0 1 0.499712,-0.31471 0.5551765,0.5551765 0 0 1 0.500228,0.31471 0.5551765,0.5551765 0 0 1 0.499711,-0.31471 0.5551765,0.5551765 0 0 1 0.500228,0.31471 0.5551765,0.5551765 0 0 1 0.499711,-0.31471 0.5551765,0.5551765 0 0 1 0.500744,0.31471 0.5551765,0.5551765 0 0 1 0.499195,-0.31471 0.5551765,0.5551765 0 0 1 0.500744,0.31471 0.5551765,0.5551765 0 0 1 0.499711,-0.31471 0.5551765,0.5551765 0 0 1 0.154513,0.02894 v -0.162781 a 0.48745099,0.48745099 0 0 1 -0.132292,-0.311092 0.48745099,0.48745099 0 0 1 0.132292,-0.310575 v -0.249597 a 0.46803921,0.46803921 0 0 1 -0.154513,0.02842 0.46803921,0.46803921 0 0 1 -0.468188,-0.468189 0.46803921,0.46803921 0 0 1 0.468188,-0.467671 0.46803921,0.46803921 0 0 1 0.154513,0.04134 v -0.377753 a 0.40784314,0.40784314 0 0 1 -0.05271,-0.195854 0.40784314,0.40784314 0 0 1 0.05271,-0.195853 v -0.489376 a 0.35117647,0.35117647 0 0 1 -0.154513,0.03669 0.35117647,0.35117647 0 0 1 -0.351399,-0.3514 0.35117647,0.35117647 0 0 1 0.351399,-0.3514 0.35117647,0.35117647 0 0 1 0.154513,0.03669 v -1.513602 a 0.23542412,0.23542412 0 0 1 -0.154513,0.06356 0.23542412,0.23542412 0 0 1 -0.235644,-0.235128 0.23542412,0.23542412 0 0 1 0.235644,-0.235644 0.23542412,0.23542412 0 0 1 0.154513,0.05994 v -6.82439 z M 0.35501731,20.818768 a 0.18131517,0.18131517 0 0 1 0.1813843,0.181385 0.18131517,0.18131517 0 0 1 -0.1813843,0.181384 0.18131517,0.18131517 0 0 1 -0.1813843,-0.181384 0.18131517,0.18131517 0 0 1 0.1813843,-0.181385 z m 0.99993899,0 a 0.18131517,0.18131517 0 0 1 0.1813842,0.181385 0.18131517,0.18131517 0 0 1 -0.1813842,0.181384 0.18131517,0.18131517 0 0 1 -0.1808676,-0.181384 0.18131517,0.18131517 0 0 1 0.1808676,-0.181385 z m 1.0004557,0 A 0.18131517,0.18131517 0 0 1 2.5362795,21.000153 0.18131517,0.18131517 0 0 1 2.355412,21.181537 0.18131517,0.18131517 0 0 1 2.1740277,21.000153 0.18131517,0.18131517 0 0 1 2.355412,20.818768 Z m 0.9999389,0 a 0.18131517,0.18131517 0 0 1 0.1813843,0.181385 0.18131517,0.18131517 0 0 1 -0.1813843,0.181384 0.18131517,0.18131517 0 0 1 -0.1813842,-0.181384 0.18131517,0.18131517 0 0 1 0.1813842,-0.181385 z m 0.999939,0 a 0.18131517,0.18131517 0 0 1 0.1813843,0.181385 0.18131517,0.18131517 0 0 1 -0.1813843,0.181384 0.18131517,0.18131517 0 0 1 -0.1813843,-0.181384 0.18131517,0.18131517 0 0 1 0.1813843,-0.181385 z m 0.9999386,0 a 0.18131517,0.18131517 0 0 1 0.181385,0.181385 0.18131517,0.18131517 0 0 1 -0.181385,0.181384 0.18131517,0.18131517 0 0 1 -0.181384,-0.181384 0.18131517,0.18131517 0 0 1 0.181384,-0.181385 z m 0.999939,0 a 0.18131517,0.18131517 0 0 1 0.181385,0.181385 0.18131517,0.18131517 0 0 1 -0.181385,0.181384 0.18131517,0.18131517 0 0 1 -0.181384,-0.181384 0.18131517,0.18131517 0 0 1 0.181384,-0.181385 z m 0.999939,0 a 0.18131517,0.18131517 0 0 1 0.181385,0.181385 0.18131517,0.18131517 0 0 1 -0.181385,0.181384 0.18131517,0.18131517 0 0 1 -0.181384,-0.181384 0.18131517,0.18131517 0 0 1 0.181384,-0.181385 z m 0.999939,0 a 0.18131517,0.18131517 0 0 1 0.181385,0.181385 0.18131517,0.18131517 0 0 1 -0.181385,0.181384 0.18131517,0.18131517 0 0 1 -0.181384,-0.181384 0.18131517,0.18131517 0 0 1 0.181384,-0.181385 z m 0.999939,0 a 0.18131517,0.18131517 0 0 1 0.181385,0.181385 0.18131517,0.18131517 0 0 1 -0.181385,0.181384 0.18131517,0.18131517 0 0 1 -0.180867,-0.181384 0.18131517,0.18131517 0 0 1 0.180867,-0.181385 z m 1.0004555,0 a 0.18131517,0.18131517 0 0 1 0.180868,0.181385 0.18131517,0.18131517 0 0 1 -0.180868,0.181384 0.18131517,0.18131517 0 0 1 -0.181384,-0.181384 0.18131517,0.18131517 0 0 1 0.181384,-0.181385 z m 0.99994,0 a 0.18131517,0.18131517 0 0 1 0.181385,0.181385 0.18131517,0.18131517 0 0 1 -0.181385,0.181384 0.18131517,0.18131517 0 0 1 -0.181384,-0.181384 0.18131517,0.18131517 0 0 1 0.181384,-0.181385 z m 0.999939,0 a 0.18131517,0.18131517 0 0 1 0.181384,0.181385 0.18131517,0.18131517 0 0 1 -0.181384,0.181384 0.18131517,0.18131517 0 0 1 -0.181384,-0.181384 0.18131517,0.18131517 0 0 1 0.181384,-0.181385 z m 0.999939,0 a 0.18131517,0.18131517 0 0 1 0.181384,0.181385 0.18131517,0.18131517 0 0 1 -0.181384,0.181384 0.18131517,0.18131517 0 0 1 -0.181384,-0.181384 0.18131517,0.18131517 0 0 1 0.181384,-0.181385 z m 0.999939,0 a 0.18131517,0.18131517 0 0 1 0.181384,0.181385 0.18131517,0.18131517 0 0 1 -0.181384,0.181384 0.18131517,0.18131517 0 0 1 -0.181384,-0.181384 0.18131517,0.18131517 0 0 1 0.181384,-0.181385 z M 0.8454266,21.764447 a 0.23542412,0.23542412 0 0 1 0.2356446,0.235644 0.23542412,0.23542412 0 0 1 -0.2356446,0.235128 0.23542412,0.23542412 0 0 1 -0.2356445,-0.235128 0.23542412,0.23542412 0 0 1 0.2356445,-0.235644 z m 0.999939,0 a 0.23542412,0.23542412 0 0 1 0.2356445,0.235644 0.23542412,0.23542412 0 0 1 -0.2356445,0.235128 0.23542412,0.23542412 0 0 1 -0.2356445,-0.235128 0.23542412,0.23542412 0 0 1 0.2356445,-0.235644 z m 0.999939,0 a 0.23542412,0.23542412 0 0 1 0.2356445,0.235644 0.23542412,0.23542412 0 0 1 -0.2356445,0.235128 0.23542412,0.23542412 0 0 1 -0.2351278,-0.235128 0.23542412,0.23542412 0 0 1 0.2351278,-0.235644 z m 0.9999389,0 a 0.23542412,0.23542412 0 0 1 0.2356446,0.235644 0.23542412,0.23542412 0 0 1 -0.2356446,0.235128 0.23542412,0.23542412 0 0 1 -0.2351277,-0.235128 0.23542412,0.23542412 0 0 1 0.2351277,-0.235644 z m 0.999939,0 a 0.23542412,0.23542412 0 0 1 0.235645,0.235644 0.23542412,0.23542412 0 0 1 -0.235645,0.235128 0.23542412,0.23542412 0 0 1 -0.2351278,-0.235128 0.23542412,0.23542412 0 0 1 0.2351278,-0.235644 z m 1.000456,0 a 0.23542412,0.23542412 0 0 1 0.235128,0.235644 0.23542412,0.23542412 0 0 1 -0.235128,0.235128 0.23542412,0.23542412 0 0 1 -0.235645,-0.235128 0.23542412,0.23542412 0 0 1 0.235645,-0.235644 z m 0.999939,0 a 0.23542412,0.23542412 0 0 1 0.235128,0.235644 0.23542412,0.23542412 0 0 1 -0.235128,0.235128 0.23542412,0.23542412 0 0 1 -0.235645,-0.235128 0.23542412,0.23542412 0 0 1 0.235645,-0.235644 z m 0.999939,0 a 0.23542412,0.23542412 0 0 1 0.235127,0.235644 0.23542412,0.23542412 0 0 1 -0.235127,0.235128 0.23542412,0.23542412 0 0 1 -0.235645,-0.235128 0.23542412,0.23542412 0 0 1 0.235645,-0.235644 z m 0.999939,0 a 0.23542412,0.23542412 0 0 1 0.235127,0.235644 0.23542412,0.23542412 0 0 1 -0.235127,0.235128 0.23542412,0.23542412 0 0 1 -0.235645,-0.235128 0.23542412,0.23542412 0 0 1 0.235645,-0.235644 z m 0.999939,0 a 0.23542412,0.23542412 0 0 1 0.2356435,0.235644 0.23542412,0.23542412 0 0 1 -0.2356435,0.235128 0.23542412,0.23542412 0 0 1 -0.235645,-0.235128 0.23542412,0.23542412 0 0 1 0.235645,-0.235644 z m 0.9999395,0 a 0.23542412,0.23542412 0 0 1 0.235644,0.235644 0.23542412,0.23542412 0 0 1 -0.235644,0.235128 0.23542412,0.23542412 0 0 1 -0.235129,-0.235128 0.23542412,0.23542412 0 0 1 0.235129,-0.235644 z m 0.999939,0 a 0.23542412,0.23542412 0 0 1 0.235644,0.235644 0.23542412,0.23542412 0 0 1 -0.235644,0.235128 0.23542412,0.23542412 0 0 1 -0.235128,-0.235128 0.23542412,0.23542412 0 0 1 0.235128,-0.235644 z m 0.999939,0 a 0.23542412,0.23542412 0 0 1 0.235644,0.235644 0.23542412,0.23542412 0 0 1 -0.235644,0.235128 0.23542412,0.23542412 0 0 1 -0.235128,-0.235128 0.23542412,0.23542412 0 0 1 0.235128,-0.235644 z m 0.999939,0 a 0.23542412,0.23542412 0 0 1 0.235644,0.235644 0.23542412,0.23542412 0 0 1 -0.235644,0.235128 0.23542412,0.23542412 0 0 1 -0.235128,-0.235128 0.23542412,0.23542412 0 0 1 0.235128,-0.235644 z M 0.35501731,22.69669 a 0.30335295,0.30335295 0 0 1 0.30334069,0.303341 0.30335295,0.30335295 0 0 1 -0.30334069,0.30334 0.30335295,0.30335295 0 0 1 -0.3033407,-0.30334 0.30335295,0.30335295 0 0 1 0.3033407,-0.303341 z m 0.99993899,0 a 0.30335295,0.30335295 0 0 1 0.3033406,0.303341 0.30335295,0.30335295 0 0 1 -0.3033406,0.30334 0.30335295,0.30335295 0 0 1 -0.3033407,-0.30334 0.30335295,0.30335295 0 0 1 0.3033407,-0.303341 z m 1.0004557,0 A 0.30335295,0.30335295 0 0 1 2.6587526,23.000031 0.30335295,0.30335295 0 0 1 2.355412,23.303371 0.30335295,0.30335295 0 0 1 2.0520713,23.000031 0.30335295,0.30335295 0 0 1 2.355412,22.69669 Z m 0.9999389,0 a 0.30335295,0.30335295 0 0 1 0.3033407,0.303341 0.30335295,0.30335295 0 0 1 -0.3033407,0.30334 0.30335295,0.30335295 0 0 1 -0.3033406,-0.30334 0.30335295,0.30335295 0 0 1 0.3033406,-0.303341 z m 0.999939,0 a 0.30335295,0.30335295 0 0 1 0.3033407,0.303341 0.30335295,0.30335295 0 0 1 -0.3033407,0.30334 0.30335295,0.30335295 0 0 1 -0.3033406,-0.30334 0.30335295,0.30335295 0 0 1 0.3033406,-0.303341 z m 0.9999386,0 a 0.30335295,0.30335295 0 0 1 0.303341,0.303341 0.30335295,0.30335295 0 0 1 -0.303341,0.30334 0.30335295,0.30335295 0 0 1 -0.30334,-0.30334 0.30335295,0.30335295 0 0 1 0.30334,-0.303341 z m 0.999939,0 a 0.30335295,0.30335295 0 0 1 0.303341,0.303341 0.30335295,0.30335295 0 0 1 -0.303341,0.30334 0.30335295,0.30335295 0 0 1 -0.30334,-0.30334 0.30335295,0.30335295 0 0 1 0.30334,-0.303341 z m 0.999939,0 a 0.30335295,0.30335295 0 0 1 0.303341,0.303341 0.30335295,0.30335295 0 0 1 -0.303341,0.30334 0.30335295,0.30335295 0 0 1 -0.30334,-0.30334 0.30335295,0.30335295 0 0 1 0.30334,-0.303341 z m 0.999939,0 a 0.30335295,0.30335295 0 0 1 0.303341,0.303341 0.30335295,0.30335295 0 0 1 -0.303341,0.30334 0.30335295,0.30335295 0 0 1 -0.30334,-0.30334 0.30335295,0.30335295 0 0 1 0.30334,-0.303341 z m 0.999939,0 a 0.30335295,0.30335295 0 0 1 0.303341,0.303341 0.30335295,0.30335295 0 0 1 -0.303341,0.30334 0.30335295,0.30335295 0 0 1 -0.30334,-0.30334 0.30335295,0.30335295 0 0 1 0.30334,-0.303341 z m 1.0004555,0 a 0.30335295,0.30335295 0 0 1 0.303341,0.303341 0.30335295,0.30335295 0 0 1 -0.303341,0.30334 0.30335295,0.30335295 0 0 1 -0.30334,-0.30334 0.30335295,0.30335295 0 0 1 0.30334,-0.303341 z m 0.99994,0 a 0.30335295,0.30335295 0 0 1 0.303341,0.303341 0.30335295,0.30335295 0 0 1 -0.303341,0.30334 0.30335295,0.30335295 0 0 1 -0.30334,-0.30334 0.30335295,0.30335295 0 0 1 0.30334,-0.303341 z m 0.999939,0 a 0.30335295,0.30335295 0 0 1 0.303341,0.303341 0.30335295,0.30335295 0 0 1 -0.303341,0.30334 0.30335295,0.30335295 0 0 1 -0.30334,-0.30334 0.30335295,0.30335295 0 0 1 0.30334,-0.303341 z m 0.999939,0 a 0.30335295,0.30335295 0 0 1 0.303341,0.303341 0.30335295,0.30335295 0 0 1 -0.303341,0.30334 0.30335295,0.30335295 0 0 1 -0.30334,-0.30334 0.30335295,0.30335295 0 0 1 0.30334,-0.303341 z m 0.999939,0 a 0.30335295,0.30335295 0 0 1 0.303341,0.303341 0.30335295,0.30335295 0 0 1 -0.303341,0.30334 0.30335295,0.30335295 0 0 1 -0.303341,-0.30334 0.30335295,0.30335295 0 0 1 0.303341,-0.303341 z M 0.8454266,23.64857 a 0.35117647,0.35117647 0 0 1 0.3513998,0.351399 0.35117647,0.35117647 0 0 1 -0.3513998,0.3514 0.35117647,0.35117647 0 0 1 -0.35139969,-0.3514 0.35117647,0.35117647 0 0 1 0.35139969,-0.351399 z m 0.999939,0 a 0.35117647,0.35117647 0 0 1 0.3513997,0.351399 0.35117647,0.35117647 0 0 1 -0.3513997,0.3514 0.35117647,0.35117647 0 0 1 -0.3513997,-0.3514 0.35117647,0.35117647 0 0 1 0.3513997,-0.351399 z m 0.999939,0 a 0.35117647,0.35117647 0 0 1 0.3513997,0.351399 0.35117647,0.35117647 0 0 1 -0.3513997,0.3514 0.35117647,0.35117647 0 0 1 -0.350883,-0.3514 0.35117647,0.35117647 0 0 1 0.350883,-0.351399 z m 0.9999389,0 a 0.35117647,0.35117647 0 0 1 0.3513998,0.351399 0.35117647,0.35117647 0 0 1 -0.3513998,0.3514 0.35117647,0.35117647 0 0 1 -0.3508829,-0.3514 0.35117647,0.35117647 0 0 1 0.3508829,-0.351399 z m 0.999939,0 a 0.35117647,0.35117647 0 0 1 0.3514,0.351399 0.35117647,0.35117647 0 0 1 -0.3514,0.3514 0.35117647,0.35117647 0 0 1 -0.350883,-0.3514 0.35117647,0.35117647 0 0 1 0.350883,-0.351399 z m 1.000456,0 a 0.35117647,0.35117647 0 0 1 0.350883,0.351399 0.35117647,0.35117647 0 0 1 -0.350883,0.3514 0.35117647,0.35117647 0 0 1 -0.3514,-0.3514 0.35117647,0.35117647 0 0 1 0.3514,-0.351399 z m 0.999939,0 a 0.35117647,0.35117647 0 0 1 0.350883,0.351399 0.35117647,0.35117647 0 0 1 -0.350883,0.3514 0.35117647,0.35117647 0 0 1 -0.3514,-0.3514 0.35117647,0.35117647 0 0 1 0.3514,-0.351399 z m 0.999939,0 a 0.35117647,0.35117647 0 0 1 0.350883,0.351399 0.35117647,0.35117647 0 0 1 -0.350883,0.3514 0.35117647,0.35117647 0 0 1 -0.3514,-0.3514 0.35117647,0.35117647 0 0 1 0.3514,-0.351399 z m 0.999939,0 a 0.35117647,0.35117647 0 0 1 0.350883,0.351399 0.35117647,0.35117647 0 0 1 -0.350883,0.3514 0.35117647,0.35117647 0 0 1 -0.3514,-0.3514 0.35117647,0.35117647 0 0 1 0.3514,-0.351399 z m 0.999939,0 a 0.35117647,0.35117647 0 0 1 0.3513995,0.351399 0.35117647,0.35117647 0 0 1 -0.3513995,0.3514 0.35117647,0.35117647 0 0 1 -0.3514,-0.3514 0.35117647,0.35117647 0 0 1 0.3514,-0.351399 z m 0.9999395,0 a 0.35117647,0.35117647 0 0 1 0.3514,0.351399 0.35117647,0.35117647 0 0 1 -0.3514,0.3514 0.35117647,0.35117647 0 0 1 -0.350884,-0.3514 0.35117647,0.35117647 0 0 1 0.350884,-0.351399 z m 0.999939,0 a 0.35117647,0.35117647 0 0 1 0.3514,0.351399 0.35117647,0.35117647 0 0 1 -0.3514,0.3514 0.35117647,0.35117647 0 0 1 -0.350883,-0.3514 0.35117647,0.35117647 0 0 1 0.350883,-0.351399 z m 0.999939,0 a 0.35117647,0.35117647 0 0 1 0.3514,0.351399 0.35117647,0.35117647 0 0 1 -0.3514,0.3514 0.35117647,0.35117647 0 0 1 -0.350883,-0.3514 0.35117647,0.35117647 0 0 1 0.350883,-0.351399 z m 0.999939,0 a 0.35117647,0.35117647 0 0 1 0.351399,0.351399 0.35117647,0.35117647 0 0 1 -0.351399,0.3514 0.35117647,0.35117647 0 0 1 -0.350883,-0.3514 0.35117647,0.35117647 0 0 1 0.350883,-0.351399 z M 1.3549563,24.592181 a 0.40784314,0.40784314 0 0 1 0.4082438,0.407727 0.40784314,0.40784314 0 0 1 -0.4082438,0.407727 0.40784314,0.40784314 0 0 1 -0.4077271,-0.407727 0.40784314,0.40784314 0 0 1 0.4077271,-0.407727 z m 1.0004557,0 A 0.40784314,0.40784314 0 0 1 2.763139,24.999908 0.40784314,0.40784314 0 0 1 2.355412,25.407635 0.40784314,0.40784314 0 0 1 1.9471682,24.999908 0.40784314,0.40784314 0 0 1 2.355412,24.592181 Z m 0.9999389,0 A 0.40784314,0.40784314 0 0 1 3.763078,24.999908 0.40784314,0.40784314 0 0 1 3.3553509,25.407635 0.40784314,0.40784314 0 0 1 2.9471071,24.999908 0.40784314,0.40784314 0 0 1 3.3553509,24.592181 Z m 0.999939,0 a 0.40784314,0.40784314 0 0 1 0.4077266,0.407727 0.40784314,0.40784314 0 0 1 -0.4077266,0.407727 0.40784314,0.40784314 0 0 1 -0.407727,-0.407727 0.40784314,0.40784314 0 0 1 0.407727,-0.407727 z m 0.9999386,0 a 0.40784314,0.40784314 0 0 1 0.407727,0.407727 0.40784314,0.40784314 0 0 1 -0.407727,0.407727 0.40784314,0.40784314 0 0 1 -0.407727,-0.407727 0.40784314,0.40784314 0 0 1 0.407727,-0.407727 z m 0.999939,0 a 0.40784314,0.40784314 0 0 1 0.407727,0.407727 0.40784314,0.40784314 0 0 1 -0.407727,0.407727 0.40784314,0.40784314 0 0 1 -0.407727,-0.407727 0.40784314,0.40784314 0 0 1 0.407727,-0.407727 z m 0.999939,0 a 0.40784314,0.40784314 0 0 1 0.407727,0.407727 0.40784314,0.40784314 0 0 1 -0.407727,0.407727 0.40784314,0.40784314 0 0 1 -0.407727,-0.407727 0.40784314,0.40784314 0 0 1 0.407727,-0.407727 z m 0.999939,0 a 0.40784314,0.40784314 0 0 1 0.408244,0.407727 0.40784314,0.40784314 0 0 1 -0.408244,0.407727 0.40784314,0.40784314 0 0 1 -0.407727,-0.407727 0.40784314,0.40784314 0 0 1 0.407727,-0.407727 z m 0.999939,0 a 0.40784314,0.40784314 0 0 1 0.408244,0.407727 0.40784314,0.40784314 0 0 1 -0.408244,0.407727 0.40784314,0.40784314 0 0 1 -0.407727,-0.407727 0.40784314,0.40784314 0 0 1 0.407727,-0.407727 z m 1.0004555,0 a 0.40784314,0.40784314 0 0 1 0.407728,0.407727 0.40784314,0.40784314 0 0 1 -0.407728,0.407727 0.40784314,0.40784314 0 0 1 -0.4082435,-0.407727 0.40784314,0.40784314 0 0 1 0.4082435,-0.407727 z m 0.99994,0 a 0.40784314,0.40784314 0 0 1 0.407727,0.407727 0.40784314,0.40784314 0 0 1 -0.407727,0.407727 0.40784314,0.40784314 0 0 1 -0.408244,-0.407727 0.40784314,0.40784314 0 0 1 0.408244,-0.407727 z m 0.999939,0 a 0.40784314,0.40784314 0 0 1 0.407727,0.407727 0.40784314,0.40784314 0 0 1 -0.407727,0.407727 0.40784314,0.40784314 0 0 1 -0.407727,-0.407727 0.40784314,0.40784314 0 0 1 0.407727,-0.407727 z m 0.999939,0 a 0.40784314,0.40784314 0 0 1 0.407727,0.407727 0.40784314,0.40784314 0 0 1 -0.407727,0.407727 0.40784314,0.40784314 0 0 1 -0.407727,-0.407727 0.40784314,0.40784314 0 0 1 0.407727,-0.407727 z m 0.999939,0 a 0.40784314,0.40784314 0 0 1 0.407727,0.407727 0.40784314,0.40784314 0 0 1 -0.407727,0.407727 0.40784314,0.40784314 0 0 1 -0.407727,-0.407727 0.40784314,0.40784314 0 0 1 0.407727,-0.407727 z M 0.8454266,25.532176 A 0.46803921,0.46803921 0 0 1 1.3136151,25.999847 0.46803921,0.46803921 0 0 1 0.8454266,26.468036 0.46803921,0.46803921 0 0 1 0.37723821,25.999847 0.46803921,0.46803921 0 0 1 0.8454266,25.532176 Z m 0.999939,0 a 0.46803921,0.46803921 0 0 1 0.4681885,0.467671 0.46803921,0.46803921 0 0 1 -0.4681885,0.468189 0.46803921,0.46803921 0 0 1 -0.4681885,-0.468189 0.46803921,0.46803921 0 0 1 0.4681885,-0.467671 z m 0.999939,0 A 0.46803921,0.46803921 0 0 1 3.313493,25.999847 0.46803921,0.46803921 0 0 1 2.8453046,26.468036 0.46803921,0.46803921 0 0 1 2.3771161,25.999847 0.46803921,0.46803921 0 0 1 2.8453046,25.532176 Z m 0.9999389,0 A 0.46803921,0.46803921 0 0 1 4.313432,25.999847 0.46803921,0.46803921 0 0 1 3.8452435,26.468036 0.46803921,0.46803921 0 0 1 3.3775718,25.999847 0.46803921,0.46803921 0 0 1 3.8452435,25.532176 Z m 0.999939,0 a 0.46803921,0.46803921 0 0 1 0.468189,0.467671 0.46803921,0.46803921 0 0 1 -0.468189,0.468189 0.46803921,0.46803921 0 0 1 -0.4676717,-0.468189 0.46803921,0.46803921 0 0 1 0.4676717,-0.467671 z m 1.000456,0 a 0.46803921,0.46803921 0 0 1 0.467671,0.467671 0.46803921,0.46803921 0 0 1 -0.467671,0.468189 0.46803921,0.46803921 0 0 1 -0.468189,-0.468189 0.46803921,0.46803921 0 0 1 0.468189,-0.467671 z m 0.999939,0 a 0.46803921,0.46803921 0 0 1 0.467671,0.467671 0.46803921,0.46803921 0 0 1 -0.467671,0.468189 0.46803921,0.46803921 0 0 1 -0.468189,-0.468189 0.46803921,0.46803921 0 0 1 0.468189,-0.467671 z m 0.999939,0 a 0.46803921,0.46803921 0 0 1 0.467671,0.467671 0.46803921,0.46803921 0 0 1 -0.467671,0.468189 0.46803921,0.46803921 0 0 1 -0.468189,-0.468189 0.46803921,0.46803921 0 0 1 0.468189,-0.467671 z m 0.999939,0 a 0.46803921,0.46803921 0 0 1 0.468188,0.467671 0.46803921,0.46803921 0 0 1 -0.468188,0.468189 0.46803921,0.46803921 0 0 1 -0.468189,-0.468189 0.46803921,0.46803921 0 0 1 0.468189,-0.467671 z m 0.999939,0 a 0.46803921,0.46803921 0 0 1 0.4681875,0.467671 0.46803921,0.46803921 0 0 1 -0.4681875,0.468189 0.46803921,0.46803921 0 0 1 -0.468189,-0.468189 0.46803921,0.46803921 0 0 1 0.468189,-0.467671 z m 0.9999395,0 a 0.46803921,0.46803921 0 0 1 0.468188,0.467671 0.46803921,0.46803921 0 0 1 -0.468188,0.468189 0.46803921,0.46803921 0 0 1 -0.46819,-0.468189 0.46803921,0.46803921 0 0 1 0.46819,-0.467671 z m 0.999939,0 a 0.46803921,0.46803921 0 0 1 0.468188,0.467671 0.46803921,0.46803921 0 0 1 -0.468188,0.468189 0.46803921,0.46803921 0 0 1 -0.467672,-0.468189 0.46803921,0.46803921 0 0 1 0.467672,-0.467671 z m 0.999939,0 a 0.46803921,0.46803921 0 0 1 0.468188,0.467671 0.46803921,0.46803921 0 0 1 -0.468188,0.468189 0.46803921,0.46803921 0 0 1 -0.467672,-0.468189 0.46803921,0.46803921 0 0 1 0.467672,-0.467671 z m 0.999939,0 a 0.46803921,0.46803921 0 0 1 0.468188,0.467671 0.46803921,0.46803921 0 0 1 -0.468188,0.468189 0.46803921,0.46803921 0 0 1 -0.467672,-0.468189 0.46803921,0.46803921 0 0 1 0.467672,-0.467671 z M 1.3549563,26.512478 a 0.48745099,0.48745099 0 0 1 0.4878255,0.487308 0.48745099,0.48745099 0 0 1 -0.4878255,0.487826 0.48745099,0.48745099 0 0 1 -0.4873088,-0.487826 0.48745099,0.48745099 0 0 1 0.4873088,-0.487308 z m 1.0004557,0 A 0.48745099,0.48745099 0 0 1 2.8427207,26.999786 0.48745099,0.48745099 0 0 1 2.355412,27.487612 0.48745099,0.48745099 0 0 1 1.8675865,26.999786 0.48745099,0.48745099 0 0 1 2.355412,26.512478 Z m 0.9999389,0 a 0.48745099,0.48745099 0 0 1 0.4873088,0.487308 0.48745099,0.48745099 0 0 1 -0.4873088,0.487826 0.48745099,0.48745099 0 0 1 -0.4878255,-0.487826 0.48745099,0.48745099 0 0 1 0.4878255,-0.487308 z m 0.999939,0 a 0.48745099,0.48745099 0 0 1 0.4873086,0.487308 0.48745099,0.48745099 0 0 1 -0.4873086,0.487826 0.48745099,0.48745099 0 0 1 -0.4873087,-0.487826 0.48745099,0.48745099 0 0 1 0.4873087,-0.487308 z m 0.9999386,0 a 0.48745099,0.48745099 0 0 1 0.487309,0.487308 0.48745099,0.48745099 0 0 1 -0.487309,0.487826 0.48745099,0.48745099 0 0 1 -0.487308,-0.487826 0.48745099,0.48745099 0 0 1 0.487308,-0.487308 z m 0.999939,0 a 0.48745099,0.48745099 0 0 1 0.487309,0.487308 0.48745099,0.48745099 0 0 1 -0.487309,0.487826 0.48745099,0.48745099 0 0 1 -0.487308,-0.487826 0.48745099,0.48745099 0 0 1 0.487308,-0.487308 z m 0.999939,0 a 0.48745099,0.48745099 0 0 1 0.487309,0.487308 0.48745099,0.48745099 0 0 1 -0.487309,0.487826 0.48745099,0.48745099 0 0 1 -0.487308,-0.487826 0.48745099,0.48745099 0 0 1 0.487308,-0.487308 z m 0.999939,0 a 0.48745099,0.48745099 0 0 1 0.487826,0.487308 0.48745099,0.48745099 0 0 1 -0.487826,0.487826 0.48745099,0.48745099 0 0 1 -0.487308,-0.487826 0.48745099,0.48745099 0 0 1 0.487308,-0.487308 z m 0.999939,0 a 0.48745099,0.48745099 0 0 1 0.487826,0.487308 0.48745099,0.48745099 0 0 1 -0.487826,0.487826 0.48745099,0.48745099 0 0 1 -0.487308,-0.487826 0.48745099,0.48745099 0 0 1 0.487308,-0.487308 z m 1.0004555,0 a 0.48745099,0.48745099 0 0 1 0.48731,0.487308 0.48745099,0.48745099 0 0 1 -0.48731,0.487826 0.48745099,0.48745099 0 0 1 -0.4878255,-0.487826 0.48745099,0.48745099 0 0 1 0.4878255,-0.487308 z m 0.99994,0 a 0.48745099,0.48745099 0 0 1 0.487309,0.487308 0.48745099,0.48745099 0 0 1 -0.487309,0.487826 0.48745099,0.48745099 0 0 1 -0.487825,-0.487826 0.48745099,0.48745099 0 0 1 0.487825,-0.487308 z m 0.999939,0 a 0.48745099,0.48745099 0 0 1 0.487309,0.487308 0.48745099,0.48745099 0 0 1 -0.487309,0.487826 0.48745099,0.48745099 0 0 1 -0.487825,-0.487826 0.48745099,0.48745099 0 0 1 0.487825,-0.487308 z m 0.999939,0 a 0.48745099,0.48745099 0 0 1 0.487309,0.487308 0.48745099,0.48745099 0 0 1 -0.487309,0.487826 0.48745099,0.48745099 0 0 1 -0.487309,-0.487826 0.48745099,0.48745099 0 0 1 0.487309,-0.487308 z m 0.999939,0 a 0.48745099,0.48745099 0 0 1 0.487309,0.487308 0.48745099,0.48745099 0 0 1 -0.487309,0.487826 0.48745099,0.48745099 0 0 1 -0.487309,-0.487826 0.48745099,0.48745099 0 0 1 0.487309,-0.487308 z M 0.34519881,28.239504 a 0.5551765,0.5551765 0 0 1 -0.094568,0.138493 0.63157254,0.63157254 0 0 1 0.1043864,-0.0098 0.63157254,0.63157254 0 0 1 0.081132,0.0057 0.5551765,0.5551765 0 0 1 -0.09095,-0.134359 z m 1.00045569,0 a 0.5551765,0.5551765 0 0 1 -0.095601,0.138493 0.63157254,0.63157254 0 0 1 0.1049032,-0.0098 0.63157254,0.63157254 0 0 1 0.081132,0.0057 0.5551765,0.5551765 0 0 1 -0.090434,-0.134359 z m 0.9994222,0 a 0.5551765,0.5551765 0 0 1 -0.094568,0.138493 0.63157254,0.63157254 0 0 1 0.1049032,-0.0098 0.63157254,0.63157254 0 0 1 0.080615,0.0057 0.5551765,0.5551765 0 0 1 -0.090951,-0.134359 z m 1.0004557,0 a 0.5551765,0.5551765 0 0 1 -0.095085,0.138493 0.63157254,0.63157254 0 0 1 0.1049031,-0.0098 0.63157254,0.63157254 0 0 1 0.080615,0.0057 0.5551765,0.5551765 0 0 1 -0.090434,-0.134359 z m 3.9997561,0 a 0.5551765,0.5551765 0 0 1 -0.09457,0.138493 0.63157254,0.63157254 0 0 1 0.104386,-0.0098 0.63157254,0.63157254 0 0 1 0.08113,0.0057 0.5551765,0.5551765 0 0 1 -0.09095,-0.134359 z m 1.000456,0 a 0.5551765,0.5551765 0 0 1 -0.09509,0.138493 0.63157254,0.63157254 0 0 1 0.104386,-0.0098 0.63157254,0.63157254 0 0 1 0.08113,0.0057 0.5551765,0.5551765 0 0 1 -0.09043,-0.134359 z m 0.999422,0 a 0.5551765,0.5551765 0 0 1 -0.09457,0.138493 0.63157254,0.63157254 0 0 1 0.104386,-0.0098 0.63157254,0.63157254 0 0 1 0.08113,0.0057 0.5551765,0.5551765 0 0 1 -0.09095,-0.134359 z m 1.0004555,0 a 0.5551765,0.5551765 0 0 1 -0.09509,0.138493 0.63157254,0.63157254 0 0 1 0.104903,-0.0098 0.63157254,0.63157254 0 0 1 0.08062,0.0057 0.5551765,0.5551765 0 0 1 -0.09043,-0.134359 z m 0.999423,0 a 0.5551765,0.5551765 0 0 1 -0.09457,0.138493 0.63157254,0.63157254 0 0 1 0.104903,-0.0098 0.63157254,0.63157254 0 0 1 0.08062,0.0057 0.5551765,0.5551765 0 0 1 -0.09095,-0.134359 z m 1.000456,0 a 0.5551765,0.5551765 0 0 1 -0.09508,0.138493 0.63157254,0.63157254 0 0 1 0.104903,-0.0098 0.63157254,0.63157254 0 0 1 0.08061,0.0057 0.5551765,0.5551765 0 0 1 -0.09043,-0.134359 z m -8.0000296,5.17e-4 a 0.5551765,0.5551765 0 0 1 -0.095085,0.137976 0.63157254,0.63157254 0 0 1 0.1049031,-0.0098 0.63157254,0.63157254 0 0 1 0.080615,0.0057 0.5551765,0.5551765 0 0 1 -0.090434,-0.133842 z m 0.9999391,0 a 0.5551765,0.5551765 0 0 1 -0.09508,0.137976 0.63157254,0.63157254 0 0 1 0.104903,-0.0098 0.63157254,0.63157254 0 0 1 0.08113,0.0057 0.5551765,0.5551765 0 0 1 -0.09095,-0.133842 z m 0.999939,0 a 0.5551765,0.5551765 0 0 1 -0.09508,0.137976 0.63157254,0.63157254 0 0 1 0.104903,-0.0098 0.63157254,0.63157254 0 0 1 0.08113,0.0057 0.5551765,0.5551765 0 0 1 -0.09095,-0.133842 z m 7.0000905,0 a 0.5551765,0.5551765 0 0 1 -0.09509,0.137976 0.63157254,0.63157254 0 0 1 0.104903,-0.0098 0.63157254,0.63157254 0 0 1 0.08113,0.0057 0.5551765,0.5551765 0 0 1 -0.09095,-0.133842 z m 0.999939,0 a 0.5551765,0.5551765 0 0 1 -0.09509,0.137976 0.63157254,0.63157254 0 0 1 0.104903,-0.0098 0.63157254,0.63157254 0 0 1 0.08113,0.0057 0.5551765,0.5551765 0 0 1 -0.09095,-0.133842 z M 0.9141563,28.550079 a 0.5551765,0.5551765 0 0 1 -0.06873,0.0052 0.5551765,0.5551765 0 0 1 -0.044442,-0.0031 0.63157254,0.63157254 0 0 1 0.054777,0.06356 0.63157254,0.63157254 0 0 1 0.058394,-0.06563 z m 0.999939,0 a 0.5551765,0.5551765 0 0 1 -0.06873,0.0052 0.5551765,0.5551765 0 0 1 -0.044442,-0.0031 0.63157254,0.63157254 0 0 1 0.054777,0.06356 0.63157254,0.63157254 0 0 1 0.058394,-0.06563 z m 0.9999389,0 a 0.5551765,0.5551765 0 0 1 -0.06873,0.0052 0.5551765,0.5551765 0 0 1 -0.044442,-0.0031 0.63157254,0.63157254 0 0 1 0.055294,0.06356 0.63157254,0.63157254 0 0 1 0.057878,-0.06563 z m 0.999939,0 a 0.5551765,0.5551765 0 0 1 -0.06873,0.0052 0.5551765,0.5551765 0 0 1 -0.044442,-0.0031 0.63157254,0.63157254 0 0 1 0.055294,0.06356 0.63157254,0.63157254 0 0 1 0.057878,-0.06563 z m 0.9999393,0 a 0.5551765,0.5551765 0 0 1 -0.06873,0.0052 0.5551765,0.5551765 0 0 1 -0.04444,-0.0031 0.63157254,0.63157254 0 0 1 0.05529,0.06356 0.63157254,0.63157254 0 0 1 0.05788,-0.06563 z m 0.999939,0 a 0.5551765,0.5551765 0 0 1 -0.06821,0.0052 0.5551765,0.5551765 0 0 1 -0.04496,-0.0031 0.63157254,0.63157254 0 0 1 0.05529,0.06305 0.63157254,0.63157254 0 0 1 0.05788,-0.06511 z m 1.000455,0 a 0.5551765,0.5551765 0 0 1 -0.06873,0.0052 0.5551765,0.5551765 0 0 1 -0.04496,-0.0031 0.63157254,0.63157254 0 0 1 0.05529,0.06356 0.63157254,0.63157254 0 0 1 0.05839,-0.06563 z m 0.999939,0 a 0.5551765,0.5551765 0 0 1 -0.06873,0.0052 0.5551765,0.5551765 0 0 1 -0.04496,-0.0031 0.63157254,0.63157254 0 0 1 0.05529,0.06356 0.63157254,0.63157254 0 0 1 0.05839,-0.06563 z m 0.999939,0 a 0.5551765,0.5551765 0 0 1 -0.06873,0.0052 0.5551765,0.5551765 0 0 1 -0.04496,-0.0031 0.63157254,0.63157254 0 0 1 0.05529,0.06356 0.63157254,0.63157254 0 0 1 0.05839,-0.06563 z m 0.999939,0 a 0.5551765,0.5551765 0 0 1 -0.06873,0.0052 0.5551765,0.5551765 0 0 1 -0.04444,-0.0031 0.63157254,0.63157254 0 0 1 0.05478,0.06356 0.63157254,0.63157254 0 0 1 0.05839,-0.06563 z m 0.9999395,0 a 0.5551765,0.5551765 0 0 1 -0.06873,0.0052 0.5551765,0.5551765 0 0 1 -0.04444,-0.0031 0.63157254,0.63157254 0 0 1 0.05478,0.06356 0.63157254,0.63157254 0 0 1 0.05839,-0.06563 z m 0.999939,0 a 0.5551765,0.5551765 0 0 1 -0.06873,0.0052 0.5551765,0.5551765 0 0 1 -0.04444,-0.0031 0.63157254,0.63157254 0 0 1 0.05529,0.06356 0.63157254,0.63157254 0 0 1 0.05788,-0.06563 z m 0.999939,0 a 0.5551765,0.5551765 0 0 1 -0.06873,0.0052 0.5551765,0.5551765 0 0 1 -0.04444,-0.0031 0.63157254,0.63157254 0 0 1 0.05529,0.06356 0.63157254,0.63157254 0 0 1 0.05788,-0.06563 z m 0.999939,0 a 0.5551765,0.5551765 0 0 1 -0.06873,0.0052 0.5551765,0.5551765 0 0 1 -0.04444,-0.0031 0.63157254,0.63157254 0 0 1 0.05529,0.06305 0.63157254,0.63157254 0 0 1 0.05788,-0.06511 z m 0.999939,0 a 0.5551765,0.5551765 0 0 1 -0.06821,0.0052 0.5551765,0.5551765 0 0 1 -0.04496,-0.0031 0.63157254,0.63157254 0 0 1 0.05529,0.06305 0.63157254,0.63157254 0 0 1 0.05788,-0.06511 z" />
    <rect
       style="fill:#ffb946;fill-opacity:1;stroke:none;stroke-width:0.1;stroke-linecap:square;stroke-linejoin:round;stroke-miterlimit:2.7;paint-order:stroke markers fill"
       id="rect1191-4"
       width="15"
       height="15.000001"
       x="15.000118"
       y="1.500586e-06" />
    <path
       id="rect1190-4"
       style="fill:#ffc812;fill-opacity:1;stroke:none;stroke-width:0.1;stroke-linecap:square;stroke-linejoin:round;stroke-miterlimit:2.7;paint-order:stroke markers fill"
       d="M 15.000118,1.5e-7 V 6.8243901 a 0.23542412,0.23542412 0 0 1 0.08061,0.1756991 0.23542412,0.23542412 0 0 1 -0.08061,0.1715659 v 1.5136031 a 0.35117647,0.35117647 0 0 1 0.19637,0.314709 0.35117647,0.35117647 0 0 1 -0.19637,0.31471 v 0.489376 a 0.40784314,0.40784314 0 0 1 0.355017,-0.211874 0.40784314,0.40784314 0 0 1 0.408244,0.407727 0.40784314,0.40784314 0 0 1 -0.408244,0.4077268 0.40784314,0.40784314 0 0 1 -0.355017,-0.211873 v 0.377755 a 0.46803921,0.46803921 0 0 1 0.313676,0.42633 0.46803921,0.46803921 0 0 1 -0.313676,0.440284 v 0.24908 a 0.48745099,0.48745099 0 0 1 0.355017,-0.176733 0.48745099,0.48745099 0 0 1 0.487826,0.487308 0.48745099,0.48745099 0 0 1 -0.487826,0.487826 0.48745099,0.48745099 0 0 1 -0.355017,-0.176734 v 0.162781 a 0.5551765,0.5551765 0 0 1 0.345715,0.285771 0.5551765,0.5551765 0 0 1 0.499711,-0.31471 0.5551765,0.5551765 0 0 1 0.500228,0.31471 0.5551765,0.5551765 0 0 1 0.499711,-0.31471 0.5551765,0.5551765 0 0 1 0.500228,0.31471 0.5551765,0.5551765 0 0 1 0.499711,-0.31471 0.5551765,0.5551765 0 0 1 0.500228,0.31471 0.5551765,0.5551765 0 0 1 0.499711,-0.31471 0.5551765,0.5551765 0 0 1 0.500228,0.31471 0.5551765,0.5551765 0 0 1 0.499711,-0.31471 0.5551765,0.5551765 0 0 1 0.500745,0.31471 0.5551765,0.5551765 0 0 1 0.499711,-0.31471 0.5551765,0.5551765 0 0 1 0.500228,0.31471 0.5551765,0.5551765 0 0 1 0.499711,-0.31471 0.5551765,0.5551765 0 0 1 0.500228,0.31471 0.5551765,0.5551765 0 0 1 0.499711,-0.31471 0.5551765,0.5551765 0 0 1 0.500228,0.31471 0.5551765,0.5551765 0 0 1 0.499711,-0.31471 0.5551765,0.5551765 0 0 1 0.500228,0.31471 0.5551765,0.5551765 0 0 1 0.499711,-0.31471 0.5551765,0.5551765 0 0 1 0.500228,0.31471 0.5551765,0.5551765 0 0 1 0.499711,-0.31471 0.5551765,0.5551765 0 0 1 0.500228,0.31471 0.5551765,0.5551765 0 0 1 0.499711,-0.31471 0.5551765,0.5551765 0 0 1 0.500228,0.31471 0.5551765,0.5551765 0 0 1 0.499711,-0.31471 0.5551765,0.5551765 0 0 1 0.500744,0.31471 0.5551765,0.5551765 0 0 1 0.499195,-0.31471 0.5551765,0.5551765 0 0 1 0.500744,0.31471 0.5551765,0.5551765 0 0 1 0.499711,-0.31471 0.5551765,0.5551765 0 0 1 0.154513,0.02894 v -0.162781 a 0.48745099,0.48745099 0 0 1 -0.132292,-0.311092 0.48745099,0.48745099 0 0 1 0.132292,-0.310575 v -0.249597 a 0.46803921,0.46803921 0 0 1 -0.154513,0.02842 0.46803921,0.46803921 0 0 1 -0.468188,-0.468189 0.46803921,0.46803921 0 0 1 0.468188,-0.467671 0.46803921,0.46803921 0 0 1 0.154513,0.04134 V 10.19576 a 0.40784314,0.40784314 0 0 1 -0.05271,-0.1958539 0.40784314,0.40784314 0 0 1 0.05271,-0.195853 V 9.3146772 a 0.35117647,0.35117647 0 0 1 -0.154513,0.03669 0.35117647,0.35117647 0 0 1 -0.351399,-0.3514 0.35117647,0.35117647 0 0 1 0.351399,-0.3514 0.35117647,0.35117647 0 0 1 0.154513,0.03669 v -1.513602 a 0.23542412,0.23542412 0 0 1 -0.154513,0.06356 0.23542412,0.23542412 0 0 1 -0.235644,-0.235128 0.23542412,0.23542412 0 0 1 0.235644,-0.235644 0.23542412,0.23542412 0 0 1 0.154513,0.05994 V -6.85e-6 Z m 0.355017,5.81876605 a 0.18131517,0.18131517 0 0 1 0.181384,0.181385 0.18131517,0.18131517 0 0 1 -0.181384,0.181384 0.18131517,0.18131517 0 0 1 -0.181384,-0.181384 0.18131517,0.18131517 0 0 1 0.181384,-0.181385 z m 0.999939,0 a 0.18131517,0.18131517 0 0 1 0.181384,0.181385 0.18131517,0.18131517 0 0 1 -0.181384,0.181384 0.18131517,0.18131517 0 0 1 -0.180868,-0.181384 0.18131517,0.18131517 0 0 1 0.180868,-0.181385 z m 1.000456,0 a 0.18131517,0.18131517 0 0 1 0.180867,0.181385 0.18131517,0.18131517 0 0 1 -0.180867,0.181384 0.18131517,0.18131517 0 0 1 -0.181384,-0.181384 0.18131517,0.18131517 0 0 1 0.181384,-0.181385 z m 0.999939,0 a 0.18131517,0.18131517 0 0 1 0.181384,0.181385 0.18131517,0.18131517 0 0 1 -0.181384,0.181384 0.18131517,0.18131517 0 0 1 -0.181385,-0.181384 0.18131517,0.18131517 0 0 1 0.181385,-0.181385 z m 0.999939,0 a 0.18131517,0.18131517 0 0 1 0.181384,0.181385 0.18131517,0.18131517 0 0 1 -0.181384,0.181384 0.18131517,0.18131517 0 0 1 -0.181385,-0.181384 0.18131517,0.18131517 0 0 1 0.181385,-0.181385 z m 0.999939,0 a 0.18131517,0.18131517 0 0 1 0.181384,0.181385 0.18131517,0.18131517 0 0 1 -0.181384,0.181384 0.18131517,0.18131517 0 0 1 -0.181385,-0.181384 0.18131517,0.18131517 0 0 1 0.181385,-0.181385 z m 0.999939,0 a 0.18131517,0.18131517 0 0 1 0.181384,0.181385 0.18131517,0.18131517 0 0 1 -0.181384,0.181384 0.18131517,0.18131517 0 0 1 -0.181385,-0.181384 0.18131517,0.18131517 0 0 1 0.181385,-0.181385 z m 0.999939,0 a 0.18131517,0.18131517 0 0 1 0.181384,0.181385 0.18131517,0.18131517 0 0 1 -0.181384,0.181384 0.18131517,0.18131517 0 0 1 -0.181385,-0.181384 0.18131517,0.18131517 0 0 1 0.181385,-0.181385 z m 0.999939,0 a 0.18131517,0.18131517 0 0 1 0.181384,0.181385 0.18131517,0.18131517 0 0 1 -0.181384,0.181384 0.18131517,0.18131517 0 0 1 -0.181384,-0.181384 0.18131517,0.18131517 0 0 1 0.181384,-0.181385 z m 0.999939,0 a 0.18131517,0.18131517 0 0 1 0.181384,0.181385 0.18131517,0.18131517 0 0 1 -0.181384,0.181384 0.18131517,0.18131517 0 0 1 -0.180868,-0.181384 0.18131517,0.18131517 0 0 1 0.180868,-0.181385 z m 1.000455,0 a 0.18131517,0.18131517 0 0 1 0.180868,0.181385 0.18131517,0.18131517 0 0 1 -0.180868,0.181384 0.18131517,0.18131517 0 0 1 -0.181384,-0.181384 0.18131517,0.18131517 0 0 1 0.181384,-0.181385 z m 0.999939,0 a 0.18131517,0.18131517 0 0 1 0.181385,0.181385 0.18131517,0.18131517 0 0 1 -0.181385,0.181384 0.18131517,0.18131517 0 0 1 -0.181384,-0.181384 0.18131517,0.18131517 0 0 1 0.181384,-0.181385 z m 0.999939,0 a 0.18131517,0.18131517 0 0 1 0.181384,0.181385 0.18131517,0.18131517 0 0 1 -0.181384,0.181384 0.18131517,0.18131517 0 0 1 -0.181384,-0.181384 0.18131517,0.18131517 0 0 1 0.181384,-0.181385 z m 0.999939,0 a 0.18131517,0.18131517 0 0 1 0.181384,0.181385 0.18131517,0.18131517 0 0 1 -0.181384,0.181384 0.18131517,0.18131517 0 0 1 -0.181384,-0.181384 0.18131517,0.18131517 0 0 1 0.181384,-0.181385 z m 0.999939,0 a 0.18131517,0.18131517 0 0 1 0.181384,0.181385 0.18131517,0.18131517 0 0 1 -0.181384,0.181384 0.18131517,0.18131517 0 0 1 -0.181384,-0.181384 0.18131517,0.18131517 0 0 1 0.181384,-0.181385 z m -13.50977,0.9456789 a 0.23542412,0.23542412 0 0 1 0.235645,0.2356441 0.23542412,0.23542412 0 0 1 -0.235645,0.235128 0.23542412,0.23542412 0 0 1 -0.235644,-0.235128 0.23542412,0.23542412 0 0 1 0.235644,-0.2356441 z m 0.999939,0 a 0.23542412,0.23542412 0 0 1 0.235645,0.2356441 0.23542412,0.23542412 0 0 1 -0.235645,0.235128 0.23542412,0.23542412 0 0 1 -0.235644,-0.235128 0.23542412,0.23542412 0 0 1 0.235644,-0.2356441 z m 0.999939,0 a 0.23542412,0.23542412 0 0 1 0.235645,0.2356441 0.23542412,0.23542412 0 0 1 -0.235645,0.235128 0.23542412,0.23542412 0 0 1 -0.235127,-0.235128 0.23542412,0.23542412 0 0 1 0.235127,-0.2356441 z m 0.999939,0 a 0.23542412,0.23542412 0 0 1 0.235645,0.2356441 0.23542412,0.23542412 0 0 1 -0.235645,0.235128 0.23542412,0.23542412 0 0 1 -0.235127,-0.235128 0.23542412,0.23542412 0 0 1 0.235127,-0.2356441 z m 0.999939,0 A 0.23542412,0.23542412 0 0 1 20.080945,7.0000892 0.23542412,0.23542412 0 0 1 19.8453,7.2352172 0.23542412,0.23542412 0 0 1 19.610172,7.0000892 0.23542412,0.23542412 0 0 1 19.8453,6.7644451 Z m 1.000456,0 a 0.23542412,0.23542412 0 0 1 0.235128,0.2356441 0.23542412,0.23542412 0 0 1 -0.235128,0.235128 0.23542412,0.23542412 0 0 1 -0.235644,-0.235128 0.23542412,0.23542412 0 0 1 0.235644,-0.2356441 z m 0.999939,0 a 0.23542412,0.23542412 0 0 1 0.235128,0.2356441 0.23542412,0.23542412 0 0 1 -0.235128,0.235128 0.23542412,0.23542412 0 0 1 -0.235645,-0.235128 0.23542412,0.23542412 0 0 1 0.235645,-0.2356441 z m 0.999939,0 a 0.23542412,0.23542412 0 0 1 0.235128,0.2356441 0.23542412,0.23542412 0 0 1 -0.235128,0.235128 0.23542412,0.23542412 0 0 1 -0.235645,-0.235128 0.23542412,0.23542412 0 0 1 0.235645,-0.2356441 z m 0.999939,0 a 0.23542412,0.23542412 0 0 1 0.235128,0.2356441 0.23542412,0.23542412 0 0 1 -0.235128,0.235128 0.23542412,0.23542412 0 0 1 -0.235644,-0.235128 0.23542412,0.23542412 0 0 1 0.235644,-0.2356441 z m 0.999939,0 a 0.23542412,0.23542412 0 0 1 0.235644,0.2356441 0.23542412,0.23542412 0 0 1 -0.235644,0.235128 0.23542412,0.23542412 0 0 1 -0.235644,-0.235128 0.23542412,0.23542412 0 0 1 0.235644,-0.2356441 z m 0.999939,0 a 0.23542412,0.23542412 0 0 1 0.235644,0.2356441 0.23542412,0.23542412 0 0 1 -0.235644,0.235128 0.23542412,0.23542412 0 0 1 -0.235128,-0.235128 0.23542412,0.23542412 0 0 1 0.235128,-0.2356441 z m 0.999939,0 a 0.23542412,0.23542412 0 0 1 0.235644,0.2356441 0.23542412,0.23542412 0 0 1 -0.235644,0.235128 0.23542412,0.23542412 0 0 1 -0.235128,-0.235128 0.23542412,0.23542412 0 0 1 0.235128,-0.2356441 z m 0.999939,0 a 0.23542412,0.23542412 0 0 1 0.235644,0.2356441 0.23542412,0.23542412 0 0 1 -0.235644,0.235128 0.23542412,0.23542412 0 0 1 -0.235128,-0.235128 0.23542412,0.23542412 0 0 1 0.235128,-0.2356441 z m 0.999939,0 a 0.23542412,0.23542412 0 0 1 0.235644,0.2356441 0.23542412,0.23542412 0 0 1 -0.235644,0.235128 0.23542412,0.23542412 0 0 1 -0.235128,-0.235128 0.23542412,0.23542412 0 0 1 0.235128,-0.2356441 z m -13.490133,0.932243 a 0.30335295,0.30335295 0 0 1 0.303341,0.30334 0.30335295,0.30335295 0 0 1 -0.303341,0.3033411 0.30335295,0.30335295 0 0 1 -0.303341,-0.3033411 0.30335295,0.30335295 0 0 1 0.303341,-0.30334 z m 0.999939,0 a 0.30335295,0.30335295 0 0 1 0.303341,0.30334 0.30335295,0.30335295 0 0 1 -0.303341,0.3033411 0.30335295,0.30335295 0 0 1 -0.303341,-0.3033411 0.30335295,0.30335295 0 0 1 0.303341,-0.30334 z m 1.000456,0 a 0.30335295,0.30335295 0 0 1 0.30334,0.30334 0.30335295,0.30335295 0 0 1 -0.30334,0.3033411 0.30335295,0.30335295 0 0 1 -0.303341,-0.3033411 0.30335295,0.30335295 0 0 1 0.303341,-0.30334 z m 0.999939,0 a 0.30335295,0.30335295 0 0 1 0.30334,0.30334 0.30335295,0.30335295 0 0 1 -0.30334,0.3033411 0.30335295,0.30335295 0 0 1 -0.303341,-0.3033411 0.30335295,0.30335295 0 0 1 0.303341,-0.30334 z m 0.999939,0 a 0.30335295,0.30335295 0 0 1 0.30334,0.30334 0.30335295,0.30335295 0 0 1 -0.30334,0.3033411 0.30335295,0.30335295 0 0 1 -0.303341,-0.3033411 0.30335295,0.30335295 0 0 1 0.303341,-0.30334 z m 0.999939,0 a 0.30335295,0.30335295 0 0 1 0.30334,0.30334 0.30335295,0.30335295 0 0 1 -0.30334,0.3033411 0.30335295,0.30335295 0 0 1 -0.303341,-0.3033411 0.30335295,0.30335295 0 0 1 0.303341,-0.30334 z m 0.999939,0 a 0.30335295,0.30335295 0 0 1 0.30334,0.30334 0.30335295,0.30335295 0 0 1 -0.30334,0.3033411 0.30335295,0.30335295 0 0 1 -0.303341,-0.3033411 0.30335295,0.30335295 0 0 1 0.303341,-0.30334 z m 0.999939,0 a 0.30335295,0.30335295 0 0 1 0.30334,0.30334 0.30335295,0.30335295 0 0 1 -0.30334,0.3033411 0.30335295,0.30335295 0 0 1 -0.303341,-0.3033411 0.30335295,0.30335295 0 0 1 0.303341,-0.30334 z m 0.999939,0 a 0.30335295,0.30335295 0 0 1 0.303341,0.30334 0.30335295,0.30335295 0 0 1 -0.303341,0.3033411 0.30335295,0.30335295 0 0 1 -0.303341,-0.3033411 0.30335295,0.30335295 0 0 1 0.303341,-0.30334 z m 0.999939,0 a 0.30335295,0.30335295 0 0 1 0.303341,0.30334 0.30335295,0.30335295 0 0 1 -0.303341,0.3033411 0.30335295,0.30335295 0 0 1 -0.303341,-0.3033411 0.30335295,0.30335295 0 0 1 0.303341,-0.30334 z m 1.000455,0 a 0.30335295,0.30335295 0 0 1 0.303341,0.30334 0.30335295,0.30335295 0 0 1 -0.303341,0.3033411 0.30335295,0.30335295 0 0 1 -0.30334,-0.3033411 0.30335295,0.30335295 0 0 1 0.30334,-0.30334 z m 0.999939,0 a 0.30335295,0.30335295 0 0 1 0.303341,0.30334 0.30335295,0.30335295 0 0 1 -0.303341,0.3033411 0.30335295,0.30335295 0 0 1 -0.30334,-0.3033411 0.30335295,0.30335295 0 0 1 0.30334,-0.30334 z m 0.999939,0 a 0.30335295,0.30335295 0 0 1 0.303341,0.30334 0.30335295,0.30335295 0 0 1 -0.303341,0.3033411 0.30335295,0.30335295 0 0 1 -0.30334,-0.3033411 0.30335295,0.30335295 0 0 1 0.30334,-0.30334 z m 0.999939,0 a 0.30335295,0.30335295 0 0 1 0.303341,0.30334 0.30335295,0.30335295 0 0 1 -0.303341,0.3033411 0.30335295,0.30335295 0 0 1 -0.30334,-0.3033411 0.30335295,0.30335295 0 0 1 0.30334,-0.30334 z m 0.999939,0 a 0.30335295,0.30335295 0 0 1 0.303341,0.30334 0.30335295,0.30335295 0 0 1 -0.303341,0.3033411 0.30335295,0.30335295 0 0 1 -0.303341,-0.3033411 0.30335295,0.30335295 0 0 1 0.303341,-0.30334 z m -13.50977,0.9518801 a 0.35117647,0.35117647 0 0 1 0.3514,0.351399 0.35117647,0.35117647 0 0 1 -0.3514,0.3514 0.35117647,0.35117647 0 0 1 -0.351399,-0.3514 0.35117647,0.35117647 0 0 1 0.351399,-0.351399 z m 0.999939,0 a 0.35117647,0.35117647 0 0 1 0.3514,0.351399 0.35117647,0.35117647 0 0 1 -0.3514,0.3514 0.35117647,0.35117647 0 0 1 -0.351399,-0.3514 0.35117647,0.35117647 0 0 1 0.351399,-0.351399 z m 0.999939,0 a 0.35117647,0.35117647 0 0 1 0.3514,0.351399 0.35117647,0.35117647 0 0 1 -0.3514,0.3514 0.35117647,0.35117647 0 0 1 -0.350883,-0.3514 0.35117647,0.35117647 0 0 1 0.350883,-0.351399 z m 0.999939,0 a 0.35117647,0.35117647 0 0 1 0.3514,0.351399 0.35117647,0.35117647 0 0 1 -0.3514,0.3514 0.35117647,0.35117647 0 0 1 -0.350883,-0.3514 0.35117647,0.35117647 0 0 1 0.350883,-0.351399 z m 0.999939,0 a 0.35117647,0.35117647 0 0 1 0.3514,0.351399 0.35117647,0.35117647 0 0 1 -0.3514,0.3514 0.35117647,0.35117647 0 0 1 -0.350883,-0.3514 0.35117647,0.35117647 0 0 1 0.350883,-0.351399 z m 1.000456,0 a 0.35117647,0.35117647 0 0 1 0.350883,0.351399 0.35117647,0.35117647 0 0 1 -0.350883,0.3514 0.35117647,0.35117647 0 0 1 -0.3514,-0.3514 0.35117647,0.35117647 0 0 1 0.3514,-0.351399 z m 0.999939,0 a 0.35117647,0.35117647 0 0 1 0.350883,0.351399 0.35117647,0.35117647 0 0 1 -0.350883,0.3514 0.35117647,0.35117647 0 0 1 -0.3514,-0.3514 0.35117647,0.35117647 0 0 1 0.3514,-0.351399 z m 0.999939,0 a 0.35117647,0.35117647 0 0 1 0.350883,0.351399 0.35117647,0.35117647 0 0 1 -0.350883,0.3514 0.35117647,0.35117647 0 0 1 -0.3514,-0.3514 0.35117647,0.35117647 0 0 1 0.3514,-0.351399 z m 0.999939,0 a 0.35117647,0.35117647 0 0 1 0.350883,0.351399 0.35117647,0.35117647 0 0 1 -0.350883,0.3514 0.35117647,0.35117647 0 0 1 -0.351399,-0.3514 0.35117647,0.35117647 0 0 1 0.351399,-0.351399 z m 0.999939,0 a 0.35117647,0.35117647 0 0 1 0.3514,0.351399 0.35117647,0.35117647 0 0 1 -0.3514,0.3514 0.35117647,0.35117647 0 0 1 -0.3514,-0.3514 0.35117647,0.35117647 0 0 1 0.3514,-0.351399 z m 0.999939,0 a 0.35117647,0.35117647 0 0 1 0.3514,0.351399 0.35117647,0.35117647 0 0 1 -0.3514,0.3514 0.35117647,0.35117647 0 0 1 -0.350883,-0.3514 0.35117647,0.35117647 0 0 1 0.350883,-0.351399 z m 0.999939,0 a 0.35117647,0.35117647 0 0 1 0.3514,0.351399 0.35117647,0.35117647 0 0 1 -0.3514,0.3514 0.35117647,0.35117647 0 0 1 -0.350883,-0.3514 0.35117647,0.35117647 0 0 1 0.350883,-0.351399 z m 0.999939,0 a 0.35117647,0.35117647 0 0 1 0.3514,0.351399 0.35117647,0.35117647 0 0 1 -0.3514,0.3514 0.35117647,0.35117647 0 0 1 -0.350883,-0.3514 0.35117647,0.35117647 0 0 1 0.350883,-0.351399 z m 0.999939,0 a 0.35117647,0.35117647 0 0 1 0.351399,0.351399 0.35117647,0.35117647 0 0 1 -0.351399,0.3514 0.35117647,0.35117647 0 0 1 -0.350883,-0.3514 0.35117647,0.35117647 0 0 1 0.350883,-0.351399 z m -12.490194,0.943611 a 0.40784314,0.40784314 0 0 1 0.408244,0.407727 0.40784314,0.40784314 0 0 1 -0.408244,0.4077268 0.40784314,0.40784314 0 0 1 -0.407727,-0.4077268 0.40784314,0.40784314 0 0 1 0.407727,-0.407727 z m 1.000456,0 a 0.40784314,0.40784314 0 0 1 0.407727,0.407727 0.40784314,0.40784314 0 0 1 -0.407727,0.4077268 0.40784314,0.40784314 0 0 1 -0.408244,-0.4077268 0.40784314,0.40784314 0 0 1 0.408244,-0.407727 z m 0.999939,0 a 0.40784314,0.40784314 0 0 1 0.407727,0.407727 0.40784314,0.40784314 0 0 1 -0.407727,0.4077268 0.40784314,0.40784314 0 0 1 -0.408244,-0.4077268 0.40784314,0.40784314 0 0 1 0.408244,-0.407727 z m 0.999939,0 a 0.40784314,0.40784314 0 0 1 0.407727,0.407727 0.40784314,0.40784314 0 0 1 -0.407727,0.4077268 0.40784314,0.40784314 0 0 1 -0.407727,-0.4077268 0.40784314,0.40784314 0 0 1 0.407727,-0.407727 z m 0.999939,0 a 0.40784314,0.40784314 0 0 1 0.407727,0.407727 0.40784314,0.40784314 0 0 1 -0.407727,0.4077268 0.40784314,0.40784314 0 0 1 -0.407727,-0.4077268 0.40784314,0.40784314 0 0 1 0.407727,-0.407727 z m 0.999939,0 a 0.40784314,0.40784314 0 0 1 0.407727,0.407727 0.40784314,0.40784314 0 0 1 -0.407727,0.4077268 0.40784314,0.40784314 0 0 1 -0.407727,-0.4077268 0.40784314,0.40784314 0 0 1 0.407727,-0.407727 z m 0.999939,0 a 0.40784314,0.40784314 0 0 1 0.407727,0.407727 0.40784314,0.40784314 0 0 1 -0.407727,0.4077268 0.40784314,0.40784314 0 0 1 -0.407727,-0.4077268 0.40784314,0.40784314 0 0 1 0.407727,-0.407727 z m 0.999939,0 a 0.40784314,0.40784314 0 0 1 0.408244,0.407727 0.40784314,0.40784314 0 0 1 -0.408244,0.4077268 0.40784314,0.40784314 0 0 1 -0.407727,-0.4077268 0.40784314,0.40784314 0 0 1 0.407727,-0.407727 z m 0.999939,0 a 0.40784314,0.40784314 0 0 1 0.408244,0.407727 0.40784314,0.40784314 0 0 1 -0.408244,0.4077268 0.40784314,0.40784314 0 0 1 -0.407727,-0.4077268 0.40784314,0.40784314 0 0 1 0.407727,-0.407727 z m 1.000455,0 a 0.40784314,0.40784314 0 0 1 0.407727,0.407727 0.40784314,0.40784314 0 0 1 -0.407727,0.4077268 0.40784314,0.40784314 0 0 1 -0.408243,-0.4077268 0.40784314,0.40784314 0 0 1 0.408243,-0.407727 z m 0.999939,0 a 0.40784314,0.40784314 0 0 1 0.407727,0.407727 0.40784314,0.40784314 0 0 1 -0.407727,0.4077268 0.40784314,0.40784314 0 0 1 -0.408244,-0.4077268 0.40784314,0.40784314 0 0 1 0.408244,-0.407727 z m 0.999939,0 a 0.40784314,0.40784314 0 0 1 0.407727,0.407727 0.40784314,0.40784314 0 0 1 -0.407727,0.4077268 0.40784314,0.40784314 0 0 1 -0.407727,-0.4077268 0.40784314,0.40784314 0 0 1 0.407727,-0.407727 z m 0.999939,0 a 0.40784314,0.40784314 0 0 1 0.407727,0.407727 0.40784314,0.40784314 0 0 1 -0.407727,0.4077268 0.40784314,0.40784314 0 0 1 -0.407727,-0.4077268 0.40784314,0.40784314 0 0 1 0.407727,-0.407727 z m 0.999939,0 a 0.40784314,0.40784314 0 0 1 0.407727,0.407727 0.40784314,0.40784314 0 0 1 -0.407727,0.4077268 0.40784314,0.40784314 0 0 1 -0.407727,-0.4077268 0.40784314,0.40784314 0 0 1 0.407727,-0.407727 z m -13.50977,0.9399948 a 0.46803921,0.46803921 0 0 1 0.468189,0.467671 0.46803921,0.46803921 0 0 1 -0.468189,0.468189 0.46803921,0.46803921 0 0 1 -0.468188,-0.468189 0.46803921,0.46803921 0 0 1 0.468188,-0.467671 z m 0.999939,0 a 0.46803921,0.46803921 0 0 1 0.468189,0.467671 0.46803921,0.46803921 0 0 1 -0.468189,0.468189 0.46803921,0.46803921 0 0 1 -0.468188,-0.468189 0.46803921,0.46803921 0 0 1 0.468188,-0.467671 z m 0.999939,0 a 0.46803921,0.46803921 0 0 1 0.468189,0.467671 0.46803921,0.46803921 0 0 1 -0.468189,0.468189 0.46803921,0.46803921 0 0 1 -0.468188,-0.468189 0.46803921,0.46803921 0 0 1 0.468188,-0.467671 z m 0.999939,0 a 0.46803921,0.46803921 0 0 1 0.468189,0.467671 0.46803921,0.46803921 0 0 1 -0.468189,0.468189 0.46803921,0.46803921 0 0 1 -0.467671,-0.468189 0.46803921,0.46803921 0 0 1 0.467671,-0.467671 z m 0.999939,0 a 0.46803921,0.46803921 0 0 1 0.468189,0.467671 0.46803921,0.46803921 0 0 1 -0.468189,0.468189 0.46803921,0.46803921 0 0 1 -0.467671,-0.468189 0.46803921,0.46803921 0 0 1 0.467671,-0.467671 z m 1.000456,0 a 0.46803921,0.46803921 0 0 1 0.467672,0.467671 0.46803921,0.46803921 0 0 1 -0.467672,0.468189 0.46803921,0.46803921 0 0 1 -0.468188,-0.468189 0.46803921,0.46803921 0 0 1 0.468188,-0.467671 z m 0.999939,0 a 0.46803921,0.46803921 0 0 1 0.467672,0.467671 0.46803921,0.46803921 0 0 1 -0.467672,0.468189 0.46803921,0.46803921 0 0 1 -0.468188,-0.468189 0.46803921,0.46803921 0 0 1 0.468188,-0.467671 z m 0.999939,0 a 0.46803921,0.46803921 0 0 1 0.467672,0.467671 0.46803921,0.46803921 0 0 1 -0.467672,0.468189 0.46803921,0.46803921 0 0 1 -0.468189,-0.468189 0.46803921,0.46803921 0 0 1 0.468189,-0.467671 z m 0.999939,0 a 0.46803921,0.46803921 0 0 1 0.468189,0.467671 0.46803921,0.46803921 0 0 1 -0.468189,0.468189 0.46803921,0.46803921 0 0 1 -0.468188,-0.468189 0.46803921,0.46803921 0 0 1 0.468188,-0.467671 z m 0.999939,0 a 0.46803921,0.46803921 0 0 1 0.468188,0.467671 0.46803921,0.46803921 0 0 1 -0.468188,0.468189 0.46803921,0.46803921 0 0 1 -0.468188,-0.468189 0.46803921,0.46803921 0 0 1 0.468188,-0.467671 z m 0.999939,0 a 0.46803921,0.46803921 0 0 1 0.468188,0.467671 0.46803921,0.46803921 0 0 1 -0.468188,0.468189 0.46803921,0.46803921 0 0 1 -0.468189,-0.468189 0.46803921,0.46803921 0 0 1 0.468189,-0.467671 z m 0.999939,0 a 0.46803921,0.46803921 0 0 1 0.468188,0.467671 0.46803921,0.46803921 0 0 1 -0.468188,0.468189 0.46803921,0.46803921 0 0 1 -0.467672,-0.468189 0.46803921,0.46803921 0 0 1 0.467672,-0.467671 z m 0.999939,0 a 0.46803921,0.46803921 0 0 1 0.468188,0.467671 0.46803921,0.46803921 0 0 1 -0.468188,0.468189 0.46803921,0.46803921 0 0 1 -0.467672,-0.468189 0.46803921,0.46803921 0 0 1 0.467672,-0.467671 z m 0.999939,0 a 0.46803921,0.46803921 0 0 1 0.468188,0.467671 0.46803921,0.46803921 0 0 1 -0.468188,0.468189 0.46803921,0.46803921 0 0 1 -0.467672,-0.468189 0.46803921,0.46803921 0 0 1 0.467672,-0.467671 z m -12.490194,0.980302 a 0.48745099,0.48745099 0 0 1 0.487826,0.487308 0.48745099,0.48745099 0 0 1 -0.487826,0.487826 0.48745099,0.48745099 0 0 1 -0.487309,-0.487826 0.48745099,0.48745099 0 0 1 0.487309,-0.487308 z m 1.000456,0 a 0.48745099,0.48745099 0 0 1 0.487308,0.487308 0.48745099,0.48745099 0 0 1 -0.487308,0.487826 0.48745099,0.48745099 0 0 1 -0.487826,-0.487826 0.48745099,0.48745099 0 0 1 0.487826,-0.487308 z m 0.999939,0 a 0.48745099,0.48745099 0 0 1 0.487308,0.487308 0.48745099,0.48745099 0 0 1 -0.487308,0.487826 0.48745099,0.48745099 0 0 1 -0.487826,-0.487826 0.48745099,0.48745099 0 0 1 0.487826,-0.487308 z m 0.999939,0 a 0.48745099,0.48745099 0 0 1 0.487309,0.487308 0.48745099,0.48745099 0 0 1 -0.487309,0.487826 0.48745099,0.48745099 0 0 1 -0.487309,-0.487826 0.48745099,0.48745099 0 0 1 0.487309,-0.487308 z m 0.999939,0 a 0.48745099,0.48745099 0 0 1 0.487308,0.487308 0.48745099,0.48745099 0 0 1 -0.487308,0.487826 0.48745099,0.48745099 0 0 1 -0.487309,-0.487826 0.48745099,0.48745099 0 0 1 0.487309,-0.487308 z m 0.999939,0 a 0.48745099,0.48745099 0 0 1 0.487308,0.487308 0.48745099,0.48745099 0 0 1 -0.487308,0.487826 0.48745099,0.48745099 0 0 1 -0.487309,-0.487826 0.48745099,0.48745099 0 0 1 0.487309,-0.487308 z m 0.999939,0 a 0.48745099,0.48745099 0 0 1 0.487308,0.487308 0.48745099,0.48745099 0 0 1 -0.487308,0.487826 0.48745099,0.48745099 0 0 1 -0.487309,-0.487826 0.48745099,0.48745099 0 0 1 0.487309,-0.487308 z m 0.999939,0 a 0.48745099,0.48745099 0 0 1 0.487825,0.487308 0.48745099,0.48745099 0 0 1 -0.487825,0.487826 0.48745099,0.48745099 0 0 1 -0.487309,-0.487826 0.48745099,0.48745099 0 0 1 0.487309,-0.487308 z m 0.999939,0 a 0.48745099,0.48745099 0 0 1 0.487825,0.487308 0.48745099,0.48745099 0 0 1 -0.487825,0.487826 0.48745099,0.48745099 0 0 1 -0.487309,-0.487826 0.48745099,0.48745099 0 0 1 0.487309,-0.487308 z m 1.000455,0 a 0.48745099,0.48745099 0 0 1 0.487309,0.487308 0.48745099,0.48745099 0 0 1 -0.487309,0.487826 0.48745099,0.48745099 0 0 1 -0.487825,-0.487826 0.48745099,0.48745099 0 0 1 0.487825,-0.487308 z m 0.999939,0 a 0.48745099,0.48745099 0 0 1 0.487309,0.487308 0.48745099,0.48745099 0 0 1 -0.487309,0.487826 0.48745099,0.48745099 0 0 1 -0.487825,-0.487826 0.48745099,0.48745099 0 0 1 0.487825,-0.487308 z m 0.999939,0 a 0.48745099,0.48745099 0 0 1 0.487309,0.487308 0.48745099,0.48745099 0 0 1 -0.487309,0.487826 0.48745099,0.48745099 0 0 1 -0.487825,-0.487826 0.48745099,0.48745099 0 0 1 0.487825,-0.487308 z m 0.999939,0 a 0.48745099,0.48745099 0 0 1 0.487309,0.487308 0.48745099,0.48745099 0 0 1 -0.487309,0.487826 0.48745099,0.48745099 0 0 1 -0.487309,-0.487826 0.48745099,0.48745099 0 0 1 0.487309,-0.487308 z m 0.999939,0 a 0.48745099,0.48745099 0 0 1 0.487309,0.487308 0.48745099,0.48745099 0 0 1 -0.487309,0.487826 0.48745099,0.48745099 0 0 1 -0.487309,-0.487826 0.48745099,0.48745099 0 0 1 0.487309,-0.487308 z m -14.009997,1.727026 a 0.5551765,0.5551765 0 0 1 -0.09457,0.138493 0.63157254,0.63157254 0 0 1 0.104386,-0.0098 0.63157254,0.63157254 0 0 1 0.08113,0.0057 0.5551765,0.5551765 0 0 1 -0.09095,-0.134359 z m 1.000455,0 a 0.5551765,0.5551765 0 0 1 -0.0956,0.138493 0.63157254,0.63157254 0 0 1 0.104903,-0.0098 0.63157254,0.63157254 0 0 1 0.08113,0.0057 0.5551765,0.5551765 0 0 1 -0.09043,-0.134359 z m 0.999422,0 a 0.5551765,0.5551765 0 0 1 -0.09457,0.138493 0.63157254,0.63157254 0 0 1 0.104904,-0.0098 0.63157254,0.63157254 0 0 1 0.08061,0.0057 0.5551765,0.5551765 0 0 1 -0.09095,-0.134359 z m 1.000456,0 a 0.5551765,0.5551765 0 0 1 -0.09508,0.138493 0.63157254,0.63157254 0 0 1 0.104903,-0.0098 0.63157254,0.63157254 0 0 1 0.08062,0.0057 0.5551765,0.5551765 0 0 1 -0.09043,-0.134359 z m 3.999756,0 a 0.5551765,0.5551765 0 0 1 -0.09457,0.138493 0.63157254,0.63157254 0 0 1 0.104386,-0.0098 0.63157254,0.63157254 0 0 1 0.08113,0.0057 0.5551765,0.5551765 0 0 1 -0.09095,-0.134359 z m 1.000456,0 a 0.5551765,0.5551765 0 0 1 -0.09509,0.138493 0.63157254,0.63157254 0 0 1 0.104387,-0.0098 0.63157254,0.63157254 0 0 1 0.08113,0.0057 0.5551765,0.5551765 0 0 1 -0.09043,-0.134359 z m 0.999422,0 a 0.5551765,0.5551765 0 0 1 -0.09457,0.138493 0.63157254,0.63157254 0 0 1 0.104387,-0.0098 0.63157254,0.63157254 0 0 1 0.08113,0.0057 0.5551765,0.5551765 0 0 1 -0.09095,-0.134359 z m 1.000456,0 a 0.5551765,0.5551765 0 0 1 -0.09509,0.138493 0.63157254,0.63157254 0 0 1 0.104903,-0.0098 0.63157254,0.63157254 0 0 1 0.08062,0.0057 0.5551765,0.5551765 0 0 1 -0.09043,-0.134359 z m 0.999422,0 a 0.5551765,0.5551765 0 0 1 -0.09457,0.138493 0.63157254,0.63157254 0 0 1 0.104903,-0.0098 0.63157254,0.63157254 0 0 1 0.08062,0.0057 0.5551765,0.5551765 0 0 1 -0.09095,-0.134359 z m 1.000456,0 a 0.5551765,0.5551765 0 0 1 -0.09508,0.138493 0.63157254,0.63157254 0 0 1 0.104903,-0.0098 0.63157254,0.63157254 0 0 1 0.08061,0.0057 0.5551765,0.5551765 0 0 1 -0.09043,-0.134359 z m -8.000029,5.17e-4 a 0.5551765,0.5551765 0 0 1 -0.09509,0.137976 0.63157254,0.63157254 0 0 1 0.104903,-0.0098 0.63157254,0.63157254 0 0 1 0.08062,0.0057 0.5551765,0.5551765 0 0 1 -0.09043,-0.133842 z m 0.999939,0 a 0.5551765,0.5551765 0 0 1 -0.09509,0.137976 0.63157254,0.63157254 0 0 1 0.104903,-0.0098 0.63157254,0.63157254 0 0 1 0.08113,0.0057 0.5551765,0.5551765 0 0 1 -0.09095,-0.133842 z m 0.999939,0 a 0.5551765,0.5551765 0 0 1 -0.09509,0.137976 0.63157254,0.63157254 0 0 1 0.104903,-0.0098 0.63157254,0.63157254 0 0 1 0.08113,0.0057 0.5551765,0.5551765 0 0 1 -0.09095,-0.133842 z m 7.00009,0 a 0.5551765,0.5551765 0 0 1 -0.09509,0.137976 0.63157254,0.63157254 0 0 1 0.104903,-0.0098 0.63157254,0.63157254 0 0 1 0.08113,0.0057 0.5551765,0.5551765 0 0 1 -0.09095,-0.133842 z m 0.999939,0 a 0.5551765,0.5551765 0 0 1 -0.09509,0.137976 0.63157254,0.63157254 0 0 1 0.104903,-0.0098 0.63157254,0.63157254 0 0 1 0.08113,0.0057 0.5551765,0.5551765 0 0 1 -0.09095,-0.133842 z m -13.431222,0.310058 a 0.5551765,0.5551765 0 0 1 -0.06873,0.0052 0.5551765,0.5551765 0 0 1 -0.04444,-0.0031 0.63157254,0.63157254 0 0 1 0.05478,0.06356 0.63157254,0.63157254 0 0 1 0.05839,-0.06563 z m 0.999939,0 a 0.5551765,0.5551765 0 0 1 -0.06873,0.0052 0.5551765,0.5551765 0 0 1 -0.04444,-0.0031 0.63157254,0.63157254 0 0 1 0.05478,0.06356 0.63157254,0.63157254 0 0 1 0.05839,-0.06563 z m 0.999939,0 a 0.5551765,0.5551765 0 0 1 -0.06873,0.0052 0.5551765,0.5551765 0 0 1 -0.04444,-0.0031 0.63157254,0.63157254 0 0 1 0.05529,0.06356 0.63157254,0.63157254 0 0 1 0.05788,-0.06563 z m 0.999939,0 a 0.5551765,0.5551765 0 0 1 -0.06873,0.0052 0.5551765,0.5551765 0 0 1 -0.04444,-0.0031 0.63157254,0.63157254 0 0 1 0.05529,0.06356 0.63157254,0.63157254 0 0 1 0.05788,-0.06563 z m 0.999939,0 a 0.5551765,0.5551765 0 0 1 -0.06873,0.0052 0.5551765,0.5551765 0 0 1 -0.04444,-0.0031 0.63157254,0.63157254 0 0 1 0.05529,0.06356 0.63157254,0.63157254 0 0 1 0.05788,-0.06563 z m 0.999939,0 a 0.5551765,0.5551765 0 0 1 -0.06821,0.0052 0.5551765,0.5551765 0 0 1 -0.04496,-0.0031 0.63157254,0.63157254 0 0 1 0.05529,0.06305 0.63157254,0.63157254 0 0 1 0.05788,-0.06511 z m 1.000456,0 a 0.5551765,0.5551765 0 0 1 -0.06873,0.0052 0.5551765,0.5551765 0 0 1 -0.04496,-0.0031 0.63157254,0.63157254 0 0 1 0.05529,0.06356 0.63157254,0.63157254 0 0 1 0.05839,-0.06563 z m 0.999939,0 a 0.5551765,0.5551765 0 0 1 -0.06873,0.0052 0.5551765,0.5551765 0 0 1 -0.04496,-0.0031 0.63157254,0.63157254 0 0 1 0.05529,0.06356 0.63157254,0.63157254 0 0 1 0.05839,-0.06563 z m 0.999939,0 a 0.5551765,0.5551765 0 0 1 -0.06873,0.0052 0.5551765,0.5551765 0 0 1 -0.04496,-0.0031 0.63157254,0.63157254 0 0 1 0.05529,0.06356 0.63157254,0.63157254 0 0 1 0.05839,-0.06563 z m 0.999939,0 a 0.5551765,0.5551765 0 0 1 -0.06873,0.0052 0.5551765,0.5551765 0 0 1 -0.04444,-0.0031 0.63157254,0.63157254 0 0 1 0.05478,0.06356 0.63157254,0.63157254 0 0 1 0.05839,-0.06563 z m 0.999938,0 a 0.5551765,0.5551765 0 0 1 -0.06873,0.0052 0.5551765,0.5551765 0 0 1 -0.04444,-0.0031 0.63157254,0.63157254 0 0 1 0.05478,0.06356 0.63157254,0.63157254 0 0 1 0.05839,-0.06563 z m 0.999939,0 a 0.5551765,0.5551765 0 0 1 -0.06873,0.0052 0.5551765,0.5551765 0 0 1 -0.04444,-0.0031 0.63157254,0.63157254 0 0 1 0.05529,0.06356 0.63157254,0.63157254 0 0 1 0.05788,-0.06563 z m 0.999939,0 a 0.5551765,0.5551765 0 0 1 -0.06873,0.0052 0.5551765,0.5551765 0 0 1 -0.04444,-0.0031 0.63157254,0.63157254 0 0 1 0.05529,0.06356 0.63157254,0.63157254 0 0 1 0.05788,-0.06563 z m 0.999939,0 a 0.5551765,0.5551765 0 0 1 -0.06873,0.0052 0.5551765,0.5551765 0 0 1 -0.04444,-0.0031 0.63157254,0.63157254 0 0 1 0.05529,0.06305 0.63157254,0.63157254 0 0 1 0.05788,-0.06511 z m 0.999939,0 a 0.5551765,0.5551765 0 0 1 -0.06821,0.0052 0.5551765,0.5551765 0 0 1 -0.04496,-0.0031 0.63157254,0.63157254 0 0 1 0.05529,0.06305 0.63157254,0.63157254 0 0 1 0.05788,-0.06511 z" />
  </g>
</svg>
