<?xml version="1.0" encoding="UTF-8" standalone="no"?>
<!-- Created with Inkscape (http://www.inkscape.org/) -->

<svg
   width="15.000118mm"
   height="15.00001mm"
   viewBox="0 0 15.000118 15.00001"
   version="1.1"
   id="svg1"
   inkscape:version="1.3.2 (091e20e, 2023-11-25, custom)"
   sodipodi:docname="trame.svg"
   xmlns:inkscape="http://www.inkscape.org/namespaces/inkscape"
   xmlns:sodipodi="http://sodipodi.sourceforge.net/DTD/sodipodi-0.dtd"
   xmlns:xlink="http://www.w3.org/1999/xlink"
   xmlns="http://www.w3.org/2000/svg"
   xmlns:svg="http://www.w3.org/2000/svg">
  <sodipodi:namedview
     id="namedview1"
     pagecolor="#505050"
     bordercolor="#eeeeee"
     borderopacity="1"
     inkscape:showpageshadow="0"
     inkscape:pageopacity="0"
     inkscape:pagecheckerboard="0"
     inkscape:deskcolor="#505050"
     inkscape:document-units="mm"
     showguides="true"
     inkscape:zoom="1.0343421"
     inkscape:cx="286.65565"
     inkscape:cy="98.130011"
     inkscape:window-width="1920"
     inkscape:window-height="1017"
     inkscape:window-x="-8"
     inkscape:window-y="-7"
     inkscape:window-maximized="1"
     inkscape:current-layer="layer1">
    <sodipodi:guide
       position="14.999881,282.80317"
       orientation="-1,0"
       id="guide2"
       inkscape:locked="false"
       inkscape:label=""
       inkscape:color="rgb(0,134,229)" />
    <sodipodi:guide
       position="19.916399,266.99999"
       orientation="0,1"
       id="guide3"
       inkscape:locked="false"
       inkscape:label=""
       inkscape:color="rgb(0,134,229)" />
    <sodipodi:guide
       position="-0.00011864012,266.99999"
       orientation="-1,0"
       id="guide4"
       inkscape:locked="false"
       inkscape:label=""
       inkscape:color="rgb(0,134,229)" />
    <sodipodi:guide
       position="12.11454,281.99999"
       orientation="0,1"
       id="guide5"
       inkscape:locked="false"
       inkscape:label=""
       inkscape:color="rgb(0,134,229)" />
    <sodipodi:guide
       position="44.999881,275.38501"
       orientation="-1,0"
       id="guide1"
       inkscape:locked="false"
       inkscape:label=""
       inkscape:color="rgb(0,134,229)" />
    <sodipodi:guide
       position="29.999881,300.70797"
       orientation="-1,0"
       id="guide6"
       inkscape:locked="false"
       inkscape:label=""
       inkscape:color="rgb(0,134,229)" />
  </sodipodi:namedview>
  <defs
     id="defs1">
    <linearGradient
       id="linearGradient8"
       inkscape:collect="always">
      <stop
         style="stop-color:#d0084a;stop-opacity:1;"
         offset="0"
         id="stop10" />
      <stop
         style="stop-color:#e7155b;stop-opacity:1;"
         offset="0.18871151"
         id="stop11" />
      <stop
         style="stop-color:#fe236c;stop-opacity:1;"
         offset="1"
         id="stop9" />
    </linearGradient>
    <linearGradient
       inkscape:collect="always"
       xlink:href="#linearGradient8"
       id="linearGradient9"
       x1="45"
       y1="30"
       x2="45.000237"
       y2="-15"
       gradientUnits="userSpaceOnUse"
       gradientTransform="translate(-2.36e-4,30.000001)" />
  </defs>
  <g
     inkscape:label="Calque 1"
     inkscape:groupmode="layer"
     id="layer1"
     transform="translate(-15.000119)">
    <path
       id="rect6-2"
       style="fill:url(#linearGradient9);fill-opacity:1;stroke-width:0.1;stroke-linecap:square;stroke-linejoin:round;stroke-miterlimit:2.7;paint-order:stroke markers fill"
       d="m 30.000236,0 v 30.000236 0.476457 9.24388 20.279899 c 0.29422,0 0.588441,-0.112501 0.813904,-0.337964 l 8.68164,-8.68164 h 5.17e-4 l 4.690153,-4.690153 c 0.225331,-0.225331 0.519343,-0.337833 0.813387,-0.337964 h 5.17e-4 c 0.294045,1.31e-4 0.588057,0.112633 0.813387,0.337964 l 4.690153,4.690153 h 5.17e-4 l 8.68164,8.68164 c 0.225463,0.225463 0.519686,0.337964 0.813904,0.337964 V 39.720573 30.476693 30.000236 0 Z"
       inkscape:export-filename="..\..\PersonalWebsite\site\src\assets\trianglepattern.svg"
       inkscape:export-xdpi="54.187172"
       inkscape:export-ydpi="54.187172"
       sodipodi:insensitive="true" />
    <path
       id="rect1190-3"
       style="fill:#24b0a9;fill-opacity:1;stroke:none;stroke-width:0.1;stroke-linecap:square;stroke-linejoin:round;stroke-miterlimit:2.7;paint-order:stroke markers fill"
       d="m 2.0769104e-7,15.000002 v 6.82439 A 0.23542412,0.23542412 0 0 1 0.08061521,22.000091 0.23542412,0.23542412 0 0 1 2.0769104e-7,22.171657 V 23.68526 A 0.35117647,0.35117647 0 0 1 0.19637061,23.999969 0.35117647,0.35117647 0 0 1 2.0769104e-7,24.314679 v 0.489376 A 0.40784314,0.40784314 0 0 1 0.35501731,24.592181 0.40784314,0.40784314 0 0 1 0.7632611,24.999908 0.40784314,0.40784314 0 0 1 0.35501731,25.407635 0.40784314,0.40784314 0 0 1 2.0769104e-7,25.195762 v 0.377755 A 0.46803921,0.46803921 0 0 1 0.31367611,25.999847 0.46803921,0.46803921 0 0 1 2.0769104e-7,26.440131 v 0.24908 A 0.48745099,0.48745099 0 0 1 0.35501731,26.512478 0.48745099,0.48745099 0 0 1 0.8428428,26.999786 0.48745099,0.48745099 0 0 1 0.35501731,27.487612 0.48745099,0.48745099 0 0 1 2.0769104e-7,27.310878 v 0.162781 A 0.5551765,0.5551765 0 0 1 0.34571551,27.75943 0.5551765,0.5551765 0 0 1 0.8454266,27.44472 a 0.5551765,0.5551765 0 0 1 0.5002279,0.31471 0.5551765,0.5551765 0 0 1 0.4997111,-0.31471 0.5551765,0.5551765 0 0 1 0.5002279,0.31471 0.5551765,0.5551765 0 0 1 0.4997111,-0.31471 0.5551765,0.5551765 0 0 1 0.5002278,0.31471 0.5551765,0.5551765 0 0 1 0.4997111,-0.31471 0.5551765,0.5551765 0 0 1 0.5002279,0.31471 0.5551765,0.5551765 0 0 1 0.4997111,-0.31471 0.5551765,0.5551765 0 0 1 0.500745,0.31471 0.5551765,0.5551765 0 0 1 0.499711,-0.31471 0.5551765,0.5551765 0 0 1 0.500228,0.31471 0.5551765,0.5551765 0 0 1 0.499711,-0.31471 0.5551765,0.5551765 0 0 1 0.500228,0.31471 0.5551765,0.5551765 0 0 1 0.499711,-0.31471 0.5551765,0.5551765 0 0 1 0.500227,0.31471 0.5551765,0.5551765 0 0 1 0.499712,-0.31471 0.5551765,0.5551765 0 0 1 0.500227,0.31471 0.5551765,0.5551765 0 0 1 0.499712,-0.31471 0.5551765,0.5551765 0 0 1 0.5002275,0.31471 0.5551765,0.5551765 0 0 1 0.499712,-0.31471 0.5551765,0.5551765 0 0 1 0.500228,0.31471 0.5551765,0.5551765 0 0 1 0.499711,-0.31471 0.5551765,0.5551765 0 0 1 0.500228,0.31471 0.5551765,0.5551765 0 0 1 0.499711,-0.31471 0.5551765,0.5551765 0 0 1 0.500744,0.31471 0.5551765,0.5551765 0 0 1 0.499195,-0.31471 0.5551765,0.5551765 0 0 1 0.500744,0.31471 0.5551765,0.5551765 0 0 1 0.499711,-0.31471 0.5551765,0.5551765 0 0 1 0.154513,0.02894 v -0.162781 a 0.48745099,0.48745099 0 0 1 -0.132292,-0.311092 0.48745099,0.48745099 0 0 1 0.132292,-0.310575 v -0.249597 a 0.46803921,0.46803921 0 0 1 -0.154513,0.02842 0.46803921,0.46803921 0 0 1 -0.468188,-0.468189 0.46803921,0.46803921 0 0 1 0.468188,-0.467671 0.46803921,0.46803921 0 0 1 0.154513,0.04134 v -0.377753 a 0.40784314,0.40784314 0 0 1 -0.05271,-0.195854 0.40784314,0.40784314 0 0 1 0.05271,-0.195853 v -0.489376 a 0.35117647,0.35117647 0 0 1 -0.154513,0.03669 0.35117647,0.35117647 0 0 1 -0.351399,-0.3514 0.35117647,0.35117647 0 0 1 0.351399,-0.3514 0.35117647,0.35117647 0 0 1 0.154513,0.03669 v -1.513602 a 0.23542412,0.23542412 0 0 1 -0.154513,0.06356 0.23542412,0.23542412 0 0 1 -0.235644,-0.235128 0.23542412,0.23542412 0 0 1 0.235644,-0.235644 0.23542412,0.23542412 0 0 1 0.154513,0.05994 v -6.82439 z M 0.35501731,20.818768 a 0.18131517,0.18131517 0 0 1 0.1813843,0.181385 0.18131517,0.18131517 0 0 1 -0.1813843,0.181384 0.18131517,0.18131517 0 0 1 -0.1813843,-0.181384 0.18131517,0.18131517 0 0 1 0.1813843,-0.181385 z m 0.99993899,0 a 0.18131517,0.18131517 0 0 1 0.1813842,0.181385 0.18131517,0.18131517 0 0 1 -0.1813842,0.181384 0.18131517,0.18131517 0 0 1 -0.1808676,-0.181384 0.18131517,0.18131517 0 0 1 0.1808676,-0.181385 z m 1.0004557,0 A 0.18131517,0.18131517 0 0 1 2.5362795,21.000153 0.18131517,0.18131517 0 0 1 2.355412,21.181537 0.18131517,0.18131517 0 0 1 2.1740277,21.000153 0.18131517,0.18131517 0 0 1 2.355412,20.818768 Z m 0.9999389,0 a 0.18131517,0.18131517 0 0 1 0.1813843,0.181385 0.18131517,0.18131517 0 0 1 -0.1813843,0.181384 0.18131517,0.18131517 0 0 1 -0.1813842,-0.181384 0.18131517,0.18131517 0 0 1 0.1813842,-0.181385 z m 0.999939,0 a 0.18131517,0.18131517 0 0 1 0.1813843,0.181385 0.18131517,0.18131517 0 0 1 -0.1813843,0.181384 0.18131517,0.18131517 0 0 1 -0.1813843,-0.181384 0.18131517,0.18131517 0 0 1 0.1813843,-0.181385 z m 0.9999386,0 a 0.18131517,0.18131517 0 0 1 0.181385,0.181385 0.18131517,0.18131517 0 0 1 -0.181385,0.181384 0.18131517,0.18131517 0 0 1 -0.181384,-0.181384 0.18131517,0.18131517 0 0 1 0.181384,-0.181385 z m 0.999939,0 a 0.18131517,0.18131517 0 0 1 0.181385,0.181385 0.18131517,0.18131517 0 0 1 -0.181385,0.181384 0.18131517,0.18131517 0 0 1 -0.181384,-0.181384 0.18131517,0.18131517 0 0 1 0.181384,-0.181385 z m 0.999939,0 a 0.18131517,0.18131517 0 0 1 0.181385,0.181385 0.18131517,0.18131517 0 0 1 -0.181385,0.181384 0.18131517,0.18131517 0 0 1 -0.181384,-0.181384 0.18131517,0.18131517 0 0 1 0.181384,-0.181385 z m 0.999939,0 a 0.18131517,0.18131517 0 0 1 0.181385,0.181385 0.18131517,0.18131517 0 0 1 -0.181385,0.181384 0.18131517,0.18131517 0 0 1 -0.181384,-0.181384 0.18131517,0.18131517 0 0 1 0.181384,-0.181385 z m 0.999939,0 a 0.18131517,0.18131517 0 0 1 0.181385,0.181385 0.18131517,0.18131517 0 0 1 -0.181385,0.181384 0.18131517,0.18131517 0 0 1 -0.180867,-0.181384 0.18131517,0.18131517 0 0 1 0.180867,-0.181385 z m 1.0004555,0 a 0.18131517,0.18131517 0 0 1 0.180868,0.181385 0.18131517,0.18131517 0 0 1 -0.180868,0.181384 0.18131517,0.18131517 0 0 1 -0.181384,-0.181384 0.18131517,0.18131517 0 0 1 0.181384,-0.181385 z m 0.99994,0 a 0.18131517,0.18131517 0 0 1 0.181385,0.181385 0.18131517,0.18131517 0 0 1 -0.181385,0.181384 0.18131517,0.18131517 0 0 1 -0.181384,-0.181384 0.18131517,0.18131517 0 0 1 0.181384,-0.181385 z m 0.999939,0 a 0.18131517,0.18131517 0 0 1 0.181384,0.181385 0.18131517,0.18131517 0 0 1 -0.181384,0.181384 0.18131517,0.18131517 0 0 1 -0.181384,-0.181384 0.18131517,0.18131517 0 0 1 0.181384,-0.181385 z m 0.999939,0 a 0.18131517,0.18131517 0 0 1 0.181384,0.181385 0.18131517,0.18131517 0 0 1 -0.181384,0.181384 0.18131517,0.18131517 0 0 1 -0.181384,-0.181384 0.18131517,0.18131517 0 0 1 0.181384,-0.181385 z m 0.999939,0 a 0.18131517,0.18131517 0 0 1 0.181384,0.181385 0.18131517,0.18131517 0 0 1 -0.181384,0.181384 0.18131517,0.18131517 0 0 1 -0.181384,-0.181384 0.18131517,0.18131517 0 0 1 0.181384,-0.181385 z M 0.8454266,21.764447 a 0.23542412,0.23542412 0 0 1 0.2356446,0.235644 0.23542412,0.23542412 0 0 1 -0.2356446,0.235128 0.23542412,0.23542412 0 0 1 -0.2356445,-0.235128 0.23542412,0.23542412 0 0 1 0.2356445,-0.235644 z m 0.999939,0 a 0.23542412,0.23542412 0 0 1 0.2356445,0.235644 0.23542412,0.23542412 0 0 1 -0.2356445,0.235128 0.23542412,0.23542412 0 0 1 -0.2356445,-0.235128 0.23542412,0.23542412 0 0 1 0.2356445,-0.235644 z m 0.999939,0 a 0.23542412,0.23542412 0 0 1 0.2356445,0.235644 0.23542412,0.23542412 0 0 1 -0.2356445,0.235128 0.23542412,0.23542412 0 0 1 -0.2351278,-0.235128 0.23542412,0.23542412 0 0 1 0.2351278,-0.235644 z m 0.9999389,0 a 0.23542412,0.23542412 0 0 1 0.2356446,0.235644 0.23542412,0.23542412 0 0 1 -0.2356446,0.235128 0.23542412,0.23542412 0 0 1 -0.2351277,-0.235128 0.23542412,0.23542412 0 0 1 0.2351277,-0.235644 z m 0.999939,0 a 0.23542412,0.23542412 0 0 1 0.235645,0.235644 0.23542412,0.23542412 0 0 1 -0.235645,0.235128 0.23542412,0.23542412 0 0 1 -0.2351278,-0.235128 0.23542412,0.23542412 0 0 1 0.2351278,-0.235644 z m 1.000456,0 a 0.23542412,0.23542412 0 0 1 0.235128,0.235644 0.23542412,0.23542412 0 0 1 -0.235128,0.235128 0.23542412,0.23542412 0 0 1 -0.235645,-0.235128 0.23542412,0.23542412 0 0 1 0.235645,-0.235644 z m 0.999939,0 a 0.23542412,0.23542412 0 0 1 0.235128,0.235644 0.23542412,0.23542412 0 0 1 -0.235128,0.235128 0.23542412,0.23542412 0 0 1 -0.235645,-0.235128 0.23542412,0.23542412 0 0 1 0.235645,-0.235644 z m 0.999939,0 a 0.23542412,0.23542412 0 0 1 0.235127,0.235644 0.23542412,0.23542412 0 0 1 -0.235127,0.235128 0.23542412,0.23542412 0 0 1 -0.235645,-0.235128 0.23542412,0.23542412 0 0 1 0.235645,-0.235644 z m 0.999939,0 a 0.23542412,0.23542412 0 0 1 0.235127,0.235644 0.23542412,0.23542412 0 0 1 -0.235127,0.235128 0.23542412,0.23542412 0 0 1 -0.235645,-0.235128 0.23542412,0.23542412 0 0 1 0.235645,-0.235644 z m 0.999939,0 a 0.23542412,0.23542412 0 0 1 0.2356435,0.235644 0.23542412,0.23542412 0 0 1 -0.2356435,0.235128 0.23542412,0.23542412 0 0 1 -0.235645,-0.235128 0.23542412,0.23542412 0 0 1 0.235645,-0.235644 z m 0.9999395,0 a 0.23542412,0.23542412 0 0 1 0.235644,0.235644 0.23542412,0.23542412 0 0 1 -0.235644,0.235128 0.23542412,0.23542412 0 0 1 -0.235129,-0.235128 0.23542412,0.23542412 0 0 1 0.235129,-0.235644 z m 0.999939,0 a 0.23542412,0.23542412 0 0 1 0.235644,0.235644 0.23542412,0.23542412 0 0 1 -0.235644,0.235128 0.23542412,0.23542412 0 0 1 -0.235128,-0.235128 0.23542412,0.23542412 0 0 1 0.235128,-0.235644 z m 0.999939,0 a 0.23542412,0.23542412 0 0 1 0.235644,0.235644 0.23542412,0.23542412 0 0 1 -0.235644,0.235128 0.23542412,0.23542412 0 0 1 -0.235128,-0.235128 0.23542412,0.23542412 0 0 1 0.235128,-0.235644 z m 0.999939,0 a 0.23542412,0.23542412 0 0 1 0.235644,0.235644 0.23542412,0.23542412 0 0 1 -0.235644,0.235128 0.23542412,0.23542412 0 0 1 -0.235128,-0.235128 0.23542412,0.23542412 0 0 1 0.235128,-0.235644 z M 0.35501731,22.69669 a 0.30335295,0.30335295 0 0 1 0.30334069,0.303341 0.30335295,0.30335295 0 0 1 -0.30334069,0.30334 0.30335295,0.30335295 0 0 1 -0.3033407,-0.30334 0.30335295,0.30335295 0 0 1 0.3033407,-0.303341 z m 0.99993899,0 a 0.30335295,0.30335295 0 0 1 0.3033406,0.303341 0.30335295,0.30335295 0 0 1 -0.3033406,0.30334 0.30335295,0.30335295 0 0 1 -0.3033407,-0.30334 0.30335295,0.30335295 0 0 1 0.3033407,-0.303341 z m 1.0004557,0 A 0.30335295,0.30335295 0 0 1 2.6587526,23.000031 0.30335295,0.30335295 0 0 1 2.355412,23.303371 0.30335295,0.30335295 0 0 1 2.0520713,23.000031 0.30335295,0.30335295 0 0 1 2.355412,22.69669 Z m 0.9999389,0 a 0.30335295,0.30335295 0 0 1 0.3033407,0.303341 0.30335295,0.30335295 0 0 1 -0.3033407,0.30334 0.30335295,0.30335295 0 0 1 -0.3033406,-0.30334 0.30335295,0.30335295 0 0 1 0.3033406,-0.303341 z m 0.999939,0 a 0.30335295,0.30335295 0 0 1 0.3033407,0.303341 0.30335295,0.30335295 0 0 1 -0.3033407,0.30334 0.30335295,0.30335295 0 0 1 -0.3033406,-0.30334 0.30335295,0.30335295 0 0 1 0.3033406,-0.303341 z m 0.9999386,0 a 0.30335295,0.30335295 0 0 1 0.303341,0.303341 0.30335295,0.30335295 0 0 1 -0.303341,0.30334 0.30335295,0.30335295 0 0 1 -0.30334,-0.30334 0.30335295,0.30335295 0 0 1 0.30334,-0.303341 z m 0.999939,0 a 0.30335295,0.30335295 0 0 1 0.303341,0.303341 0.30335295,0.30335295 0 0 1 -0.303341,0.30334 0.30335295,0.30335295 0 0 1 -0.30334,-0.30334 0.30335295,0.30335295 0 0 1 0.30334,-0.303341 z m 0.999939,0 a 0.30335295,0.30335295 0 0 1 0.303341,0.303341 0.30335295,0.30335295 0 0 1 -0.303341,0.30334 0.30335295,0.30335295 0 0 1 -0.30334,-0.30334 0.30335295,0.30335295 0 0 1 0.30334,-0.303341 z m 0.999939,0 a 0.30335295,0.30335295 0 0 1 0.303341,0.303341 0.30335295,0.30335295 0 0 1 -0.303341,0.30334 0.30335295,0.30335295 0 0 1 -0.30334,-0.30334 0.30335295,0.30335295 0 0 1 0.30334,-0.303341 z m 0.999939,0 a 0.30335295,0.30335295 0 0 1 0.303341,0.303341 0.30335295,0.30335295 0 0 1 -0.303341,0.30334 0.30335295,0.30335295 0 0 1 -0.30334,-0.30334 0.30335295,0.30335295 0 0 1 0.30334,-0.303341 z m 1.0004555,0 a 0.30335295,0.30335295 0 0 1 0.303341,0.303341 0.30335295,0.30335295 0 0 1 -0.303341,0.30334 0.30335295,0.30335295 0 0 1 -0.30334,-0.30334 0.30335295,0.30335295 0 0 1 0.30334,-0.303341 z m 0.99994,0 a 0.30335295,0.30335295 0 0 1 0.303341,0.303341 0.30335295,0.30335295 0 0 1 -0.303341,0.30334 0.30335295,0.30335295 0 0 1 -0.30334,-0.30334 0.30335295,0.30335295 0 0 1 0.30334,-0.303341 z m 0.999939,0 a 0.30335295,0.30335295 0 0 1 0.303341,0.303341 0.30335295,0.30335295 0 0 1 -0.303341,0.30334 0.30335295,0.30335295 0 0 1 -0.30334,-0.30334 0.30335295,0.30335295 0 0 1 0.30334,-0.303341 z m 0.999939,0 a 0.30335295,0.30335295 0 0 1 0.303341,0.303341 0.30335295,0.30335295 0 0 1 -0.303341,0.30334 0.30335295,0.30335295 0 0 1 -0.30334,-0.30334 0.30335295,0.30335295 0 0 1 0.30334,-0.303341 z m 0.999939,0 a 0.30335295,0.30335295 0 0 1 0.303341,0.303341 0.30335295,0.30335295 0 0 1 -0.303341,0.30334 0.30335295,0.30335295 0 0 1 -0.303341,-0.30334 0.30335295,0.30335295 0 0 1 0.303341,-0.303341 z M 0.8454266,23.64857 a 0.35117647,0.35117647 0 0 1 0.3513998,0.351399 0.35117647,0.35117647 0 0 1 -0.3513998,0.3514 0.35117647,0.35117647 0 0 1 -0.35139969,-0.3514 0.35117647,0.35117647 0 0 1 0.35139969,-0.351399 z m 0.999939,0 a 0.35117647,0.35117647 0 0 1 0.3513997,0.351399 0.35117647,0.35117647 0 0 1 -0.3513997,0.3514 0.35117647,0.35117647 0 0 1 -0.3513997,-0.3514 0.35117647,0.35117647 0 0 1 0.3513997,-0.351399 z m 0.999939,0 a 0.35117647,0.35117647 0 0 1 0.3513997,0.351399 0.35117647,0.35117647 0 0 1 -0.3513997,0.3514 0.35117647,0.35117647 0 0 1 -0.350883,-0.3514 0.35117647,0.35117647 0 0 1 0.350883,-0.351399 z m 0.9999389,0 a 0.35117647,0.35117647 0 0 1 0.3513998,0.351399 0.35117647,0.35117647 0 0 1 -0.3513998,0.3514 0.35117647,0.35117647 0 0 1 -0.3508829,-0.3514 0.35117647,0.35117647 0 0 1 0.3508829,-0.351399 z m 0.999939,0 a 0.35117647,0.35117647 0 0 1 0.3514,0.351399 0.35117647,0.35117647 0 0 1 -0.3514,0.3514 0.35117647,0.35117647 0 0 1 -0.350883,-0.3514 0.35117647,0.35117647 0 0 1 0.350883,-0.351399 z m 1.000456,0 a 0.35117647,0.35117647 0 0 1 0.350883,0.351399 0.35117647,0.35117647 0 0 1 -0.350883,0.3514 0.35117647,0.35117647 0 0 1 -0.3514,-0.3514 0.35117647,0.35117647 0 0 1 0.3514,-0.351399 z m 0.999939,0 a 0.35117647,0.35117647 0 0 1 0.350883,0.351399 0.35117647,0.35117647 0 0 1 -0.350883,0.3514 0.35117647,0.35117647 0 0 1 -0.3514,-0.3514 0.35117647,0.35117647 0 0 1 0.3514,-0.351399 z m 0.999939,0 a 0.35117647,0.35117647 0 0 1 0.350883,0.351399 0.35117647,0.35117647 0 0 1 -0.350883,0.3514 0.35117647,0.35117647 0 0 1 -0.3514,-0.3514 0.35117647,0.35117647 0 0 1 0.3514,-0.351399 z m 0.999939,0 a 0.35117647,0.35117647 0 0 1 0.350883,0.351399 0.35117647,0.35117647 0 0 1 -0.350883,0.3514 0.35117647,0.35117647 0 0 1 -0.3514,-0.3514 0.35117647,0.35117647 0 0 1 0.3514,-0.351399 z m 0.999939,0 a 0.35117647,0.35117647 0 0 1 0.3513995,0.351399 0.35117647,0.35117647 0 0 1 -0.3513995,0.3514 0.35117647,0.35117647 0 0 1 -0.3514,-0.3514 0.35117647,0.35117647 0 0 1 0.3514,-0.351399 z m 0.9999395,0 a 0.35117647,0.35117647 0 0 1 0.3514,0.351399 0.35117647,0.35117647 0 0 1 -0.3514,0.3514 0.35117647,0.35117647 0 0 1 -0.350884,-0.3514 0.35117647,0.35117647 0 0 1 0.350884,-0.351399 z m 0.999939,0 a 0.35117647,0.35117647 0 0 1 0.3514,0.351399 0.35117647,0.35117647 0 0 1 -0.3514,0.3514 0.35117647,0.35117647 0 0 1 -0.350883,-0.3514 0.35117647,0.35117647 0 0 1 0.350883,-0.351399 z m 0.999939,0 a 0.35117647,0.35117647 0 0 1 0.3514,0.351399 0.35117647,0.35117647 0 0 1 -0.3514,0.3514 0.35117647,0.35117647 0 0 1 -0.350883,-0.3514 0.35117647,0.35117647 0 0 1 0.350883,-0.351399 z m 0.999939,0 a 0.35117647,0.35117647 0 0 1 0.351399,0.351399 0.35117647,0.35117647 0 0 1 -0.351399,0.3514 0.35117647,0.35117647 0 0 1 -0.350883,-0.3514 0.35117647,0.35117647 0 0 1 0.350883,-0.351399 z M 1.3549563,24.592181 a 0.40784314,0.40784314 0 0 1 0.4082438,0.407727 0.40784314,0.40784314 0 0 1 -0.4082438,0.407727 0.40784314,0.40784314 0 0 1 -0.4077271,-0.407727 0.40784314,0.40784314 0 0 1 0.4077271,-0.407727 z m 1.0004557,0 A 0.40784314,0.40784314 0 0 1 2.763139,24.999908 0.40784314,0.40784314 0 0 1 2.355412,25.407635 0.40784314,0.40784314 0 0 1 1.9471682,24.999908 0.40784314,0.40784314 0 0 1 2.355412,24.592181 Z m 0.9999389,0 A 0.40784314,0.40784314 0 0 1 3.763078,24.999908 0.40784314,0.40784314 0 0 1 3.3553509,25.407635 0.40784314,0.40784314 0 0 1 2.9471071,24.999908 0.40784314,0.40784314 0 0 1 3.3553509,24.592181 Z m 0.999939,0 a 0.40784314,0.40784314 0 0 1 0.4077266,0.407727 0.40784314,0.40784314 0 0 1 -0.4077266,0.407727 0.40784314,0.40784314 0 0 1 -0.407727,-0.407727 0.40784314,0.40784314 0 0 1 0.407727,-0.407727 z m 0.9999386,0 a 0.40784314,0.40784314 0 0 1 0.407727,0.407727 0.40784314,0.40784314 0 0 1 -0.407727,0.407727 0.40784314,0.40784314 0 0 1 -0.407727,-0.407727 0.40784314,0.40784314 0 0 1 0.407727,-0.407727 z m 0.999939,0 a 0.40784314,0.40784314 0 0 1 0.407727,0.407727 0.40784314,0.40784314 0 0 1 -0.407727,0.407727 0.40784314,0.40784314 0 0 1 -0.407727,-0.407727 0.40784314,0.40784314 0 0 1 0.407727,-0.407727 z m 0.999939,0 a 0.40784314,0.40784314 0 0 1 0.407727,0.407727 0.40784314,0.40784314 0 0 1 -0.407727,0.407727 0.40784314,0.40784314 0 0 1 -0.407727,-0.407727 0.40784314,0.40784314 0 0 1 0.407727,-0.407727 z m 0.999939,0 a 0.40784314,0.40784314 0 0 1 0.408244,0.407727 0.40784314,0.40784314 0 0 1 -0.408244,0.407727 0.40784314,0.40784314 0 0 1 -0.407727,-0.407727 0.40784314,0.40784314 0 0 1 0.407727,-0.407727 z m 0.999939,0 a 0.40784314,0.40784314 0 0 1 0.408244,0.407727 0.40784314,0.40784314 0 0 1 -0.408244,0.407727 0.40784314,0.40784314 0 0 1 -0.407727,-0.407727 0.40784314,0.40784314 0 0 1 0.407727,-0.407727 z m 1.0004555,0 a 0.40784314,0.40784314 0 0 1 0.407728,0.407727 0.40784314,0.40784314 0 0 1 -0.407728,0.407727 0.40784314,0.40784314 0 0 1 -0.4082435,-0.407727 0.40784314,0.40784314 0 0 1 0.4082435,-0.407727 z m 0.99994,0 a 0.40784314,0.40784314 0 0 1 0.407727,0.407727 0.40784314,0.40784314 0 0 1 -0.407727,0.407727 0.40784314,0.40784314 0 0 1 -0.408244,-0.407727 0.40784314,0.40784314 0 0 1 0.408244,-0.407727 z m 0.999939,0 a 0.40784314,0.40784314 0 0 1 0.407727,0.407727 0.40784314,0.40784314 0 0 1 -0.407727,0.407727 0.40784314,0.40784314 0 0 1 -0.407727,-0.407727 0.40784314,0.40784314 0 0 1 0.407727,-0.407727 z m 0.999939,0 a 0.40784314,0.40784314 0 0 1 0.407727,0.407727 0.40784314,0.40784314 0 0 1 -0.407727,0.407727 0.40784314,0.40784314 0 0 1 -0.407727,-0.407727 0.40784314,0.40784314 0 0 1 0.407727,-0.407727 z m 0.999939,0 a 0.40784314,0.40784314 0 0 1 0.407727,0.407727 0.40784314,0.40784314 0 0 1 -0.407727,0.407727 0.40784314,0.40784314 0 0 1 -0.407727,-0.407727 0.40784314,0.40784314 0 0 1 0.407727,-0.407727 z M 0.8454266,25.532176 A 0.46803921,0.46803921 0 0 1 1.3136151,25.999847 0.46803921,0.46803921 0 0 1 0.8454266,26.468036 0.46803921,0.46803921 0 0 1 0.37723821,25.999847 0.46803921,0.46803921 0 0 1 0.8454266,25.532176 Z m 0.999939,0 a 0.46803921,0.46803921 0 0 1 0.4681885,0.467671 0.46803921,0.46803921 0 0 1 -0.4681885,0.468189 0.46803921,0.46803921 0 0 1 -0.4681885,-0.468189 0.46803921,0.46803921 0 0 1 0.4681885,-0.467671 z m 0.999939,0 A 0.46803921,0.46803921 0 0 1 3.313493,25.999847 0.46803921,0.46803921 0 0 1 2.8453046,26.468036 0.46803921,0.46803921 0 0 1 2.3771161,25.999847 0.46803921,0.46803921 0 0 1 2.8453046,25.532176 Z m 0.9999389,0 A 0.46803921,0.46803921 0 0 1 4.313432,25.999847 0.46803921,0.46803921 0 0 1 3.8452435,26.468036 0.46803921,0.46803921 0 0 1 3.3775718,25.999847 0.46803921,0.46803921 0 0 1 3.8452435,25.532176 Z m 0.999939,0 a 0.46803921,0.46803921 0 0 1 0.468189,0.467671 0.46803921,0.46803921 0 0 1 -0.468189,0.468189 0.46803921,0.46803921 0 0 1 -0.4676717,-0.468189 0.46803921,0.46803921 0 0 1 0.4676717,-0.467671 z m 1.000456,0 a 0.46803921,0.46803921 0 0 1 0.467671,0.467671 0.46803921,0.46803921 0 0 1 -0.467671,0.468189 0.46803921,0.46803921 0 0 1 -0.468189,-0.468189 0.46803921,0.46803921 0 0 1 0.468189,-0.467671 z m 0.999939,0 a 0.46803921,0.46803921 0 0 1 0.467671,0.467671 0.46803921,0.46803921 0 0 1 -0.467671,0.468189 0.46803921,0.46803921 0 0 1 -0.468189,-0.468189 0.46803921,0.46803921 0 0 1 0.468189,-0.467671 z m 0.999939,0 a 0.46803921,0.46803921 0 0 1 0.467671,0.467671 0.46803921,0.46803921 0 0 1 -0.467671,0.468189 0.46803921,0.46803921 0 0 1 -0.468189,-0.468189 0.46803921,0.46803921 0 0 1 0.468189,-0.467671 z m 0.999939,0 a 0.46803921,0.46803921 0 0 1 0.468188,0.467671 0.46803921,0.46803921 0 0 1 -0.468188,0.468189 0.46803921,0.46803921 0 0 1 -0.468189,-0.468189 0.46803921,0.46803921 0 0 1 0.468189,-0.467671 z m 0.999939,0 a 0.46803921,0.46803921 0 0 1 0.4681875,0.467671 0.46803921,0.46803921 0 0 1 -0.4681875,0.468189 0.46803921,0.46803921 0 0 1 -0.468189,-0.468189 0.46803921,0.46803921 0 0 1 0.468189,-0.467671 z m 0.9999395,0 a 0.46803921,0.46803921 0 0 1 0.468188,0.467671 0.46803921,0.46803921 0 0 1 -0.468188,0.468189 0.46803921,0.46803921 0 0 1 -0.46819,-0.468189 0.46803921,0.46803921 0 0 1 0.46819,-0.467671 z m 0.999939,0 a 0.46803921,0.46803921 0 0 1 0.468188,0.467671 0.46803921,0.46803921 0 0 1 -0.468188,0.468189 0.46803921,0.46803921 0 0 1 -0.467672,-0.468189 0.46803921,0.46803921 0 0 1 0.467672,-0.467671 z m 0.999939,0 a 0.46803921,0.46803921 0 0 1 0.468188,0.467671 0.46803921,0.46803921 0 0 1 -0.468188,0.468189 0.46803921,0.46803921 0 0 1 -0.467672,-0.468189 0.46803921,0.46803921 0 0 1 0.467672,-0.467671 z m 0.999939,0 a 0.46803921,0.46803921 0 0 1 0.468188,0.467671 0.46803921,0.46803921 0 0 1 -0.468188,0.468189 0.46803921,0.46803921 0 0 1 -0.467672,-0.468189 0.46803921,0.46803921 0 0 1 0.467672,-0.467671 z M 1.3549563,26.512478 a 0.48745099,0.48745099 0 0 1 0.4878255,0.487308 0.48745099,0.48745099 0 0 1 -0.4878255,0.487826 0.48745099,0.48745099 0 0 1 -0.4873088,-0.487826 0.48745099,0.48745099 0 0 1 0.4873088,-0.487308 z m 1.0004557,0 A 0.48745099,0.48745099 0 0 1 2.8427207,26.999786 0.48745099,0.48745099 0 0 1 2.355412,27.487612 0.48745099,0.48745099 0 0 1 1.8675865,26.999786 0.48745099,0.48745099 0 0 1 2.355412,26.512478 Z m 0.9999389,0 a 0.48745099,0.48745099 0 0 1 0.4873088,0.487308 0.48745099,0.48745099 0 0 1 -0.4873088,0.487826 0.48745099,0.48745099 0 0 1 -0.4878255,-0.487826 0.48745099,0.48745099 0 0 1 0.4878255,-0.487308 z m 0.999939,0 a 0.48745099,0.48745099 0 0 1 0.4873086,0.487308 0.48745099,0.48745099 0 0 1 -0.4873086,0.487826 0.48745099,0.48745099 0 0 1 -0.4873087,-0.487826 0.48745099,0.48745099 0 0 1 0.4873087,-0.487308 z m 0.9999386,0 a 0.48745099,0.48745099 0 0 1 0.487309,0.487308 0.48745099,0.48745099 0 0 1 -0.487309,0.487826 0.48745099,0.48745099 0 0 1 -0.487308,-0.487826 0.48745099,0.48745099 0 0 1 0.487308,-0.487308 z m 0.999939,0 a 0.48745099,0.48745099 0 0 1 0.487309,0.487308 0.48745099,0.48745099 0 0 1 -0.487309,0.487826 0.48745099,0.48745099 0 0 1 -0.487308,-0.487826 0.48745099,0.48745099 0 0 1 0.487308,-0.487308 z m 0.999939,0 a 0.48745099,0.48745099 0 0 1 0.487309,0.487308 0.48745099,0.48745099 0 0 1 -0.487309,0.487826 0.48745099,0.48745099 0 0 1 -0.487308,-0.487826 0.48745099,0.48745099 0 0 1 0.487308,-0.487308 z m 0.999939,0 a 0.48745099,0.48745099 0 0 1 0.487826,0.487308 0.48745099,0.48745099 0 0 1 -0.487826,0.487826 0.48745099,0.48745099 0 0 1 -0.487308,-0.487826 0.48745099,0.48745099 0 0 1 0.487308,-0.487308 z m 0.999939,0 a 0.48745099,0.48745099 0 0 1 0.487826,0.487308 0.48745099,0.48745099 0 0 1 -0.487826,0.487826 0.48745099,0.48745099 0 0 1 -0.487308,-0.487826 0.48745099,0.48745099 0 0 1 0.487308,-0.487308 z m 1.0004555,0 a 0.48745099,0.48745099 0 0 1 0.48731,0.487308 0.48745099,0.48745099 0 0 1 -0.48731,0.487826 0.48745099,0.48745099 0 0 1 -0.4878255,-0.487826 0.48745099,0.48745099 0 0 1 0.4878255,-0.487308 z m 0.99994,0 a 0.48745099,0.48745099 0 0 1 0.487309,0.487308 0.48745099,0.48745099 0 0 1 -0.487309,0.487826 0.48745099,0.48745099 0 0 1 -0.487825,-0.487826 0.48745099,0.48745099 0 0 1 0.487825,-0.487308 z m 0.999939,0 a 0.48745099,0.48745099 0 0 1 0.487309,0.487308 0.48745099,0.48745099 0 0 1 -0.487309,0.487826 0.48745099,0.48745099 0 0 1 -0.487825,-0.487826 0.48745099,0.48745099 0 0 1 0.487825,-0.487308 z m 0.999939,0 a 0.48745099,0.48745099 0 0 1 0.487309,0.487308 0.48745099,0.48745099 0 0 1 -0.487309,0.487826 0.48745099,0.48745099 0 0 1 -0.487309,-0.487826 0.48745099,0.48745099 0 0 1 0.487309,-0.487308 z m 0.999939,0 a 0.48745099,0.48745099 0 0 1 0.487309,0.487308 0.48745099,0.48745099 0 0 1 -0.487309,0.487826 0.48745099,0.48745099 0 0 1 -0.487309,-0.487826 0.48745099,0.48745099 0 0 1 0.487309,-0.487308 z M 0.34519881,28.239504 a 0.5551765,0.5551765 0 0 1 -0.094568,0.138493 0.63157254,0.63157254 0 0 1 0.1043864,-0.0098 0.63157254,0.63157254 0 0 1 0.081132,0.0057 0.5551765,0.5551765 0 0 1 -0.09095,-0.134359 z m 1.00045569,0 a 0.5551765,0.5551765 0 0 1 -0.095601,0.138493 0.63157254,0.63157254 0 0 1 0.1049032,-0.0098 0.63157254,0.63157254 0 0 1 0.081132,0.0057 0.5551765,0.5551765 0 0 1 -0.090434,-0.134359 z m 0.9994222,0 a 0.5551765,0.5551765 0 0 1 -0.094568,0.138493 0.63157254,0.63157254 0 0 1 0.1049032,-0.0098 0.63157254,0.63157254 0 0 1 0.080615,0.0057 0.5551765,0.5551765 0 0 1 -0.090951,-0.134359 z m 1.0004557,0 a 0.5551765,0.5551765 0 0 1 -0.095085,0.138493 0.63157254,0.63157254 0 0 1 0.1049031,-0.0098 0.63157254,0.63157254 0 0 1 0.080615,0.0057 0.5551765,0.5551765 0 0 1 -0.090434,-0.134359 z m 3.9997561,0 a 0.5551765,0.5551765 0 0 1 -0.09457,0.138493 0.63157254,0.63157254 0 0 1 0.104386,-0.0098 0.63157254,0.63157254 0 0 1 0.08113,0.0057 0.5551765,0.5551765 0 0 1 -0.09095,-0.134359 z m 1.000456,0 a 0.5551765,0.5551765 0 0 1 -0.09509,0.138493 0.63157254,0.63157254 0 0 1 0.104386,-0.0098 0.63157254,0.63157254 0 0 1 0.08113,0.0057 0.5551765,0.5551765 0 0 1 -0.09043,-0.134359 z m 0.999422,0 a 0.5551765,0.5551765 0 0 1 -0.09457,0.138493 0.63157254,0.63157254 0 0 1 0.104386,-0.0098 0.63157254,0.63157254 0 0 1 0.08113,0.0057 0.5551765,0.5551765 0 0 1 -0.09095,-0.134359 z m 1.0004555,0 a 0.5551765,0.5551765 0 0 1 -0.09509,0.138493 0.63157254,0.63157254 0 0 1 0.104903,-0.0098 0.63157254,0.63157254 0 0 1 0.08062,0.0057 0.5551765,0.5551765 0 0 1 -0.09043,-0.134359 z m 0.999423,0 a 0.5551765,0.5551765 0 0 1 -0.09457,0.138493 0.63157254,0.63157254 0 0 1 0.104903,-0.0098 0.63157254,0.63157254 0 0 1 0.08062,0.0057 0.5551765,0.5551765 0 0 1 -0.09095,-0.134359 z m 1.000456,0 a 0.5551765,0.5551765 0 0 1 -0.09508,0.138493 0.63157254,0.63157254 0 0 1 0.104903,-0.0098 0.63157254,0.63157254 0 0 1 0.08061,0.0057 0.5551765,0.5551765 0 0 1 -0.09043,-0.134359 z m -8.0000296,5.17e-4 a 0.5551765,0.5551765 0 0 1 -0.095085,0.137976 0.63157254,0.63157254 0 0 1 0.1049031,-0.0098 0.63157254,0.63157254 0 0 1 0.080615,0.0057 0.5551765,0.5551765 0 0 1 -0.090434,-0.133842 z m 0.9999391,0 a 0.5551765,0.5551765 0 0 1 -0.09508,0.137976 0.63157254,0.63157254 0 0 1 0.104903,-0.0098 0.63157254,0.63157254 0 0 1 0.08113,0.0057 0.5551765,0.5551765 0 0 1 -0.09095,-0.133842 z m 0.999939,0 a 0.5551765,0.5551765 0 0 1 -0.09508,0.137976 0.63157254,0.63157254 0 0 1 0.104903,-0.0098 0.63157254,0.63157254 0 0 1 0.08113,0.0057 0.5551765,0.5551765 0 0 1 -0.09095,-0.133842 z m 7.0000905,0 a 0.5551765,0.5551765 0 0 1 -0.09509,0.137976 0.63157254,0.63157254 0 0 1 0.104903,-0.0098 0.63157254,0.63157254 0 0 1 0.08113,0.0057 0.5551765,0.5551765 0 0 1 -0.09095,-0.133842 z m 0.999939,0 a 0.5551765,0.5551765 0 0 1 -0.09509,0.137976 0.63157254,0.63157254 0 0 1 0.104903,-0.0098 0.63157254,0.63157254 0 0 1 0.08113,0.0057 0.5551765,0.5551765 0 0 1 -0.09095,-0.133842 z M 0.9141563,28.550079 a 0.5551765,0.5551765 0 0 1 -0.06873,0.0052 0.5551765,0.5551765 0 0 1 -0.044442,-0.0031 0.63157254,0.63157254 0 0 1 0.054777,0.06356 0.63157254,0.63157254 0 0 1 0.058394,-0.06563 z m 0.999939,0 a 0.5551765,0.5551765 0 0 1 -0.06873,0.0052 0.5551765,0.5551765 0 0 1 -0.044442,-0.0031 0.63157254,0.63157254 0 0 1 0.054777,0.06356 0.63157254,0.63157254 0 0 1 0.058394,-0.06563 z m 0.9999389,0 a 0.5551765,0.5551765 0 0 1 -0.06873,0.0052 0.5551765,0.5551765 0 0 1 -0.044442,-0.0031 0.63157254,0.63157254 0 0 1 0.055294,0.06356 0.63157254,0.63157254 0 0 1 0.057878,-0.06563 z m 0.999939,0 a 0.5551765,0.5551765 0 0 1 -0.06873,0.0052 0.5551765,0.5551765 0 0 1 -0.044442,-0.0031 0.63157254,0.63157254 0 0 1 0.055294,0.06356 0.63157254,0.63157254 0 0 1 0.057878,-0.06563 z m 0.9999393,0 a 0.5551765,0.5551765 0 0 1 -0.06873,0.0052 0.5551765,0.5551765 0 0 1 -0.04444,-0.0031 0.63157254,0.63157254 0 0 1 0.05529,0.06356 0.63157254,0.63157254 0 0 1 0.05788,-0.06563 z m 0.999939,0 a 0.5551765,0.5551765 0 0 1 -0.06821,0.0052 0.5551765,0.5551765 0 0 1 -0.04496,-0.0031 0.63157254,0.63157254 0 0 1 0.05529,0.06305 0.63157254,0.63157254 0 0 1 0.05788,-0.06511 z m 1.000455,0 a 0.5551765,0.5551765 0 0 1 -0.06873,0.0052 0.5551765,0.5551765 0 0 1 -0.04496,-0.0031 0.63157254,0.63157254 0 0 1 0.05529,0.06356 0.63157254,0.63157254 0 0 1 0.05839,-0.06563 z m 0.999939,0 a 0.5551765,0.5551765 0 0 1 -0.06873,0.0052 0.5551765,0.5551765 0 0 1 -0.04496,-0.0031 0.63157254,0.63157254 0 0 1 0.05529,0.06356 0.63157254,0.63157254 0 0 1 0.05839,-0.06563 z m 0.999939,0 a 0.5551765,0.5551765 0 0 1 -0.06873,0.0052 0.5551765,0.5551765 0 0 1 -0.04496,-0.0031 0.63157254,0.63157254 0 0 1 0.05529,0.06356 0.63157254,0.63157254 0 0 1 0.05839,-0.06563 z m 0.999939,0 a 0.5551765,0.5551765 0 0 1 -0.06873,0.0052 0.5551765,0.5551765 0 0 1 -0.04444,-0.0031 0.63157254,0.63157254 0 0 1 0.05478,0.06356 0.63157254,0.63157254 0 0 1 0.05839,-0.06563 z m 0.9999395,0 a 0.5551765,0.5551765 0 0 1 -0.06873,0.0052 0.5551765,0.5551765 0 0 1 -0.04444,-0.0031 0.63157254,0.63157254 0 0 1 0.05478,0.06356 0.63157254,0.63157254 0 0 1 0.05839,-0.06563 z m 0.999939,0 a 0.5551765,0.5551765 0 0 1 -0.06873,0.0052 0.5551765,0.5551765 0 0 1 -0.04444,-0.0031 0.63157254,0.63157254 0 0 1 0.05529,0.06356 0.63157254,0.63157254 0 0 1 0.05788,-0.06563 z m 0.999939,0 a 0.5551765,0.5551765 0 0 1 -0.06873,0.0052 0.5551765,0.5551765 0 0 1 -0.04444,-0.0031 0.63157254,0.63157254 0 0 1 0.05529,0.06356 0.63157254,0.63157254 0 0 1 0.05788,-0.06563 z m 0.999939,0 a 0.5551765,0.5551765 0 0 1 -0.06873,0.0052 0.5551765,0.5551765 0 0 1 -0.04444,-0.0031 0.63157254,0.63157254 0 0 1 0.05529,0.06305 0.63157254,0.63157254 0 0 1 0.05788,-0.06511 z m 0.999939,0 a 0.5551765,0.5551765 0 0 1 -0.06821,0.0052 0.5551765,0.5551765 0 0 1 -0.04496,-0.0031 0.63157254,0.63157254 0 0 1 0.05529,0.06305 0.63157254,0.63157254 0 0 1 0.05788,-0.06511 z" />
    <rect
       style="fill:#ffb946;fill-opacity:1;stroke:none;stroke-width:0.1;stroke-linecap:square;stroke-linejoin:round;stroke-miterlimit:2.7;paint-order:stroke markers fill"
       id="rect1191-4"
       width="15"
       height="15.000001"
       x="15.000118"
       y="1.500586e-06" />
    <path
       id="rect1190-4"
       style="fill:#ffc812;fill-opacity:1;stroke:none;stroke-width:0.1;stroke-linecap:square;stroke-linejoin:round;stroke-miterlimit:2.7;paint-order:stroke markers fill"
       d="M 15.000118,1.5e-7 V 6.8243901 a 0.23542412,0.23542412 0 0 1 0.08061,0.1756991 0.23542412,0.23542412 0 0 1 -0.08061,0.1715659 v 1.5136031 a 0.35117647,0.35117647 0 0 1 0.19637,0.314709 0.35117647,0.35117647 0 0 1 -0.19637,0.31471 v 0.489376 a 0.40784314,0.40784314 0 0 1 0.355017,-0.211874 0.40784314,0.40784314 0 0 1 0.408244,0.407727 0.40784314,0.40784314 0 0 1 -0.408244,0.4077268 0.40784314,0.40784314 0 0 1 -0.355017,-0.211873 v 0.377755 a 0.46803921,0.46803921 0 0 1 0.313676,0.42633 0.46803921,0.46803921 0 0 1 -0.313676,0.440284 v 0.24908 a 0.48745099,0.48745099 0 0 1 0.355017,-0.176733 0.48745099,0.48745099 0 0 1 0.487826,0.487308 0.48745099,0.48745099 0 0 1 -0.487826,0.487826 0.48745099,0.48745099 0 0 1 -0.355017,-0.176734 v 0.162781 a 0.5551765,0.5551765 0 0 1 0.345715,0.285771 0.5551765,0.5551765 0 0 1 0.499711,-0.31471 0.5551765,0.5551765 0 0 1 0.500228,0.31471 0.5551765,0.5551765 0 0 1 0.499711,-0.31471 0.5551765,0.5551765 0 0 1 0.500228,0.31471 0.5551765,0.5551765 0 0 1 0.499711,-0.31471 0.5551765,0.5551765 0 0 1 0.500228,0.31471 0.5551765,0.5551765 0 0 1 0.499711,-0.31471 0.5551765,0.5551765 0 0 1 0.500228,0.31471 0.5551765,0.5551765 0 0 1 0.499711,-0.31471 0.5551765,0.5551765 0 0 1 0.500745,0.31471 0.5551765,0.5551765 0 0 1 0.499711,-0.31471 0.5551765,0.5551765 0 0 1 0.500228,0.31471 0.5551765,0.5551765 0 0 1 0.499711,-0.31471 0.5551765,0.5551765 0 0 1 0.500228,0.31471 0.5551765,0.5551765 0 0 1 0.499711,-0.31471 0.5551765,0.5551765 0 0 1 0.500228,0.31471 0.5551765,0.5551765 0 0 1 0.499711,-0.31471 0.5551765,0.5551765 0 0 1 0.500228,0.31471 0.5551765,0.5551765 0 0 1 0.499711,-0.31471 0.5551765,0.5551765 0 0 1 0.500228,0.31471 0.5551765,0.5551765 0 0 1 0.499711,-0.31471 0.5551765,0.5551765 0 0 1 0.500228,0.31471 0.5551765,0.5551765 0 0 1 0.499711,-0.31471 0.5551765,0.5551765 0 0 1 0.500228,0.31471 0.5551765,0.5551765 0 0 1 0.499711,-0.31471 0.5551765,0.5551765 0 0 1 0.500744,0.31471 0.5551765,0.5551765 0 0 1 0.499195,-0.31471 0.5551765,0.5551765 0 0 1 0.500744,0.31471 0.5551765,0.5551765 0 0 1 0.499711,-0.31471 0.5551765,0.5551765 0 0 1 0.154513,0.02894 v -0.162781 a 0.48745099,0.48745099 0 0 1 -0.132292,-0.311092 0.48745099,0.48745099 0 0 1 0.132292,-0.310575 v -0.249597 a 0.46803921,0.46803921 0 0 1 -0.154513,0.02842 0.46803921,0.46803921 0 0 1 -0.468188,-0.468189 0.46803921,0.46803921 0 0 1 0.468188,-0.467671 0.46803921,0.46803921 0 0 1 0.154513,0.04134 V 10.19576 a 0.40784314,0.40784314 0 0 1 -0.05271,-0.1958539 0.40784314,0.40784314 0 0 1 0.05271,-0.195853 V 9.3146772 a 0.35117647,0.35117647 0 0 1 -0.154513,0.03669 0.35117647,0.35117647 0 0 1 -0.351399,-0.3514 0.35117647,0.35117647 0 0 1 0.351399,-0.3514 0.35117647,0.35117647 0 0 1 0.154513,0.03669 v -1.513602 a 0.23542412,0.23542412 0 0 1 -0.154513,0.06356 0.23542412,0.23542412 0 0 1 -0.235644,-0.235128 0.23542412,0.23542412 0 0 1 0.235644,-0.235644 0.23542412,0.23542412 0 0 1 0.154513,0.05994 V -6.85e-6 Z m 0.355017,5.81876605 a 0.18131517,0.18131517 0 0 1 0.181384,0.181385 0.18131517,0.18131517 0 0 1 -0.181384,0.181384 0.18131517,0.18131517 0 0 1 -0.181384,-0.181384 0.18131517,0.18131517 0 0 1 0.181384,-0.181385 z m 0.999939,0 a 0.18131517,0.18131517 0 0 1 0.181384,0.181385 0.18131517,0.18131517 0 0 1 -0.181384,0.181384 0.18131517,0.18131517 0 0 1 -0.180868,-0.181384 0.18131517,0.18131517 0 0 1 0.180868,-0.181385 z m 1.000456,0 a 0.18131517,0.18131517 0 0 1 0.180867,0.181385 0.18131517,0.18131517 0 0 1 -0.180867,0.181384 0.18131517,0.18131517 0 0 1 -0.181384,-0.181384 0.18131517,0.18131517 0 0 1 0.181384,-0.181385 z m 0.999939,0 a 0.18131517,0.18131517 0 0 1 0.181384,0.181385 0.18131517,0.18131517 0 0 1 -0.181384,0.181384 0.18131517,0.18131517 0 0 1 -0.181385,-0.181384 0.18131517,0.18131517 0 0 1 0.181385,-0.181385 z m 0.999939,0 a 0.18131517,0.18131517 0 0 1 0.181384,0.181385 0.18131517,0.18131517 0 0 1 -0.181384,0.181384 0.18131517,0.18131517 0 0 1 -0.181385,-0.181384 0.18131517,0.18131517 0 0 1 0.181385,-0.181385 z m 0.999939,0 a 0.18131517,0.18131517 0 0 1 0.181384,0.181385 0.18131517,0.18131517 0 0 1 -0.181384,0.181384 0.18131517,0.18131517 0 0 1 -0.181385,-0.181384 0.18131517,0.18131517 0 0 1 0.181385,-0.181385 z m 0.999939,0 a 0.18131517,0.18131517 0 0 1 0.181384,0.181385 0.18131517,0.18131517 0 0 1 -0.181384,0.181384 0.18131517,0.18131517 0 0 1 -0.181385,-0.181384 0.18131517,0.18131517 0 0 1 0.181385,-0.181385 z m 0.999939,0 a 0.18131517,0.18131517 0 0 1 0.181384,0.181385 0.18131517,0.18131517 0 0 1 -0.181384,0.181384 0.18131517,0.18131517 0 0 1 -0.181385,-0.181384 0.18131517,0.18131517 0 0 1 0.181385,-0.181385 z m 0.999939,0 a 0.18131517,0.18131517 0 0 1 0.181384,0.181385 0.18131517,0.18131517 0 0 1 -0.181384,0.181384 0.18131517,0.18131517 0 0 1 -0.181384,-0.181384 0.18131517,0.18131517 0 0 1 0.181384,-0.181385 z m 0.999939,0 a 0.18131517,0.18131517 0 0 1 0.181384,0.181385 0.18131517,0.18131517 0 0 1 -0.181384,0.181384 0.18131517,0.18131517 0 0 1 -0.180868,-0.181384 0.18131517,0.18131517 0 0 1 0.180868,-0.181385 z m 1.000455,0 a 0.18131517,0.18131517 0 0 1 0.180868,0.181385 0.18131517,0.18131517 0 0 1 -0.180868,0.181384 0.18131517,0.18131517 0 0 1 -0.181384,-0.181384 0.18131517,0.18131517 0 0 1 0.181384,-0.181385 z m 0.999939,0 a 0.18131517,0.18131517 0 0 1 0.181385,0.181385 0.18131517,0.18131517 0 0 1 -0.181385,0.181384 0.18131517,0.18131517 0 0 1 -0.181384,-0.181384 0.18131517,0.18131517 0 0 1 0.181384,-0.181385 z m 0.999939,0 a 0.18131517,0.18131517 0 0 1 0.181384,0.181385 0.18131517,0.18131517 0 0 1 -0.181384,0.181384 0.18131517,0.18131517 0 0 1 -0.181384,-0.181384 0.18131517,0.18131517 0 0 1 0.181384,-0.181385 z m 0.999939,0 a 0.18131517,0.18131517 0 0 1 0.181384,0.181385 0.18131517,0.18131517 0 0 1 -0.181384,0.181384 0.18131517,0.18131517 0 0 1 -0.181384,-0.181384 0.18131517,0.18131517 0 0 1 0.181384,-0.181385 z m 0.999939,0 a 0.18131517,0.18131517 0 0 1 0.181384,0.181385 0.18131517,0.18131517 0 0 1 -0.181384,0.181384 0.18131517,0.18131517 0 0 1 -0.181384,-0.181384 0.18131517,0.18131517 0 0 1 0.181384,-0.181385 z m -13.50977,0.9456789 a 0.23542412,0.23542412 0 0 1 0.235645,0.2356441 0.23542412,0.23542412 0 0 1 -0.235645,0.235128 0.23542412,0.23542412 0 0 1 -0.235644,-0.235128 0.23542412,0.23542412 0 0 1 0.235644,-0.2356441 z m 0.999939,0 a 0.23542412,0.23542412 0 0 1 0.235645,0.2356441 0.23542412,0.23542412 0 0 1 -0.235645,0.235128 0.23542412,0.23542412 0 0 1 -0.235644,-0.235128 0.23542412,0.23542412 0 0 1 0.235644,-0.2356441 z m 0.999939,0 a 0.23542412,0.23542412 0 0 1 0.235645,0.2356441 0.23542412,0.23542412 0 0 1 -0.235645,0.235128 0.23542412,0.23542412 0 0 1 -0.235127,-0.235128 0.23542412,0.23542412 0 0 1 0.235127,-0.2356441 z m 0.999939,0 a 0.23542412,0.23542412 0 0 1 0.235645,0.2356441 0.23542412,0.23542412 0 0 1 -0.235645,0.235128 0.23542412,0.23542412 0 0 1 -0.235127,-0.235128 0.23542412,0.23542412 0 0 1 0.235127,-0.2356441 z m 0.999939,0 A 0.23542412,0.23542412 0 0 1 20.080945,7.0000892 0.23542412,0.23542412 0 0 1 19.8453,7.2352172 0.23542412,0.23542412 0 0 1 19.610172,7.0000892 0.23542412,0.23542412 0 0 1 19.8453,6.7644451 Z m 1.000456,0 a 0.23542412,0.23542412 0 0 1 0.235128,0.2356441 0.23542412,0.23542412 0 0 1 -0.235128,0.235128 0.23542412,0.23542412 0 0 1 -0.235644,-0.235128 0.23542412,0.23542412 0 0 1 0.235644,-0.2356441 z m 0.999939,0 a 0.23542412,0.23542412 0 0 1 0.235128,0.2356441 0.23542412,0.23542412 0 0 1 -0.235128,0.235128 0.23542412,0.23542412 0 0 1 -0.235645,-0.235128 0.23542412,0.23542412 0 0 1 0.235645,-0.2356441 z m 0.999939,0 a 0.23542412,0.23542412 0 0 1 0.235128,0.2356441 0.23542412,0.23542412 0 0 1 -0.235128,0.235128 0.23542412,0.23542412 0 0 1 -0.235645,-0.235128 0.23542412,0.23542412 0 0 1 0.235645,-0.2356441 z m 0.999939,0 a 0.23542412,0.23542412 0 0 1 0.235128,0.2356441 0.23542412,0.23542412 0 0 1 -0.235128,0.235128 0.23542412,0.23542412 0 0 1 -0.235644,-0.235128 0.23542412,0.23542412 0 0 1 0.235644,-0.2356441 z m 0.999939,0 a 0.23542412,0.23542412 0 0 1 0.235644,0.2356441 0.23542412,0.23542412 0 0 1 -0.235644,0.235128 0.23542412,0.23542412 0 0 1 -0.235644,-0.235128 0.23542412,0.23542412 0 0 1 0.235644,-0.2356441 z m 0.999939,0 a 0.23542412,0.23542412 0 0 1 0.235644,0.2356441 0.23542412,0.23542412 0 0 1 -0.235644,0.235128 0.23542412,0.23542412 0 0 1 -0.235128,-0.235128 0.23542412,0.23542412 0 0 1 0.235128,-0.2356441 z m 0.999939,0 a 0.23542412,0.23542412 0 0 1 0.235644,0.2356441 0.23542412,0.23542412 0 0 1 -0.235644,0.235128 0.23542412,0.23542412 0 0 1 -0.235128,-0.235128 0.23542412,0.23542412 0 0 1 0.235128,-0.2356441 z m 0.999939,0 a 0.23542412,0.23542412 0 0 1 0.235644,0.2356441 0.23542412,0.23542412 0 0 1 -0.235644,0.235128 0.23542412,0.23542412 0 0 1 -0.235128,-0.235128 0.23542412,0.23542412 0 0 1 0.235128,-0.2356441 z m 0.999939,0 a 0.23542412,0.23542412 0 0 1 0.235644,0.2356441 0.23542412,0.23542412 0 0 1 -0.235644,0.235128 0.23542412,0.23542412 0 0 1 -0.235128,-0.235128 0.23542412,0.23542412 0 0 1 0.235128,-0.2356441 z m -13.490133,0.932243 a 0.30335295,0.30335295 0 0 1 0.303341,0.30334 0.30335295,0.30335295 0 0 1 -0.303341,0.3033411 0.30335295,0.30335295 0 0 1 -0.303341,-0.3033411 0.30335295,0.30335295 0 0 1 0.303341,-0.30334 z m 0.999939,0 a 0.30335295,0.30335295 0 0 1 0.303341,0.30334 0.30335295,0.30335295 0 0 1 -0.303341,0.3033411 0.30335295,0.30335295 0 0 1 -0.303341,-0.3033411 0.30335295,0.30335295 0 0 1 0.303341,-0.30334 z m 1.000456,0 a 0.30335295,0.30335295 0 0 1 0.30334,0.30334 0.30335295,0.30335295 0 0 1 -0.30334,0.3033411 0.30335295,0.30335295 0 0 1 -0.303341,-0.3033411 0.30335295,0.30335295 0 0 1 0.303341,-0.30334 z m 0.999939,0 a 0.30335295,0.30335295 0 0 1 0.30334,0.30334 0.30335295,0.30335295 0 0 1 -0.30334,0.3033411 0.30335295,0.30335295 0 0 1 -0.303341,-0.3033411 0.30335295,0.30335295 0 0 1 0.303341,-0.30334 z m 0.999939,0 a 0.30335295,0.30335295 0 0 1 0.30334,0.30334 0.30335295,0.30335295 0 0 1 -0.30334,0.3033411 0.30335295,0.30335295 0 0 1 -0.303341,-0.3033411 0.30335295,0.30335295 0 0 1 0.303341,-0.30334 z m 0.999939,0 a 0.30335295,0.30335295 0 0 1 0.30334,0.30334 0.30335295,0.30335295 0 0 1 -0.30334,0.3033411 0.30335295,0.30335295 0 0 1 -0.303341,-0.3033411 0.30335295,0.30335295 0 0 1 0.303341,-0.30334 z m 0.999939,0 a 0.30335295,0.30335295 0 0 1 0.30334,0.30334 0.30335295,0.30335295 0 0 1 -0.30334,0.3033411 0.30335295,0.30335295 0 0 1 -0.303341,-0.3033411 0.30335295,0.30335295 0 0 1 0.303341,-0.30334 z m 0.999939,0 a 0.30335295,0.30335295 0 0 1 0.30334,0.30334 0.30335295,0.30335295 0 0 1 -0.30334,0.3033411 0.30335295,0.30335295 0 0 1 -0.303341,-0.3033411 0.30335295,0.30335295 0 0 1 0.303341,-0.30334 z m 0.999939,0 a 0.30335295,0.30335295 0 0 1 0.303341,0.30334 0.30335295,0.30335295 0 0 1 -0.303341,0.3033411 0.30335295,0.30335295 0 0 1 -0.303341,-0.3033411 0.30335295,0.30335295 0 0 1 0.303341,-0.30334 z m 0.999939,0 a 0.30335295,0.30335295 0 0 1 0.303341,0.30334 0.30335295,0.30335295 0 0 1 -0.303341,0.3033411 0.30335295,0.30335295 0 0 1 -0.303341,-0.3033411 0.30335295,0.30335295 0 0 1 0.303341,-0.30334 z m 1.000455,0 a 0.30335295,0.30335295 0 0 1 0.303341,0.30334 0.30335295,0.30335295 0 0 1 -0.303341,0.3033411 0.30335295,0.30335295 0 0 1 -0.30334,-0.3033411 0.30335295,0.30335295 0 0 1 0.30334,-0.30334 z m 0.999939,0 a 0.30335295,0.30335295 0 0 1 0.303341,0.30334 0.30335295,0.30335295 0 0 1 -0.303341,0.3033411 0.30335295,0.30335295 0 0 1 -0.30334,-0.3033411 0.30335295,0.30335295 0 0 1 0.30334,-0.30334 z m 0.999939,0 a 0.30335295,0.30335295 0 0 1 0.303341,0.30334 0.30335295,0.30335295 0 0 1 -0.303341,0.3033411 0.30335295,0.30335295 0 0 1 -0.30334,-0.3033411 0.30335295,0.30335295 0 0 1 0.30334,-0.30334 z m 0.999939,0 a 0.30335295,0.30335295 0 0 1 0.303341,0.30334 0.30335295,0.30335295 0 0 1 -0.303341,0.3033411 0.30335295,0.30335295 0 0 1 -0.30334,-0.3033411 0.30335295,0.30335295 0 0 1 0.30334,-0.30334 z m 0.999939,0 a 0.30335295,0.30335295 0 0 1 0.303341,0.30334 0.30335295,0.30335295 0 0 1 -0.303341,0.3033411 0.30335295,0.30335295 0 0 1 -0.303341,-0.3033411 0.30335295,0.30335295 0 0 1 0.303341,-0.30334 z m -13.50977,0.9518801 a 0.35117647,0.35117647 0 0 1 0.3514,0.351399 0.35117647,0.35117647 0 0 1 -0.3514,0.3514 0.35117647,0.35117647 0 0 1 -0.351399,-0.3514 0.35117647,0.35117647 0 0 1 0.351399,-0.351399 z m 0.999939,0 a 0.35117647,0.35117647 0 0 1 0.3514,0.351399 0.35117647,0.35117647 0 0 1 -0.3514,0.3514 0.35117647,0.35117647 0 0 1 -0.351399,-0.3514 0.35117647,0.35117647 0 0 1 0.351399,-0.351399 z m 0.999939,0 a 0.35117647,0.35117647 0 0 1 0.3514,0.351399 0.35117647,0.35117647 0 0 1 -0.3514,0.3514 0.35117647,0.35117647 0 0 1 -0.350883,-0.3514 0.35117647,0.35117647 0 0 1 0.350883,-0.351399 z m 0.999939,0 a 0.35117647,0.35117647 0 0 1 0.3514,0.351399 0.35117647,0.35117647 0 0 1 -0.3514,0.3514 0.35117647,0.35117647 0 0 1 -0.350883,-0.3514 0.35117647,0.35117647 0 0 1 0.350883,-0.351399 z m 0.999939,0 a 0.35117647,0.35117647 0 0 1 0.3514,0.351399 0.35117647,0.35117647 0 0 1 -0.3514,0.3514 0.35117647,0.35117647 0 0 1 -0.350883,-0.3514 0.35117647,0.35117647 0 0 1 0.350883,-0.351399 z m 1.000456,0 a 0.35117647,0.35117647 0 0 1 0.350883,0.351399 0.35117647,0.35117647 0 0 1 -0.350883,0.3514 0.35117647,0.35117647 0 0 1 -0.3514,-0.3514 0.35117647,0.35117647 0 0 1 0.3514,-0.351399 z m 0.999939,0 a 0.35117647,0.35117647 0 0 1 0.350883,0.351399 0.35117647,0.35117647 0 0 1 -0.350883,0.3514 0.35117647,0.35117647 0 0 1 -0.3514,-0.3514 0.35117647,0.35117647 0 0 1 0.3514,-0.351399 z m 0.999939,0 a 0.35117647,0.35117647 0 0 1 0.350883,0.351399 0.35117647,0.35117647 0 0 1 -0.350883,0.3514 0.35117647,0.35117647 0 0 1 -0.3514,-0.3514 0.35117647,0.35117647 0 0 1 0.3514,-0.351399 z m 0.999939,0 a 0.35117647,0.35117647 0 0 1 0.350883,0.351399 0.35117647,0.35117647 0 0 1 -0.350883,0.3514 0.35117647,0.35117647 0 0 1 -0.351399,-0.3514 0.35117647,0.35117647 0 0 1 0.351399,-0.351399 z m 0.999939,0 a 0.35117647,0.35117647 0 0 1 0.3514,0.351399 0.35117647,0.35117647 0 0 1 -0.3514,0.3514 0.35117647,0.35117647 0 0 1 -0.3514,-0.3514 0.35117647,0.35117647 0 0 1 0.3514,-0.351399 z m 0.999939,0 a 0.35117647,0.35117647 0 0 1 0.3514,0.351399 0.35117647,0.35117647 0 0 1 -0.3514,0.3514 0.35117647,0.35117647 0 0 1 -0.350883,-0.3514 0.35117647,0.35117647 0 0 1 0.350883,-0.351399 z m 0.999939,0 a 0.35117647,0.35117647 0 0 1 0.3514,0.351399 0.35117647,0.35117647 0 0 1 -0.3514,0.3514 0.35117647,0.35117647 0 0 1 -0.350883,-0.3514 0.35117647,0.35117647 0 0 1 0.350883,-0.351399 z m 0.999939,0 a 0.35117647,0.35117647 0 0 1 0.3514,0.351399 0.35117647,0.35117647 0 0 1 -0.3514,0.3514 0.35117647,0.35117647 0 0 1 -0.350883,-0.3514 0.35117647,0.35117647 0 0 1 0.350883,-0.351399 z m 0.999939,0 a 0.35117647,0.35117647 0 0 1 0.351399,0.351399 0.35117647,0.35117647 0 0 1 -0.351399,0.3514 0.35117647,0.35117647 0 0 1 -0.350883,-0.3514 0.35117647,0.35117647 0 0 1 0.350883,-0.351399 z m -12.490194,0.943611 a 0.40784314,0.40784314 0 0 1 0.408244,0.407727 0.40784314,0.40784314 0 0 1 -0.408244,0.4077268 0.40784314,0.40784314 0 0 1 -0.407727,-0.4077268 0.40784314,0.40784314 0 0 1 0.407727,-0.407727 z m 1.000456,0 a 0.40784314,0.40784314 0 0 1 0.407727,0.407727 0.40784314,0.40784314 0 0 1 -0.407727,0.4077268 0.40784314,0.40784314 0 0 1 -0.408244,-0.4077268 0.40784314,0.40784314 0 0 1 0.408244,-0.407727 z m 0.999939,0 a 0.40784314,0.40784314 0 0 1 0.407727,0.407727 0.40784314,0.40784314 0 0 1 -0.407727,0.4077268 0.40784314,0.40784314 0 0 1 -0.408244,-0.4077268 0.40784314,0.40784314 0 0 1 0.408244,-0.407727 z m 0.999939,0 a 0.40784314,0.40784314 0 0 1 0.407727,0.407727 0.40784314,0.40784314 0 0 1 -0.407727,0.4077268 0.40784314,0.40784314 0 0 1 -0.407727,-0.4077268 0.40784314,0.40784314 0 0 1 0.407727,-0.407727 z m 0.999939,0 a 0.40784314,0.40784314 0 0 1 0.407727,0.407727 0.40784314,0.40784314 0 0 1 -0.407727,0.4077268 0.40784314,0.40784314 0 0 1 -0.407727,-0.4077268 0.40784314,0.40784314 0 0 1 0.407727,-0.407727 z m 0.999939,0 a 0.40784314,0.40784314 0 0 1 0.407727,0.407727 0.40784314,0.40784314 0 0 1 -0.407727,0.4077268 0.40784314,0.40784314 0 0 1 -0.407727,-0.4077268 0.40784314,0.40784314 0 0 1 0.407727,-0.407727 z m 0.999939,0 a 0.40784314,0.40784314 0 0 1 0.407727,0.407727 0.40784314,0.40784314 0 0 1 -0.407727,0.4077268 0.40784314,0.40784314 0 0 1 -0.407727,-0.4077268 0.40784314,0.40784314 0 0 1 0.407727,-0.407727 z m 0.999939,0 a 0.40784314,0.40784314 0 0 1 0.408244,0.407727 0.40784314,0.40784314 0 0 1 -0.408244,0.4077268 0.40784314,0.40784314 0 0 1 -0.407727,-0.4077268 0.40784314,0.40784314 0 0 1 0.407727,-0.407727 z m 0.999939,0 a 0.40784314,0.40784314 0 0 1 0.408244,0.407727 0.40784314,0.40784314 0 0 1 -0.408244,0.4077268 0.40784314,0.40784314 0 0 1 -0.407727,-0.4077268 0.40784314,0.40784314 0 0 1 0.407727,-0.407727 z m 1.000455,0 a 0.40784314,0.40784314 0 0 1 0.407727,0.407727 0.40784314,0.40784314 0 0 1 -0.407727,0.4077268 0.40784314,0.40784314 0 0 1 -0.408243,-0.4077268 0.40784314,0.40784314 0 0 1 0.408243,-0.407727 z m 0.999939,0 a 0.40784314,0.40784314 0 0 1 0.407727,0.407727 0.40784314,0.40784314 0 0 1 -0.407727,0.4077268 0.40784314,0.40784314 0 0 1 -0.408244,-0.4077268 0.40784314,0.40784314 0 0 1 0.408244,-0.407727 z m 0.999939,0 a 0.40784314,0.40784314 0 0 1 0.407727,0.407727 0.40784314,0.40784314 0 0 1 -0.407727,0.4077268 0.40784314,0.40784314 0 0 1 -0.407727,-0.4077268 0.40784314,0.40784314 0 0 1 0.407727,-0.407727 z m 0.999939,0 a 0.40784314,0.40784314 0 0 1 0.407727,0.407727 0.40784314,0.40784314 0 0 1 -0.407727,0.4077268 0.40784314,0.40784314 0 0 1 -0.407727,-0.4077268 0.40784314,0.40784314 0 0 1 0.407727,-0.407727 z m 0.999939,0 a 0.40784314,0.40784314 0 0 1 0.407727,0.407727 0.40784314,0.40784314 0 0 1 -0.407727,0.4077268 0.40784314,0.40784314 0 0 1 -0.407727,-0.4077268 0.40784314,0.40784314 0 0 1 0.407727,-0.407727 z m -13.50977,0.9399948 a 0.46803921,0.46803921 0 0 1 0.468189,0.467671 0.46803921,0.46803921 0 0 1 -0.468189,0.468189 0.46803921,0.46803921 0 0 1 -0.468188,-0.468189 0.46803921,0.46803921 0 0 1 0.468188,-0.467671 z m 0.999939,0 a 0.46803921,0.46803921 0 0 1 0.468189,0.467671 0.46803921,0.46803921 0 0 1 -0.468189,0.468189 0.46803921,0.46803921 0 0 1 -0.468188,-0.468189 0.46803921,0.46803921 0 0 1 0.468188,-0.467671 z m 0.999939,0 a 0.46803921,0.46803921 0 0 1 0.468189,0.467671 0.46803921,0.46803921 0 0 1 -0.468189,0.468189 0.46803921,0.46803921 0 0 1 -0.468188,-0.468189 0.46803921,0.46803921 0 0 1 0.468188,-0.467671 z m 0.999939,0 a 0.46803921,0.46803921 0 0 1 0.468189,0.467671 0.46803921,0.46803921 0 0 1 -0.468189,0.468189 0.46803921,0.46803921 0 0 1 -0.467671,-0.468189 0.46803921,0.46803921 0 0 1 0.467671,-0.467671 z m 0.999939,0 a 0.46803921,0.46803921 0 0 1 0.468189,0.467671 0.46803921,0.46803921 0 0 1 -0.468189,0.468189 0.46803921,0.46803921 0 0 1 -0.467671,-0.468189 0.46803921,0.46803921 0 0 1 0.467671,-0.467671 z m 1.000456,0 a 0.46803921,0.46803921 0 0 1 0.467672,0.467671 0.46803921,0.46803921 0 0 1 -0.467672,0.468189 0.46803921,0.46803921 0 0 1 -0.468188,-0.468189 0.46803921,0.46803921 0 0 1 0.468188,-0.467671 z m 0.999939,0 a 0.46803921,0.46803921 0 0 1 0.467672,0.467671 0.46803921,0.46803921 0 0 1 -0.467672,0.468189 0.46803921,0.46803921 0 0 1 -0.468188,-0.468189 0.46803921,0.46803921 0 0 1 0.468188,-0.467671 z m 0.999939,0 a 0.46803921,0.46803921 0 0 1 0.467672,0.467671 0.46803921,0.46803921 0 0 1 -0.467672,0.468189 0.46803921,0.46803921 0 0 1 -0.468189,-0.468189 0.46803921,0.46803921 0 0 1 0.468189,-0.467671 z m 0.999939,0 a 0.46803921,0.46803921 0 0 1 0.468189,0.467671 0.46803921,0.46803921 0 0 1 -0.468189,0.468189 0.46803921,0.46803921 0 0 1 -0.468188,-0.468189 0.46803921,0.46803921 0 0 1 0.468188,-0.467671 z m 0.999939,0 a 0.46803921,0.46803921 0 0 1 0.468188,0.467671 0.46803921,0.46803921 0 0 1 -0.468188,0.468189 0.46803921,0.46803921 0 0 1 -0.468188,-0.468189 0.46803921,0.46803921 0 0 1 0.468188,-0.467671 z m 0.999939,0 a 0.46803921,0.46803921 0 0 1 0.468188,0.467671 0.46803921,0.46803921 0 0 1 -0.468188,0.468189 0.46803921,0.46803921 0 0 1 -0.468189,-0.468189 0.46803921,0.46803921 0 0 1 0.468189,-0.467671 z m 0.999939,0 a 0.46803921,0.46803921 0 0 1 0.468188,0.467671 0.46803921,0.46803921 0 0 1 -0.468188,0.468189 0.46803921,0.46803921 0 0 1 -0.467672,-0.468189 0.46803921,0.46803921 0 0 1 0.467672,-0.467671 z m 0.999939,0 a 0.46803921,0.46803921 0 0 1 0.468188,0.467671 0.46803921,0.46803921 0 0 1 -0.468188,0.468189 0.46803921,0.46803921 0 0 1 -0.467672,-0.468189 0.46803921,0.46803921 0 0 1 0.467672,-0.467671 z m 0.999939,0 a 0.46803921,0.46803921 0 0 1 0.468188,0.467671 0.46803921,0.46803921 0 0 1 -0.468188,0.468189 0.46803921,0.46803921 0 0 1 -0.467672,-0.468189 0.46803921,0.46803921 0 0 1 0.467672,-0.467671 z m -12.490194,0.980302 a 0.48745099,0.48745099 0 0 1 0.487826,0.487308 0.48745099,0.48745099 0 0 1 -0.487826,0.487826 0.48745099,0.48745099 0 0 1 -0.487309,-0.487826 0.48745099,0.48745099 0 0 1 0.487309,-0.487308 z m 1.000456,0 a 0.48745099,0.48745099 0 0 1 0.487308,0.487308 0.48745099,0.48745099 0 0 1 -0.487308,0.487826 0.48745099,0.48745099 0 0 1 -0.487826,-0.487826 0.48745099,0.48745099 0 0 1 0.487826,-0.487308 z m 0.999939,0 a 0.48745099,0.48745099 0 0 1 0.487308,0.487308 0.48745099,0.48745099 0 0 1 -0.487308,0.487826 0.48745099,0.48745099 0 0 1 -0.487826,-0.487826 0.48745099,0.48745099 0 0 1 0.487826,-0.487308 z m 0.999939,0 a 0.48745099,0.48745099 0 0 1 0.487309,0.487308 0.48745099,0.48745099 0 0 1 -0.487309,0.487826 0.48745099,0.48745099 0 0 1 -0.487309,-0.487826 0.48745099,0.48745099 0 0 1 0.487309,-0.487308 z m 0.999939,0 a 0.48745099,0.48745099 0 0 1 0.487308,0.487308 0.48745099,0.48745099 0 0 1 -0.487308,0.487826 0.48745099,0.48745099 0 0 1 -0.487309,-0.487826 0.48745099,0.48745099 0 0 1 0.487309,-0.487308 z m 0.999939,0 a 0.48745099,0.48745099 0 0 1 0.487308,0.487308 0.48745099,0.48745099 0 0 1 -0.487308,0.487826 0.48745099,0.48745099 0 0 1 -0.487309,-0.487826 0.48745099,0.48745099 0 0 1 0.487309,-0.487308 z m 0.999939,0 a 0.48745099,0.48745099 0 0 1 0.487308,0.487308 0.48745099,0.48745099 0 0 1 -0.487308,0.487826 0.48745099,0.48745099 0 0 1 -0.487309,-0.487826 0.48745099,0.48745099 0 0 1 0.487309,-0.487308 z m 0.999939,0 a 0.48745099,0.48745099 0 0 1 0.487825,0.487308 0.48745099,0.48745099 0 0 1 -0.487825,0.487826 0.48745099,0.48745099 0 0 1 -0.487309,-0.487826 0.48745099,0.48745099 0 0 1 0.487309,-0.487308 z m 0.999939,0 a 0.48745099,0.48745099 0 0 1 0.487825,0.487308 0.48745099,0.48745099 0 0 1 -0.487825,0.487826 0.48745099,0.48745099 0 0 1 -0.487309,-0.487826 0.48745099,0.48745099 0 0 1 0.487309,-0.487308 z m 1.000455,0 a 0.48745099,0.48745099 0 0 1 0.487309,0.487308 0.48745099,0.48745099 0 0 1 -0.487309,0.487826 0.48745099,0.48745099 0 0 1 -0.487825,-0.487826 0.48745099,0.48745099 0 0 1 0.487825,-0.487308 z m 0.999939,0 a 0.48745099,0.48745099 0 0 1 0.487309,0.487308 0.48745099,0.48745099 0 0 1 -0.487309,0.487826 0.48745099,0.48745099 0 0 1 -0.487825,-0.487826 0.48745099,0.48745099 0 0 1 0.487825,-0.487308 z m 0.999939,0 a 0.48745099,0.48745099 0 0 1 0.487309,0.487308 0.48745099,0.48745099 0 0 1 -0.487309,0.487826 0.48745099,0.48745099 0 0 1 -0.487825,-0.487826 0.48745099,0.48745099 0 0 1 0.487825,-0.487308 z m 0.999939,0 a 0.48745099,0.48745099 0 0 1 0.487309,0.487308 0.48745099,0.48745099 0 0 1 -0.487309,0.487826 0.48745099,0.48745099 0 0 1 -0.487309,-0.487826 0.48745099,0.48745099 0 0 1 0.487309,-0.487308 z m 0.999939,0 a 0.48745099,0.48745099 0 0 1 0.487309,0.487308 0.48745099,0.48745099 0 0 1 -0.487309,0.487826 0.48745099,0.48745099 0 0 1 -0.487309,-0.487826 0.48745099,0.48745099 0 0 1 0.487309,-0.487308 z m -14.009997,1.727026 a 0.5551765,0.5551765 0 0 1 -0.09457,0.138493 0.63157254,0.63157254 0 0 1 0.104386,-0.0098 0.63157254,0.63157254 0 0 1 0.08113,0.0057 0.5551765,0.5551765 0 0 1 -0.09095,-0.134359 z m 1.000455,0 a 0.5551765,0.5551765 0 0 1 -0.0956,0.138493 0.63157254,0.63157254 0 0 1 0.104903,-0.0098 0.63157254,0.63157254 0 0 1 0.08113,0.0057 0.5551765,0.5551765 0 0 1 -0.09043,-0.134359 z m 0.999422,0 a 0.5551765,0.5551765 0 0 1 -0.09457,0.138493 0.63157254,0.63157254 0 0 1 0.104904,-0.0098 0.63157254,0.63157254 0 0 1 0.08061,0.0057 0.5551765,0.5551765 0 0 1 -0.09095,-0.134359 z m 1.000456,0 a 0.5551765,0.5551765 0 0 1 -0.09508,0.138493 0.63157254,0.63157254 0 0 1 0.104903,-0.0098 0.63157254,0.63157254 0 0 1 0.08062,0.0057 0.5551765,0.5551765 0 0 1 -0.09043,-0.134359 z m 3.999756,0 a 0.5551765,0.5551765 0 0 1 -0.09457,0.138493 0.63157254,0.63157254 0 0 1 0.104386,-0.0098 0.63157254,0.63157254 0 0 1 0.08113,0.0057 0.5551765,0.5551765 0 0 1 -0.09095,-0.134359 z m 1.000456,0 a 0.5551765,0.5551765 0 0 1 -0.09509,0.138493 0.63157254,0.63157254 0 0 1 0.104387,-0.0098 0.63157254,0.63157254 0 0 1 0.08113,0.0057 0.5551765,0.5551765 0 0 1 -0.09043,-0.134359 z m 0.999422,0 a 0.5551765,0.5551765 0 0 1 -0.09457,0.138493 0.63157254,0.63157254 0 0 1 0.104387,-0.0098 0.63157254,0.63157254 0 0 1 0.08113,0.0057 0.5551765,0.5551765 0 0 1 -0.09095,-0.134359 z m 1.000456,0 a 0.5551765,0.5551765 0 0 1 -0.09509,0.138493 0.63157254,0.63157254 0 0 1 0.104903,-0.0098 0.63157254,0.63157254 0 0 1 0.08062,0.0057 0.5551765,0.5551765 0 0 1 -0.09043,-0.134359 z m 0.999422,0 a 0.5551765,0.5551765 0 0 1 -0.09457,0.138493 0.63157254,0.63157254 0 0 1 0.104903,-0.0098 0.63157254,0.63157254 0 0 1 0.08062,0.0057 0.5551765,0.5551765 0 0 1 -0.09095,-0.134359 z m 1.000456,0 a 0.5551765,0.5551765 0 0 1 -0.09508,0.138493 0.63157254,0.63157254 0 0 1 0.104903,-0.0098 0.63157254,0.63157254 0 0 1 0.08061,0.0057 0.5551765,0.5551765 0 0 1 -0.09043,-0.134359 z m -8.000029,5.17e-4 a 0.5551765,0.5551765 0 0 1 -0.09509,0.137976 0.63157254,0.63157254 0 0 1 0.104903,-0.0098 0.63157254,0.63157254 0 0 1 0.08062,0.0057 0.5551765,0.5551765 0 0 1 -0.09043,-0.133842 z m 0.999939,0 a 0.5551765,0.5551765 0 0 1 -0.09509,0.137976 0.63157254,0.63157254 0 0 1 0.104903,-0.0098 0.63157254,0.63157254 0 0 1 0.08113,0.0057 0.5551765,0.5551765 0 0 1 -0.09095,-0.133842 z m 0.999939,0 a 0.5551765,0.5551765 0 0 1 -0.09509,0.137976 0.63157254,0.63157254 0 0 1 0.104903,-0.0098 0.63157254,0.63157254 0 0 1 0.08113,0.0057 0.5551765,0.5551765 0 0 1 -0.09095,-0.133842 z m 7.00009,0 a 0.5551765,0.5551765 0 0 1 -0.09509,0.137976 0.63157254,0.63157254 0 0 1 0.104903,-0.0098 0.63157254,0.63157254 0 0 1 0.08113,0.0057 0.5551765,0.5551765 0 0 1 -0.09095,-0.133842 z m 0.999939,0 a 0.5551765,0.5551765 0 0 1 -0.09509,0.137976 0.63157254,0.63157254 0 0 1 0.104903,-0.0098 0.63157254,0.63157254 0 0 1 0.08113,0.0057 0.5551765,0.5551765 0 0 1 -0.09095,-0.133842 z m -13.431222,0.310058 a 0.5551765,0.5551765 0 0 1 -0.06873,0.0052 0.5551765,0.5551765 0 0 1 -0.04444,-0.0031 0.63157254,0.63157254 0 0 1 0.05478,0.06356 0.63157254,0.63157254 0 0 1 0.05839,-0.06563 z m 0.999939,0 a 0.5551765,0.5551765 0 0 1 -0.06873,0.0052 0.5551765,0.5551765 0 0 1 -0.04444,-0.0031 0.63157254,0.63157254 0 0 1 0.05478,0.06356 0.63157254,0.63157254 0 0 1 0.05839,-0.06563 z m 0.999939,0 a 0.5551765,0.5551765 0 0 1 -0.06873,0.0052 0.5551765,0.5551765 0 0 1 -0.04444,-0.0031 0.63157254,0.63157254 0 0 1 0.05529,0.06356 0.63157254,0.63157254 0 0 1 0.05788,-0.06563 z m 0.999939,0 a 0.5551765,0.5551765 0 0 1 -0.06873,0.0052 0.5551765,0.5551765 0 0 1 -0.04444,-0.0031 0.63157254,0.63157254 0 0 1 0.05529,0.06356 0.63157254,0.63157254 0 0 1 0.05788,-0.06563 z m 0.999939,0 a 0.5551765,0.5551765 0 0 1 -0.06873,0.0052 0.5551765,0.5551765 0 0 1 -0.04444,-0.0031 0.63157254,0.63157254 0 0 1 0.05529,0.06356 0.63157254,0.63157254 0 0 1 0.05788,-0.06563 z m 0.999939,0 a 0.5551765,0.5551765 0 0 1 -0.06821,0.0052 0.5551765,0.5551765 0 0 1 -0.04496,-0.0031 0.63157254,0.63157254 0 0 1 0.05529,0.06305 0.63157254,0.63157254 0 0 1 0.05788,-0.06511 z m 1.000456,0 a 0.5551765,0.5551765 0 0 1 -0.06873,0.0052 0.5551765,0.5551765 0 0 1 -0.04496,-0.0031 0.63157254,0.63157254 0 0 1 0.05529,0.06356 0.63157254,0.63157254 0 0 1 0.05839,-0.06563 z m 0.999939,0 a 0.5551765,0.5551765 0 0 1 -0.06873,0.0052 0.5551765,0.5551765 0 0 1 -0.04496,-0.0031 0.63157254,0.63157254 0 0 1 0.05529,0.06356 0.63157254,0.63157254 0 0 1 0.05839,-0.06563 z m 0.999939,0 a 0.5551765,0.5551765 0 0 1 -0.06873,0.0052 0.5551765,0.5551765 0 0 1 -0.04496,-0.0031 0.63157254,0.63157254 0 0 1 0.05529,0.06356 0.63157254,0.63157254 0 0 1 0.05839,-0.06563 z m 0.999939,0 a 0.5551765,0.5551765 0 0 1 -0.06873,0.0052 0.5551765,0.5551765 0 0 1 -0.04444,-0.0031 0.63157254,0.63157254 0 0 1 0.05478,0.06356 0.63157254,0.63157254 0 0 1 0.05839,-0.06563 z m 0.999938,0 a 0.5551765,0.5551765 0 0 1 -0.06873,0.0052 0.5551765,0.5551765 0 0 1 -0.04444,-0.0031 0.63157254,0.63157254 0 0 1 0.05478,0.06356 0.63157254,0.63157254 0 0 1 0.05839,-0.06563 z m 0.999939,0 a 0.5551765,0.5551765 0 0 1 -0.06873,0.0052 0.5551765,0.5551765 0 0 1 -0.04444,-0.0031 0.63157254,0.63157254 0 0 1 0.05529,0.06356 0.63157254,0.63157254 0 0 1 0.05788,-0.06563 z m 0.999939,0 a 0.5551765,0.5551765 0 0 1 -0.06873,0.0052 0.5551765,0.5551765 0 0 1 -0.04444,-0.0031 0.63157254,0.63157254 0 0 1 0.05529,0.06356 0.63157254,0.63157254 0 0 1 0.05788,-0.06563 z m 0.999939,0 a 0.5551765,0.5551765 0 0 1 -0.06873,0.0052 0.5551765,0.5551765 0 0 1 -0.04444,-0.0031 0.63157254,0.63157254 0 0 1 0.05529,0.06305 0.63157254,0.63157254 0 0 1 0.05788,-0.06511 z m 0.999939,0 a 0.5551765,0.5551765 0 0 1 -0.06821,0.0052 0.5551765,0.5551765 0 0 1 -0.04496,-0.0031 0.63157254,0.63157254 0 0 1 0.05529,0.06305 0.63157254,0.63157254 0 0 1 0.05788,-0.06511 z" />
  </g>
</svg>
